%FSLAX45Y45*%
G04 Gerber Fmt 4.5, Leading zero omitted, Abs format (unit mm)*
G04 Created by KiCad (PCBNEW 5.1.6-c6e7f7d~87~ubuntu20.04.1) date 2020-09-10 19:56:56*
%MOMM*%
%LPD*%
G01*
G04 APERTURE LIST*
%TA.AperFunction,Profile*%
%ADD10C,0.050000*%
%TD*%
%ADD11C,0.200000*%
%ADD12C,0.300000*%
G04 APERTURE END LIST*
D10*
X18224500Y-10541000D02*
X18224500Y-4445000D01*
X12890500Y-10795000D02*
G75*
G02*
X12636500Y-10541000I0J254000D01*
G01*
X18224500Y-10541000D02*
G75*
G02*
X17970500Y-10795000I-254000J0D01*
G01*
X12636500Y-10541000D02*
X12636500Y-4445000D01*
X17970500Y-10795000D02*
X12890500Y-10795000D01*
X12636500Y-4445000D02*
X18224500Y-4445000D01*
D11*
X13543600Y-8057200D02*
X13583600Y-8097200D01*
X13583600Y-8057200D02*
X13543600Y-8097200D01*
X14267500Y-7790500D02*
X14307500Y-7830500D01*
X14307500Y-7790500D02*
X14267500Y-7830500D01*
X15347000Y-5949000D02*
X15387000Y-5989000D01*
X15387000Y-5949000D02*
X15347000Y-5989000D01*
X15905800Y-7346000D02*
X15945800Y-7386000D01*
X15945800Y-7346000D02*
X15905800Y-7386000D01*
X13827200Y-7366000D02*
G75*
G03*
X13827200Y-7366000I-35000J0D01*
G01*
X13827200Y-7874000D02*
G75*
G03*
X13827200Y-7874000I-35000J0D01*
G01*
X13598600Y-7366000D02*
G75*
G03*
X13598600Y-7366000I-35000J0D01*
G01*
X13598600Y-7874000D02*
G75*
G03*
X13598600Y-7874000I-35000J0D01*
G01*
X13614400Y-6896700D02*
X13614400Y-6971700D01*
X13576900Y-6934200D02*
X13651900Y-6934200D01*
X13741400Y-6896700D02*
X13741400Y-6971700D01*
X13703900Y-6934200D02*
X13778900Y-6934200D01*
X13868400Y-6896700D02*
X13868400Y-6971700D01*
X13830900Y-6934200D02*
X13905900Y-6934200D01*
X13573556Y-6004356D02*
X13573556Y-5933644D01*
X13502844Y-5933644D01*
X13502844Y-6004356D01*
X13573556Y-6004356D01*
X13573556Y-6258356D02*
X13573556Y-6187644D01*
X13502844Y-6187644D01*
X13502844Y-6258356D01*
X13573556Y-6258356D01*
X13573556Y-6512356D02*
X13573556Y-6441644D01*
X13502844Y-6441644D01*
X13502844Y-6512356D01*
X13573556Y-6512356D01*
X15402356Y-6004356D02*
X15402356Y-5933644D01*
X15331644Y-5933644D01*
X15331644Y-6004356D01*
X15402356Y-6004356D01*
X15656356Y-6004356D02*
X15656356Y-5933644D01*
X15585644Y-5933644D01*
X15585644Y-6004356D01*
X15656356Y-6004356D01*
X13840256Y-9675926D02*
X13840256Y-9605214D01*
X13769544Y-9605214D01*
X13769544Y-9675926D01*
X13840256Y-9675926D01*
X14094256Y-9675926D02*
X14094256Y-9605214D01*
X14023544Y-9605214D01*
X14023544Y-9675926D01*
X14094256Y-9675926D01*
X13206526Y-6001816D02*
X13206526Y-5931104D01*
X13135814Y-5931104D01*
X13135814Y-6001816D01*
X13206526Y-6001816D01*
X13206526Y-6255816D02*
X13206526Y-6185104D01*
X13135814Y-6185104D01*
X13135814Y-6255816D01*
X13206526Y-6255816D01*
X13206526Y-6509816D02*
X13206526Y-6439104D01*
X13135814Y-6439104D01*
X13135814Y-6509816D01*
X13206526Y-6509816D01*
X14640356Y-6639356D02*
X14640356Y-6568644D01*
X14569644Y-6568644D01*
X14569644Y-6639356D01*
X14640356Y-6639356D01*
X14640356Y-6893356D02*
X14640356Y-6822644D01*
X14569644Y-6822644D01*
X14569644Y-6893356D01*
X14640356Y-6893356D01*
X14640356Y-7147356D02*
X14640356Y-7076644D01*
X14569644Y-7076644D01*
X14569644Y-7147356D01*
X14640356Y-7147356D01*
X14640356Y-7401356D02*
X14640356Y-7330644D01*
X14569644Y-7330644D01*
X14569644Y-7401356D01*
X14640356Y-7401356D01*
X14640356Y-7655356D02*
X14640356Y-7584644D01*
X14569644Y-7584644D01*
X14569644Y-7655356D01*
X14640356Y-7655356D01*
X14640356Y-7909356D02*
X14640356Y-7838644D01*
X14569644Y-7838644D01*
X14569644Y-7909356D01*
X14640356Y-7909356D01*
X14640356Y-8163356D02*
X14640356Y-8092644D01*
X14569644Y-8092644D01*
X14569644Y-8163356D01*
X14640356Y-8163356D01*
X14640356Y-8417356D02*
X14640356Y-8346644D01*
X14569644Y-8346644D01*
X14569644Y-8417356D01*
X14640356Y-8417356D01*
X14640356Y-8671356D02*
X14640356Y-8600644D01*
X14569644Y-8600644D01*
X14569644Y-8671356D01*
X14640356Y-8671356D01*
X14640356Y-8925356D02*
X14640356Y-8854644D01*
X14569644Y-8854644D01*
X14569644Y-8925356D01*
X14640356Y-8925356D01*
X14640356Y-9179356D02*
X14640356Y-9108644D01*
X14569644Y-9108644D01*
X14569644Y-9179356D01*
X14640356Y-9179356D01*
X14640356Y-9433356D02*
X14640356Y-9362644D01*
X14569644Y-9362644D01*
X14569644Y-9433356D01*
X14640356Y-9433356D01*
X14640356Y-9687356D02*
X14640356Y-9616644D01*
X14569644Y-9616644D01*
X14569644Y-9687356D01*
X14640356Y-9687356D01*
X14640356Y-9941356D02*
X14640356Y-9870644D01*
X14569644Y-9870644D01*
X14569644Y-9941356D01*
X14640356Y-9941356D01*
X14640356Y-10195356D02*
X14640356Y-10124644D01*
X14569644Y-10124644D01*
X14569644Y-10195356D01*
X14640356Y-10195356D01*
X16164356Y-6639356D02*
X16164356Y-6568644D01*
X16093644Y-6568644D01*
X16093644Y-6639356D01*
X16164356Y-6639356D01*
X16164356Y-6893356D02*
X16164356Y-6822644D01*
X16093644Y-6822644D01*
X16093644Y-6893356D01*
X16164356Y-6893356D01*
X16164356Y-7147356D02*
X16164356Y-7076644D01*
X16093644Y-7076644D01*
X16093644Y-7147356D01*
X16164356Y-7147356D01*
X16164356Y-7401356D02*
X16164356Y-7330644D01*
X16093644Y-7330644D01*
X16093644Y-7401356D01*
X16164356Y-7401356D01*
X16164356Y-7655356D02*
X16164356Y-7584644D01*
X16093644Y-7584644D01*
X16093644Y-7655356D01*
X16164356Y-7655356D01*
X16164356Y-7909356D02*
X16164356Y-7838644D01*
X16093644Y-7838644D01*
X16093644Y-7909356D01*
X16164356Y-7909356D01*
X16164356Y-8163356D02*
X16164356Y-8092644D01*
X16093644Y-8092644D01*
X16093644Y-8163356D01*
X16164356Y-8163356D01*
X16164356Y-8417356D02*
X16164356Y-8346644D01*
X16093644Y-8346644D01*
X16093644Y-8417356D01*
X16164356Y-8417356D01*
X16164356Y-8671356D02*
X16164356Y-8600644D01*
X16093644Y-8600644D01*
X16093644Y-8671356D01*
X16164356Y-8671356D01*
X16164356Y-8925356D02*
X16164356Y-8854644D01*
X16093644Y-8854644D01*
X16093644Y-8925356D01*
X16164356Y-8925356D01*
X16164356Y-9179356D02*
X16164356Y-9108644D01*
X16093644Y-9108644D01*
X16093644Y-9179356D01*
X16164356Y-9179356D01*
X16164356Y-9433356D02*
X16164356Y-9362644D01*
X16093644Y-9362644D01*
X16093644Y-9433356D01*
X16164356Y-9433356D01*
X16164356Y-9687356D02*
X16164356Y-9616644D01*
X16093644Y-9616644D01*
X16093644Y-9687356D01*
X16164356Y-9687356D01*
X16164356Y-9941356D02*
X16164356Y-9870644D01*
X16093644Y-9870644D01*
X16093644Y-9941356D01*
X16164356Y-9941356D01*
X16164356Y-10195356D02*
X16164356Y-10124644D01*
X16093644Y-10124644D01*
X16093644Y-10195356D01*
X16164356Y-10195356D01*
X13814856Y-5686856D02*
X13814856Y-5616144D01*
X13744144Y-5616144D01*
X13744144Y-5686856D01*
X13814856Y-5686856D01*
X13953356Y-5432856D02*
X13953356Y-5362144D01*
X13882644Y-5362144D01*
X13882644Y-5432856D01*
X13953356Y-5432856D01*
X14091856Y-5686856D02*
X14091856Y-5616144D01*
X14021144Y-5616144D01*
X14021144Y-5686856D01*
X14091856Y-5686856D01*
X14230356Y-5432856D02*
X14230356Y-5362144D01*
X14159644Y-5362144D01*
X14159644Y-5432856D01*
X14230356Y-5432856D01*
X14368856Y-5686856D02*
X14368856Y-5616144D01*
X14298144Y-5616144D01*
X14298144Y-5686856D01*
X14368856Y-5686856D01*
X14507356Y-5432856D02*
X14507356Y-5362144D01*
X14436644Y-5362144D01*
X14436644Y-5432856D01*
X14507356Y-5432856D01*
X14645856Y-5686856D02*
X14645856Y-5616144D01*
X14575144Y-5616144D01*
X14575144Y-5686856D01*
X14645856Y-5686856D01*
X14784356Y-5432856D02*
X14784356Y-5362144D01*
X14713644Y-5362144D01*
X14713644Y-5432856D01*
X14784356Y-5432856D01*
X14922856Y-5686856D02*
X14922856Y-5616144D01*
X14852144Y-5616144D01*
X14852144Y-5686856D01*
X14922856Y-5686856D01*
X15061356Y-5432856D02*
X15061356Y-5362144D01*
X14990644Y-5362144D01*
X14990644Y-5432856D01*
X15061356Y-5432856D01*
X15199856Y-5686856D02*
X15199856Y-5616144D01*
X15129144Y-5616144D01*
X15129144Y-5686856D01*
X15199856Y-5686856D01*
X15338356Y-5432856D02*
X15338356Y-5362144D01*
X15267644Y-5362144D01*
X15267644Y-5432856D01*
X15338356Y-5432856D01*
X15476856Y-5686856D02*
X15476856Y-5616144D01*
X15406144Y-5616144D01*
X15406144Y-5686856D01*
X15476856Y-5686856D01*
X15615356Y-5432856D02*
X15615356Y-5362144D01*
X15544644Y-5362144D01*
X15544644Y-5432856D01*
X15615356Y-5432856D01*
X15753856Y-5686856D02*
X15753856Y-5616144D01*
X15683144Y-5616144D01*
X15683144Y-5686856D01*
X15753856Y-5686856D01*
X15892356Y-5432856D02*
X15892356Y-5362144D01*
X15821644Y-5362144D01*
X15821644Y-5432856D01*
X15892356Y-5432856D01*
X16030856Y-5686856D02*
X16030856Y-5616144D01*
X15960144Y-5616144D01*
X15960144Y-5686856D01*
X16030856Y-5686856D01*
X16169356Y-5432856D02*
X16169356Y-5362144D01*
X16098644Y-5362144D01*
X16098644Y-5432856D01*
X16169356Y-5432856D01*
X16307856Y-5686856D02*
X16307856Y-5616144D01*
X16237144Y-5616144D01*
X16237144Y-5686856D01*
X16307856Y-5686856D01*
X16446356Y-5432856D02*
X16446356Y-5362144D01*
X16375644Y-5362144D01*
X16375644Y-5432856D01*
X16446356Y-5432856D01*
X16584856Y-5686856D02*
X16584856Y-5616144D01*
X16514144Y-5616144D01*
X16514144Y-5686856D01*
X16584856Y-5686856D01*
X16723356Y-5432856D02*
X16723356Y-5362144D01*
X16652644Y-5362144D01*
X16652644Y-5432856D01*
X16723356Y-5432856D01*
X16861856Y-5686856D02*
X16861856Y-5616144D01*
X16791144Y-5616144D01*
X16791144Y-5686856D01*
X16861856Y-5686856D01*
X17000356Y-5432856D02*
X17000356Y-5362144D01*
X16929644Y-5362144D01*
X16929644Y-5432856D01*
X17000356Y-5432856D01*
X17138856Y-5686856D02*
X17138856Y-5616144D01*
X17068144Y-5616144D01*
X17068144Y-5686856D01*
X17138856Y-5686856D01*
X16732046Y-9627666D02*
X16732046Y-9556954D01*
X16661334Y-9556954D01*
X16661334Y-9627666D01*
X16732046Y-9627666D01*
X16986046Y-9627666D02*
X16986046Y-9556954D01*
X16915334Y-9556954D01*
X16915334Y-9627666D01*
X16986046Y-9627666D01*
X17637556Y-6004356D02*
X17637556Y-5933644D01*
X17566844Y-5933644D01*
X17566844Y-6004356D01*
X17637556Y-6004356D01*
X17891556Y-6004356D02*
X17891556Y-5933644D01*
X17820844Y-5933644D01*
X17820844Y-6004356D01*
X17891556Y-6004356D01*
X13941856Y-6004356D02*
X13941856Y-5933644D01*
X13871144Y-5933644D01*
X13871144Y-6004356D01*
X13941856Y-6004356D01*
X13941856Y-6258356D02*
X13941856Y-6187644D01*
X13871144Y-6187644D01*
X13871144Y-6258356D01*
X13941856Y-6258356D01*
X13941856Y-6512356D02*
X13941856Y-6441644D01*
X13871144Y-6441644D01*
X13871144Y-6512356D01*
X13941856Y-6512356D01*
X14576856Y-6004356D02*
X14576856Y-5933644D01*
X14506144Y-5933644D01*
X14506144Y-6004356D01*
X14576856Y-6004356D01*
X14830856Y-6004356D02*
X14830856Y-5933644D01*
X14760144Y-5933644D01*
X14760144Y-6004356D01*
X14830856Y-6004356D01*
X16527780Y-10032120D02*
X16582780Y-9977120D01*
X16527780Y-9922120D01*
X16472780Y-9977120D01*
X16527780Y-10032120D01*
X16527780Y-10482120D02*
X16582780Y-10427120D01*
X16527780Y-10372120D01*
X16472780Y-10427120D01*
X16527780Y-10482120D01*
X17177780Y-10032120D02*
X17232780Y-9977120D01*
X17177780Y-9922120D01*
X17122780Y-9977120D01*
X17177780Y-10032120D01*
X17177780Y-10482120D02*
X17232780Y-10427120D01*
X17177780Y-10372120D01*
X17122780Y-10427120D01*
X17177780Y-10482120D01*
X13638770Y-10053290D02*
X13693770Y-9998290D01*
X13638770Y-9943290D01*
X13583770Y-9998290D01*
X13638770Y-10053290D01*
X13638770Y-10503290D02*
X13693770Y-10448290D01*
X13638770Y-10393290D01*
X13583770Y-10448290D01*
X13638770Y-10503290D01*
X14288770Y-10053290D02*
X14343770Y-9998290D01*
X14288770Y-9943290D01*
X14233770Y-9998290D01*
X14288770Y-10053290D01*
X14288770Y-10503290D02*
X14343770Y-10448290D01*
X14288770Y-10393290D01*
X14233770Y-10448290D01*
X14288770Y-10503290D01*
D12*
X12920428Y-11263214D02*
X12920428Y-10963214D01*
X12991857Y-10963214D01*
X13034714Y-10977500D01*
X13063286Y-11006072D01*
X13077571Y-11034643D01*
X13091857Y-11091786D01*
X13091857Y-11134643D01*
X13077571Y-11191786D01*
X13063286Y-11220357D01*
X13034714Y-11248929D01*
X12991857Y-11263214D01*
X12920428Y-11263214D01*
X13220428Y-11263214D02*
X13220428Y-11063214D01*
X13220428Y-11120357D02*
X13234714Y-11091786D01*
X13249000Y-11077500D01*
X13277571Y-11063214D01*
X13306143Y-11063214D01*
X13406143Y-11263214D02*
X13406143Y-11063214D01*
X13406143Y-10963214D02*
X13391857Y-10977500D01*
X13406143Y-10991786D01*
X13420428Y-10977500D01*
X13406143Y-10963214D01*
X13406143Y-10991786D01*
X13591857Y-11263214D02*
X13563286Y-11248929D01*
X13549000Y-11220357D01*
X13549000Y-10963214D01*
X13749000Y-11263214D02*
X13720428Y-11248929D01*
X13706143Y-11220357D01*
X13706143Y-10963214D01*
X14091857Y-11263214D02*
X14091857Y-10963214D01*
X14191857Y-11177500D01*
X14291857Y-10963214D01*
X14291857Y-11263214D01*
X14563286Y-11263214D02*
X14563286Y-11106072D01*
X14549000Y-11077500D01*
X14520428Y-11063214D01*
X14463286Y-11063214D01*
X14434714Y-11077500D01*
X14563286Y-11248929D02*
X14534714Y-11263214D01*
X14463286Y-11263214D01*
X14434714Y-11248929D01*
X14420428Y-11220357D01*
X14420428Y-11191786D01*
X14434714Y-11163214D01*
X14463286Y-11148929D01*
X14534714Y-11148929D01*
X14563286Y-11134643D01*
X14706143Y-11063214D02*
X14706143Y-11363214D01*
X14706143Y-11077500D02*
X14734714Y-11063214D01*
X14791857Y-11063214D01*
X14820428Y-11077500D01*
X14834714Y-11091786D01*
X14849000Y-11120357D01*
X14849000Y-11206071D01*
X14834714Y-11234643D01*
X14820428Y-11248929D01*
X14791857Y-11263214D01*
X14734714Y-11263214D01*
X14706143Y-11248929D01*
X14977571Y-11234643D02*
X14991857Y-11248929D01*
X14977571Y-11263214D01*
X14963286Y-11248929D01*
X14977571Y-11234643D01*
X14977571Y-11263214D01*
X14977571Y-11077500D02*
X14991857Y-11091786D01*
X14977571Y-11106072D01*
X14963286Y-11091786D01*
X14977571Y-11077500D01*
X14977571Y-11106072D01*
X12594000Y-11737500D02*
X12634000Y-11777500D01*
X12634000Y-11737500D02*
X12594000Y-11777500D01*
X12977571Y-11593214D02*
X13006143Y-11593214D01*
X13034714Y-11607500D01*
X13049000Y-11621786D01*
X13063286Y-11650357D01*
X13077571Y-11707500D01*
X13077571Y-11778929D01*
X13063286Y-11836071D01*
X13049000Y-11864643D01*
X13034714Y-11878929D01*
X13006143Y-11893214D01*
X12977571Y-11893214D01*
X12949000Y-11878929D01*
X12934714Y-11864643D01*
X12920428Y-11836071D01*
X12906143Y-11778929D01*
X12906143Y-11707500D01*
X12920428Y-11650357D01*
X12934714Y-11621786D01*
X12949000Y-11607500D01*
X12977571Y-11593214D01*
X13206143Y-11864643D02*
X13220428Y-11878929D01*
X13206143Y-11893214D01*
X13191857Y-11878929D01*
X13206143Y-11864643D01*
X13206143Y-11893214D01*
X13477571Y-11693214D02*
X13477571Y-11893214D01*
X13406143Y-11578929D02*
X13334714Y-11793214D01*
X13520428Y-11793214D01*
X13691857Y-11593214D02*
X13720428Y-11593214D01*
X13749000Y-11607500D01*
X13763286Y-11621786D01*
X13777571Y-11650357D01*
X13791857Y-11707500D01*
X13791857Y-11778929D01*
X13777571Y-11836071D01*
X13763286Y-11864643D01*
X13749000Y-11878929D01*
X13720428Y-11893214D01*
X13691857Y-11893214D01*
X13663286Y-11878929D01*
X13649000Y-11864643D01*
X13634714Y-11836071D01*
X13620428Y-11778929D01*
X13620428Y-11707500D01*
X13634714Y-11650357D01*
X13649000Y-11621786D01*
X13663286Y-11607500D01*
X13691857Y-11593214D01*
X13920428Y-11893214D02*
X13920428Y-11693214D01*
X13920428Y-11721786D02*
X13934714Y-11707500D01*
X13963286Y-11693214D01*
X14006143Y-11693214D01*
X14034714Y-11707500D01*
X14049000Y-11736071D01*
X14049000Y-11893214D01*
X14049000Y-11736071D02*
X14063286Y-11707500D01*
X14091857Y-11693214D01*
X14134714Y-11693214D01*
X14163286Y-11707500D01*
X14177571Y-11736071D01*
X14177571Y-11893214D01*
X14320428Y-11893214D02*
X14320428Y-11693214D01*
X14320428Y-11721786D02*
X14334714Y-11707500D01*
X14363286Y-11693214D01*
X14406143Y-11693214D01*
X14434714Y-11707500D01*
X14449000Y-11736071D01*
X14449000Y-11893214D01*
X14449000Y-11736071D02*
X14463286Y-11707500D01*
X14491857Y-11693214D01*
X14534714Y-11693214D01*
X14563286Y-11707500D01*
X14577571Y-11736071D01*
X14577571Y-11893214D01*
X15163286Y-11578929D02*
X14906143Y-11964643D01*
X15549000Y-11593214D02*
X15577571Y-11593214D01*
X15606143Y-11607500D01*
X15620428Y-11621786D01*
X15634714Y-11650357D01*
X15649000Y-11707500D01*
X15649000Y-11778929D01*
X15634714Y-11836071D01*
X15620428Y-11864643D01*
X15606143Y-11878929D01*
X15577571Y-11893214D01*
X15549000Y-11893214D01*
X15520428Y-11878929D01*
X15506143Y-11864643D01*
X15491857Y-11836071D01*
X15477571Y-11778929D01*
X15477571Y-11707500D01*
X15491857Y-11650357D01*
X15506143Y-11621786D01*
X15520428Y-11607500D01*
X15549000Y-11593214D01*
X15777571Y-11864643D02*
X15791857Y-11878929D01*
X15777571Y-11893214D01*
X15763286Y-11878929D01*
X15777571Y-11864643D01*
X15777571Y-11893214D01*
X15977571Y-11593214D02*
X16006143Y-11593214D01*
X16034714Y-11607500D01*
X16049000Y-11621786D01*
X16063286Y-11650357D01*
X16077571Y-11707500D01*
X16077571Y-11778929D01*
X16063286Y-11836071D01*
X16049000Y-11864643D01*
X16034714Y-11878929D01*
X16006143Y-11893214D01*
X15977571Y-11893214D01*
X15949000Y-11878929D01*
X15934714Y-11864643D01*
X15920428Y-11836071D01*
X15906143Y-11778929D01*
X15906143Y-11707500D01*
X15920428Y-11650357D01*
X15934714Y-11621786D01*
X15949000Y-11607500D01*
X15977571Y-11593214D01*
X16363286Y-11893214D02*
X16191857Y-11893214D01*
X16277571Y-11893214D02*
X16277571Y-11593214D01*
X16249000Y-11636071D01*
X16220428Y-11664643D01*
X16191857Y-11678929D01*
X16620428Y-11593214D02*
X16563286Y-11593214D01*
X16534714Y-11607500D01*
X16520428Y-11621786D01*
X16491857Y-11664643D01*
X16477571Y-11721786D01*
X16477571Y-11836071D01*
X16491857Y-11864643D01*
X16506143Y-11878929D01*
X16534714Y-11893214D01*
X16591857Y-11893214D01*
X16620428Y-11878929D01*
X16634714Y-11864643D01*
X16649000Y-11836071D01*
X16649000Y-11764643D01*
X16634714Y-11736071D01*
X16620428Y-11721786D01*
X16591857Y-11707500D01*
X16534714Y-11707500D01*
X16506143Y-11721786D01*
X16491857Y-11736071D01*
X16477571Y-11764643D01*
X16763286Y-11593214D02*
X16763286Y-11650357D01*
X16877571Y-11593214D02*
X16877571Y-11650357D01*
X17320428Y-12007500D02*
X17306143Y-11993214D01*
X17277571Y-11950357D01*
X17263286Y-11921786D01*
X17249000Y-11878929D01*
X17234714Y-11807500D01*
X17234714Y-11750357D01*
X17249000Y-11678929D01*
X17263286Y-11636071D01*
X17277571Y-11607500D01*
X17306143Y-11564643D01*
X17320428Y-11550357D01*
X17563286Y-11693214D02*
X17563286Y-11893214D01*
X17491857Y-11578929D02*
X17420428Y-11793214D01*
X17606143Y-11793214D01*
X17949000Y-11893214D02*
X17949000Y-11593214D01*
X18077571Y-11893214D02*
X18077571Y-11736071D01*
X18063286Y-11707500D01*
X18034714Y-11693214D01*
X17991857Y-11693214D01*
X17963286Y-11707500D01*
X17949000Y-11721786D01*
X18263286Y-11893214D02*
X18234714Y-11878929D01*
X18220428Y-11864643D01*
X18206143Y-11836071D01*
X18206143Y-11750357D01*
X18220428Y-11721786D01*
X18234714Y-11707500D01*
X18263286Y-11693214D01*
X18306143Y-11693214D01*
X18334714Y-11707500D01*
X18349000Y-11721786D01*
X18363286Y-11750357D01*
X18363286Y-11836071D01*
X18349000Y-11864643D01*
X18334714Y-11878929D01*
X18306143Y-11893214D01*
X18263286Y-11893214D01*
X18534714Y-11893214D02*
X18506143Y-11878929D01*
X18491857Y-11850357D01*
X18491857Y-11593214D01*
X18763286Y-11878929D02*
X18734714Y-11893214D01*
X18677571Y-11893214D01*
X18649000Y-11878929D01*
X18634714Y-11850357D01*
X18634714Y-11736071D01*
X18649000Y-11707500D01*
X18677571Y-11693214D01*
X18734714Y-11693214D01*
X18763286Y-11707500D01*
X18777571Y-11736071D01*
X18777571Y-11764643D01*
X18634714Y-11793214D01*
X18891857Y-11878929D02*
X18920428Y-11893214D01*
X18977571Y-11893214D01*
X19006143Y-11878929D01*
X19020428Y-11850357D01*
X19020428Y-11836071D01*
X19006143Y-11807500D01*
X18977571Y-11793214D01*
X18934714Y-11793214D01*
X18906143Y-11778929D01*
X18891857Y-11750357D01*
X18891857Y-11736071D01*
X18906143Y-11707500D01*
X18934714Y-11693214D01*
X18977571Y-11693214D01*
X19006143Y-11707500D01*
X19120428Y-12007500D02*
X19134714Y-11993214D01*
X19163286Y-11950357D01*
X19177571Y-11921786D01*
X19191857Y-11878929D01*
X19206143Y-11807500D01*
X19206143Y-11750357D01*
X19191857Y-11678929D01*
X19177571Y-11636071D01*
X19163286Y-11607500D01*
X19134714Y-11564643D01*
X19120428Y-11550357D01*
X12634000Y-12153500D02*
G75*
G03*
X12634000Y-12153500I-35000J0D01*
G01*
X12977571Y-11989214D02*
X13006143Y-11989214D01*
X13034714Y-12003500D01*
X13049000Y-12017786D01*
X13063286Y-12046357D01*
X13077571Y-12103500D01*
X13077571Y-12174929D01*
X13063286Y-12232071D01*
X13049000Y-12260643D01*
X13034714Y-12274929D01*
X13006143Y-12289214D01*
X12977571Y-12289214D01*
X12949000Y-12274929D01*
X12934714Y-12260643D01*
X12920428Y-12232071D01*
X12906143Y-12174929D01*
X12906143Y-12103500D01*
X12920428Y-12046357D01*
X12934714Y-12017786D01*
X12949000Y-12003500D01*
X12977571Y-11989214D01*
X13206143Y-12260643D02*
X13220428Y-12274929D01*
X13206143Y-12289214D01*
X13191857Y-12274929D01*
X13206143Y-12260643D01*
X13206143Y-12289214D01*
X13320428Y-11989214D02*
X13520428Y-11989214D01*
X13391857Y-12289214D01*
X13691857Y-11989214D02*
X13720428Y-11989214D01*
X13749000Y-12003500D01*
X13763286Y-12017786D01*
X13777571Y-12046357D01*
X13791857Y-12103500D01*
X13791857Y-12174929D01*
X13777571Y-12232071D01*
X13763286Y-12260643D01*
X13749000Y-12274929D01*
X13720428Y-12289214D01*
X13691857Y-12289214D01*
X13663286Y-12274929D01*
X13649000Y-12260643D01*
X13634714Y-12232071D01*
X13620428Y-12174929D01*
X13620428Y-12103500D01*
X13634714Y-12046357D01*
X13649000Y-12017786D01*
X13663286Y-12003500D01*
X13691857Y-11989214D01*
X13920428Y-12289214D02*
X13920428Y-12089214D01*
X13920428Y-12117786D02*
X13934714Y-12103500D01*
X13963286Y-12089214D01*
X14006143Y-12089214D01*
X14034714Y-12103500D01*
X14049000Y-12132071D01*
X14049000Y-12289214D01*
X14049000Y-12132071D02*
X14063286Y-12103500D01*
X14091857Y-12089214D01*
X14134714Y-12089214D01*
X14163286Y-12103500D01*
X14177571Y-12132071D01*
X14177571Y-12289214D01*
X14320428Y-12289214D02*
X14320428Y-12089214D01*
X14320428Y-12117786D02*
X14334714Y-12103500D01*
X14363286Y-12089214D01*
X14406143Y-12089214D01*
X14434714Y-12103500D01*
X14449000Y-12132071D01*
X14449000Y-12289214D01*
X14449000Y-12132071D02*
X14463286Y-12103500D01*
X14491857Y-12089214D01*
X14534714Y-12089214D01*
X14563286Y-12103500D01*
X14577571Y-12132071D01*
X14577571Y-12289214D01*
X15163286Y-11974929D02*
X14906143Y-12360643D01*
X15549000Y-11989214D02*
X15577571Y-11989214D01*
X15606143Y-12003500D01*
X15620428Y-12017786D01*
X15634714Y-12046357D01*
X15649000Y-12103500D01*
X15649000Y-12174929D01*
X15634714Y-12232071D01*
X15620428Y-12260643D01*
X15606143Y-12274929D01*
X15577571Y-12289214D01*
X15549000Y-12289214D01*
X15520428Y-12274929D01*
X15506143Y-12260643D01*
X15491857Y-12232071D01*
X15477571Y-12174929D01*
X15477571Y-12103500D01*
X15491857Y-12046357D01*
X15506143Y-12017786D01*
X15520428Y-12003500D01*
X15549000Y-11989214D01*
X15777571Y-12260643D02*
X15791857Y-12274929D01*
X15777571Y-12289214D01*
X15763286Y-12274929D01*
X15777571Y-12260643D01*
X15777571Y-12289214D01*
X15977571Y-11989214D02*
X16006143Y-11989214D01*
X16034714Y-12003500D01*
X16049000Y-12017786D01*
X16063286Y-12046357D01*
X16077571Y-12103500D01*
X16077571Y-12174929D01*
X16063286Y-12232071D01*
X16049000Y-12260643D01*
X16034714Y-12274929D01*
X16006143Y-12289214D01*
X15977571Y-12289214D01*
X15949000Y-12274929D01*
X15934714Y-12260643D01*
X15920428Y-12232071D01*
X15906143Y-12174929D01*
X15906143Y-12103500D01*
X15920428Y-12046357D01*
X15934714Y-12017786D01*
X15949000Y-12003500D01*
X15977571Y-11989214D01*
X16191857Y-12017786D02*
X16206143Y-12003500D01*
X16234714Y-11989214D01*
X16306143Y-11989214D01*
X16334714Y-12003500D01*
X16349000Y-12017786D01*
X16363286Y-12046357D01*
X16363286Y-12074929D01*
X16349000Y-12117786D01*
X16177571Y-12289214D01*
X16363286Y-12289214D01*
X16534714Y-12117786D02*
X16506143Y-12103500D01*
X16491857Y-12089214D01*
X16477571Y-12060643D01*
X16477571Y-12046357D01*
X16491857Y-12017786D01*
X16506143Y-12003500D01*
X16534714Y-11989214D01*
X16591857Y-11989214D01*
X16620428Y-12003500D01*
X16634714Y-12017786D01*
X16649000Y-12046357D01*
X16649000Y-12060643D01*
X16634714Y-12089214D01*
X16620428Y-12103500D01*
X16591857Y-12117786D01*
X16534714Y-12117786D01*
X16506143Y-12132071D01*
X16491857Y-12146357D01*
X16477571Y-12174929D01*
X16477571Y-12232071D01*
X16491857Y-12260643D01*
X16506143Y-12274929D01*
X16534714Y-12289214D01*
X16591857Y-12289214D01*
X16620428Y-12274929D01*
X16634714Y-12260643D01*
X16649000Y-12232071D01*
X16649000Y-12174929D01*
X16634714Y-12146357D01*
X16620428Y-12132071D01*
X16591857Y-12117786D01*
X16763286Y-11989214D02*
X16763286Y-12046357D01*
X16877571Y-11989214D02*
X16877571Y-12046357D01*
X17320428Y-12403500D02*
X17306143Y-12389214D01*
X17277571Y-12346357D01*
X17263286Y-12317786D01*
X17249000Y-12274929D01*
X17234714Y-12203500D01*
X17234714Y-12146357D01*
X17249000Y-12074929D01*
X17263286Y-12032071D01*
X17277571Y-12003500D01*
X17306143Y-11960643D01*
X17320428Y-11946357D01*
X17563286Y-12089214D02*
X17563286Y-12289214D01*
X17491857Y-11974929D02*
X17420428Y-12189214D01*
X17606143Y-12189214D01*
X17949000Y-12289214D02*
X17949000Y-11989214D01*
X18077571Y-12289214D02*
X18077571Y-12132071D01*
X18063286Y-12103500D01*
X18034714Y-12089214D01*
X17991857Y-12089214D01*
X17963286Y-12103500D01*
X17949000Y-12117786D01*
X18263286Y-12289214D02*
X18234714Y-12274929D01*
X18220428Y-12260643D01*
X18206143Y-12232071D01*
X18206143Y-12146357D01*
X18220428Y-12117786D01*
X18234714Y-12103500D01*
X18263286Y-12089214D01*
X18306143Y-12089214D01*
X18334714Y-12103500D01*
X18349000Y-12117786D01*
X18363286Y-12146357D01*
X18363286Y-12232071D01*
X18349000Y-12260643D01*
X18334714Y-12274929D01*
X18306143Y-12289214D01*
X18263286Y-12289214D01*
X18534714Y-12289214D02*
X18506143Y-12274929D01*
X18491857Y-12246357D01*
X18491857Y-11989214D01*
X18763286Y-12274929D02*
X18734714Y-12289214D01*
X18677571Y-12289214D01*
X18649000Y-12274929D01*
X18634714Y-12246357D01*
X18634714Y-12132071D01*
X18649000Y-12103500D01*
X18677571Y-12089214D01*
X18734714Y-12089214D01*
X18763286Y-12103500D01*
X18777571Y-12132071D01*
X18777571Y-12160643D01*
X18634714Y-12189214D01*
X18891857Y-12274929D02*
X18920428Y-12289214D01*
X18977571Y-12289214D01*
X19006143Y-12274929D01*
X19020428Y-12246357D01*
X19020428Y-12232071D01*
X19006143Y-12203500D01*
X18977571Y-12189214D01*
X18934714Y-12189214D01*
X18906143Y-12174929D01*
X18891857Y-12146357D01*
X18891857Y-12132071D01*
X18906143Y-12103500D01*
X18934714Y-12089214D01*
X18977571Y-12089214D01*
X19006143Y-12103500D01*
X19120428Y-12403500D02*
X19134714Y-12389214D01*
X19163286Y-12346357D01*
X19177571Y-12317786D01*
X19191857Y-12274929D01*
X19206143Y-12203500D01*
X19206143Y-12146357D01*
X19191857Y-12074929D01*
X19177571Y-12032071D01*
X19163286Y-12003500D01*
X19134714Y-11960643D01*
X19120428Y-11946357D01*
X12596500Y-12512000D02*
X12596500Y-12587000D01*
X12559000Y-12549500D02*
X12634000Y-12549500D01*
X12977571Y-12385214D02*
X13006143Y-12385214D01*
X13034714Y-12399500D01*
X13049000Y-12413786D01*
X13063286Y-12442357D01*
X13077571Y-12499500D01*
X13077571Y-12570929D01*
X13063286Y-12628071D01*
X13049000Y-12656643D01*
X13034714Y-12670929D01*
X13006143Y-12685214D01*
X12977571Y-12685214D01*
X12949000Y-12670929D01*
X12934714Y-12656643D01*
X12920428Y-12628071D01*
X12906143Y-12570929D01*
X12906143Y-12499500D01*
X12920428Y-12442357D01*
X12934714Y-12413786D01*
X12949000Y-12399500D01*
X12977571Y-12385214D01*
X13206143Y-12656643D02*
X13220428Y-12670929D01*
X13206143Y-12685214D01*
X13191857Y-12670929D01*
X13206143Y-12656643D01*
X13206143Y-12685214D01*
X13320428Y-12385214D02*
X13520428Y-12385214D01*
X13391857Y-12685214D01*
X13777571Y-12385214D02*
X13634714Y-12385214D01*
X13620428Y-12528071D01*
X13634714Y-12513786D01*
X13663286Y-12499500D01*
X13734714Y-12499500D01*
X13763286Y-12513786D01*
X13777571Y-12528071D01*
X13791857Y-12556643D01*
X13791857Y-12628071D01*
X13777571Y-12656643D01*
X13763286Y-12670929D01*
X13734714Y-12685214D01*
X13663286Y-12685214D01*
X13634714Y-12670929D01*
X13620428Y-12656643D01*
X13920428Y-12685214D02*
X13920428Y-12485214D01*
X13920428Y-12513786D02*
X13934714Y-12499500D01*
X13963286Y-12485214D01*
X14006143Y-12485214D01*
X14034714Y-12499500D01*
X14049000Y-12528071D01*
X14049000Y-12685214D01*
X14049000Y-12528071D02*
X14063286Y-12499500D01*
X14091857Y-12485214D01*
X14134714Y-12485214D01*
X14163286Y-12499500D01*
X14177571Y-12528071D01*
X14177571Y-12685214D01*
X14320428Y-12685214D02*
X14320428Y-12485214D01*
X14320428Y-12513786D02*
X14334714Y-12499500D01*
X14363286Y-12485214D01*
X14406143Y-12485214D01*
X14434714Y-12499500D01*
X14449000Y-12528071D01*
X14449000Y-12685214D01*
X14449000Y-12528071D02*
X14463286Y-12499500D01*
X14491857Y-12485214D01*
X14534714Y-12485214D01*
X14563286Y-12499500D01*
X14577571Y-12528071D01*
X14577571Y-12685214D01*
X15163286Y-12370929D02*
X14906143Y-12756643D01*
X15549000Y-12385214D02*
X15577571Y-12385214D01*
X15606143Y-12399500D01*
X15620428Y-12413786D01*
X15634714Y-12442357D01*
X15649000Y-12499500D01*
X15649000Y-12570929D01*
X15634714Y-12628071D01*
X15620428Y-12656643D01*
X15606143Y-12670929D01*
X15577571Y-12685214D01*
X15549000Y-12685214D01*
X15520428Y-12670929D01*
X15506143Y-12656643D01*
X15491857Y-12628071D01*
X15477571Y-12570929D01*
X15477571Y-12499500D01*
X15491857Y-12442357D01*
X15506143Y-12413786D01*
X15520428Y-12399500D01*
X15549000Y-12385214D01*
X15777571Y-12656643D02*
X15791857Y-12670929D01*
X15777571Y-12685214D01*
X15763286Y-12670929D01*
X15777571Y-12656643D01*
X15777571Y-12685214D01*
X15977571Y-12385214D02*
X16006143Y-12385214D01*
X16034714Y-12399500D01*
X16049000Y-12413786D01*
X16063286Y-12442357D01*
X16077571Y-12499500D01*
X16077571Y-12570929D01*
X16063286Y-12628071D01*
X16049000Y-12656643D01*
X16034714Y-12670929D01*
X16006143Y-12685214D01*
X15977571Y-12685214D01*
X15949000Y-12670929D01*
X15934714Y-12656643D01*
X15920428Y-12628071D01*
X15906143Y-12570929D01*
X15906143Y-12499500D01*
X15920428Y-12442357D01*
X15934714Y-12413786D01*
X15949000Y-12399500D01*
X15977571Y-12385214D01*
X16177571Y-12385214D02*
X16363286Y-12385214D01*
X16263286Y-12499500D01*
X16306143Y-12499500D01*
X16334714Y-12513786D01*
X16349000Y-12528071D01*
X16363286Y-12556643D01*
X16363286Y-12628071D01*
X16349000Y-12656643D01*
X16334714Y-12670929D01*
X16306143Y-12685214D01*
X16220428Y-12685214D01*
X16191857Y-12670929D01*
X16177571Y-12656643D01*
X16549000Y-12385214D02*
X16577571Y-12385214D01*
X16606143Y-12399500D01*
X16620428Y-12413786D01*
X16634714Y-12442357D01*
X16649000Y-12499500D01*
X16649000Y-12570929D01*
X16634714Y-12628071D01*
X16620428Y-12656643D01*
X16606143Y-12670929D01*
X16577571Y-12685214D01*
X16549000Y-12685214D01*
X16520428Y-12670929D01*
X16506143Y-12656643D01*
X16491857Y-12628071D01*
X16477571Y-12570929D01*
X16477571Y-12499500D01*
X16491857Y-12442357D01*
X16506143Y-12413786D01*
X16520428Y-12399500D01*
X16549000Y-12385214D01*
X16763286Y-12385214D02*
X16763286Y-12442357D01*
X16877571Y-12385214D02*
X16877571Y-12442357D01*
X17320428Y-12799500D02*
X17306143Y-12785214D01*
X17277571Y-12742357D01*
X17263286Y-12713786D01*
X17249000Y-12670929D01*
X17234714Y-12599500D01*
X17234714Y-12542357D01*
X17249000Y-12470929D01*
X17263286Y-12428071D01*
X17277571Y-12399500D01*
X17306143Y-12356643D01*
X17320428Y-12342357D01*
X17406143Y-12385214D02*
X17591857Y-12385214D01*
X17491857Y-12499500D01*
X17534714Y-12499500D01*
X17563286Y-12513786D01*
X17577571Y-12528071D01*
X17591857Y-12556643D01*
X17591857Y-12628071D01*
X17577571Y-12656643D01*
X17563286Y-12670929D01*
X17534714Y-12685214D01*
X17449000Y-12685214D01*
X17420428Y-12670929D01*
X17406143Y-12656643D01*
X17949000Y-12685214D02*
X17949000Y-12385214D01*
X18077571Y-12685214D02*
X18077571Y-12528071D01*
X18063286Y-12499500D01*
X18034714Y-12485214D01*
X17991857Y-12485214D01*
X17963286Y-12499500D01*
X17949000Y-12513786D01*
X18263286Y-12685214D02*
X18234714Y-12670929D01*
X18220428Y-12656643D01*
X18206143Y-12628071D01*
X18206143Y-12542357D01*
X18220428Y-12513786D01*
X18234714Y-12499500D01*
X18263286Y-12485214D01*
X18306143Y-12485214D01*
X18334714Y-12499500D01*
X18349000Y-12513786D01*
X18363286Y-12542357D01*
X18363286Y-12628071D01*
X18349000Y-12656643D01*
X18334714Y-12670929D01*
X18306143Y-12685214D01*
X18263286Y-12685214D01*
X18534714Y-12685214D02*
X18506143Y-12670929D01*
X18491857Y-12642357D01*
X18491857Y-12385214D01*
X18763286Y-12670929D02*
X18734714Y-12685214D01*
X18677571Y-12685214D01*
X18649000Y-12670929D01*
X18634714Y-12642357D01*
X18634714Y-12528071D01*
X18649000Y-12499500D01*
X18677571Y-12485214D01*
X18734714Y-12485214D01*
X18763286Y-12499500D01*
X18777571Y-12528071D01*
X18777571Y-12556643D01*
X18634714Y-12585214D01*
X18891857Y-12670929D02*
X18920428Y-12685214D01*
X18977571Y-12685214D01*
X19006143Y-12670929D01*
X19020428Y-12642357D01*
X19020428Y-12628071D01*
X19006143Y-12599500D01*
X18977571Y-12585214D01*
X18934714Y-12585214D01*
X18906143Y-12570929D01*
X18891857Y-12542357D01*
X18891857Y-12528071D01*
X18906143Y-12499500D01*
X18934714Y-12485214D01*
X18977571Y-12485214D01*
X19006143Y-12499500D01*
X19120428Y-12799500D02*
X19134714Y-12785214D01*
X19163286Y-12742357D01*
X19177571Y-12713786D01*
X19191857Y-12670929D01*
X19206143Y-12599500D01*
X19206143Y-12542357D01*
X19191857Y-12470929D01*
X19177571Y-12428071D01*
X19163286Y-12399500D01*
X19134714Y-12356643D01*
X19120428Y-12342357D01*
X12619356Y-12980856D02*
X12619356Y-12910144D01*
X12548644Y-12910144D01*
X12548644Y-12980856D01*
X12619356Y-12980856D01*
X13077571Y-13081214D02*
X12906143Y-13081214D01*
X12991857Y-13081214D02*
X12991857Y-12781214D01*
X12963286Y-12824071D01*
X12934714Y-12852643D01*
X12906143Y-12866929D01*
X13206143Y-13052643D02*
X13220428Y-13066929D01*
X13206143Y-13081214D01*
X13191857Y-13066929D01*
X13206143Y-13052643D01*
X13206143Y-13081214D01*
X13406143Y-12781214D02*
X13434714Y-12781214D01*
X13463286Y-12795500D01*
X13477571Y-12809786D01*
X13491857Y-12838357D01*
X13506143Y-12895500D01*
X13506143Y-12966929D01*
X13491857Y-13024071D01*
X13477571Y-13052643D01*
X13463286Y-13066929D01*
X13434714Y-13081214D01*
X13406143Y-13081214D01*
X13377571Y-13066929D01*
X13363286Y-13052643D01*
X13349000Y-13024071D01*
X13334714Y-12966929D01*
X13334714Y-12895500D01*
X13349000Y-12838357D01*
X13363286Y-12809786D01*
X13377571Y-12795500D01*
X13406143Y-12781214D01*
X13691857Y-12781214D02*
X13720428Y-12781214D01*
X13749000Y-12795500D01*
X13763286Y-12809786D01*
X13777571Y-12838357D01*
X13791857Y-12895500D01*
X13791857Y-12966929D01*
X13777571Y-13024071D01*
X13763286Y-13052643D01*
X13749000Y-13066929D01*
X13720428Y-13081214D01*
X13691857Y-13081214D01*
X13663286Y-13066929D01*
X13649000Y-13052643D01*
X13634714Y-13024071D01*
X13620428Y-12966929D01*
X13620428Y-12895500D01*
X13634714Y-12838357D01*
X13649000Y-12809786D01*
X13663286Y-12795500D01*
X13691857Y-12781214D01*
X13920428Y-13081214D02*
X13920428Y-12881214D01*
X13920428Y-12909786D02*
X13934714Y-12895500D01*
X13963286Y-12881214D01*
X14006143Y-12881214D01*
X14034714Y-12895500D01*
X14049000Y-12924071D01*
X14049000Y-13081214D01*
X14049000Y-12924071D02*
X14063286Y-12895500D01*
X14091857Y-12881214D01*
X14134714Y-12881214D01*
X14163286Y-12895500D01*
X14177571Y-12924071D01*
X14177571Y-13081214D01*
X14320428Y-13081214D02*
X14320428Y-12881214D01*
X14320428Y-12909786D02*
X14334714Y-12895500D01*
X14363286Y-12881214D01*
X14406143Y-12881214D01*
X14434714Y-12895500D01*
X14449000Y-12924071D01*
X14449000Y-13081214D01*
X14449000Y-12924071D02*
X14463286Y-12895500D01*
X14491857Y-12881214D01*
X14534714Y-12881214D01*
X14563286Y-12895500D01*
X14577571Y-12924071D01*
X14577571Y-13081214D01*
X15163286Y-12766929D02*
X14906143Y-13152643D01*
X15549000Y-12781214D02*
X15577571Y-12781214D01*
X15606143Y-12795500D01*
X15620428Y-12809786D01*
X15634714Y-12838357D01*
X15649000Y-12895500D01*
X15649000Y-12966929D01*
X15634714Y-13024071D01*
X15620428Y-13052643D01*
X15606143Y-13066929D01*
X15577571Y-13081214D01*
X15549000Y-13081214D01*
X15520428Y-13066929D01*
X15506143Y-13052643D01*
X15491857Y-13024071D01*
X15477571Y-12966929D01*
X15477571Y-12895500D01*
X15491857Y-12838357D01*
X15506143Y-12809786D01*
X15520428Y-12795500D01*
X15549000Y-12781214D01*
X15777571Y-13052643D02*
X15791857Y-13066929D01*
X15777571Y-13081214D01*
X15763286Y-13066929D01*
X15777571Y-13052643D01*
X15777571Y-13081214D01*
X15977571Y-12781214D02*
X16006143Y-12781214D01*
X16034714Y-12795500D01*
X16049000Y-12809786D01*
X16063286Y-12838357D01*
X16077571Y-12895500D01*
X16077571Y-12966929D01*
X16063286Y-13024071D01*
X16049000Y-13052643D01*
X16034714Y-13066929D01*
X16006143Y-13081214D01*
X15977571Y-13081214D01*
X15949000Y-13066929D01*
X15934714Y-13052643D01*
X15920428Y-13024071D01*
X15906143Y-12966929D01*
X15906143Y-12895500D01*
X15920428Y-12838357D01*
X15934714Y-12809786D01*
X15949000Y-12795500D01*
X15977571Y-12781214D01*
X16177571Y-12781214D02*
X16363286Y-12781214D01*
X16263286Y-12895500D01*
X16306143Y-12895500D01*
X16334714Y-12909786D01*
X16349000Y-12924071D01*
X16363286Y-12952643D01*
X16363286Y-13024071D01*
X16349000Y-13052643D01*
X16334714Y-13066929D01*
X16306143Y-13081214D01*
X16220428Y-13081214D01*
X16191857Y-13066929D01*
X16177571Y-13052643D01*
X16506143Y-13081214D02*
X16563286Y-13081214D01*
X16591857Y-13066929D01*
X16606143Y-13052643D01*
X16634714Y-13009786D01*
X16649000Y-12952643D01*
X16649000Y-12838357D01*
X16634714Y-12809786D01*
X16620428Y-12795500D01*
X16591857Y-12781214D01*
X16534714Y-12781214D01*
X16506143Y-12795500D01*
X16491857Y-12809786D01*
X16477571Y-12838357D01*
X16477571Y-12909786D01*
X16491857Y-12938357D01*
X16506143Y-12952643D01*
X16534714Y-12966929D01*
X16591857Y-12966929D01*
X16620428Y-12952643D01*
X16634714Y-12938357D01*
X16649000Y-12909786D01*
X16763286Y-12781214D02*
X16763286Y-12838357D01*
X16877571Y-12781214D02*
X16877571Y-12838357D01*
X17320428Y-13195500D02*
X17306143Y-13181214D01*
X17277571Y-13138357D01*
X17263286Y-13109786D01*
X17249000Y-13066929D01*
X17234714Y-12995500D01*
X17234714Y-12938357D01*
X17249000Y-12866929D01*
X17263286Y-12824071D01*
X17277571Y-12795500D01*
X17306143Y-12752643D01*
X17320428Y-12738357D01*
X17406143Y-12781214D02*
X17606143Y-12781214D01*
X17477571Y-13081214D01*
X17849000Y-12881214D02*
X17849000Y-13081214D01*
X17777571Y-12766929D02*
X17706143Y-12981214D01*
X17891857Y-12981214D01*
X18234714Y-13081214D02*
X18234714Y-12781214D01*
X18363286Y-13081214D02*
X18363286Y-12924071D01*
X18349000Y-12895500D01*
X18320428Y-12881214D01*
X18277571Y-12881214D01*
X18249000Y-12895500D01*
X18234714Y-12909786D01*
X18549000Y-13081214D02*
X18520428Y-13066929D01*
X18506143Y-13052643D01*
X18491857Y-13024071D01*
X18491857Y-12938357D01*
X18506143Y-12909786D01*
X18520428Y-12895500D01*
X18549000Y-12881214D01*
X18591857Y-12881214D01*
X18620428Y-12895500D01*
X18634714Y-12909786D01*
X18649000Y-12938357D01*
X18649000Y-13024071D01*
X18634714Y-13052643D01*
X18620428Y-13066929D01*
X18591857Y-13081214D01*
X18549000Y-13081214D01*
X18820428Y-13081214D02*
X18791857Y-13066929D01*
X18777571Y-13038357D01*
X18777571Y-12781214D01*
X19049000Y-13066929D02*
X19020428Y-13081214D01*
X18963286Y-13081214D01*
X18934714Y-13066929D01*
X18920428Y-13038357D01*
X18920428Y-12924071D01*
X18934714Y-12895500D01*
X18963286Y-12881214D01*
X19020428Y-12881214D01*
X19049000Y-12895500D01*
X19063286Y-12924071D01*
X19063286Y-12952643D01*
X18920428Y-12981214D01*
X19177571Y-13066929D02*
X19206143Y-13081214D01*
X19263286Y-13081214D01*
X19291857Y-13066929D01*
X19306143Y-13038357D01*
X19306143Y-13024071D01*
X19291857Y-12995500D01*
X19263286Y-12981214D01*
X19220428Y-12981214D01*
X19191857Y-12966929D01*
X19177571Y-12938357D01*
X19177571Y-12924071D01*
X19191857Y-12895500D01*
X19220428Y-12881214D01*
X19263286Y-12881214D01*
X19291857Y-12895500D01*
X19406143Y-13195500D02*
X19420428Y-13181214D01*
X19449000Y-13138357D01*
X19463286Y-13109786D01*
X19477571Y-13066929D01*
X19491857Y-12995500D01*
X19491857Y-12938357D01*
X19477571Y-12866929D01*
X19463286Y-12824071D01*
X19449000Y-12795500D01*
X19420428Y-12752643D01*
X19406143Y-12738357D01*
X12579000Y-13396500D02*
X12634000Y-13341500D01*
X12579000Y-13286500D01*
X12524000Y-13341500D01*
X12579000Y-13396500D01*
X13077571Y-13477214D02*
X12906143Y-13477214D01*
X12991857Y-13477214D02*
X12991857Y-13177214D01*
X12963286Y-13220071D01*
X12934714Y-13248643D01*
X12906143Y-13262929D01*
X13206143Y-13448643D02*
X13220428Y-13462929D01*
X13206143Y-13477214D01*
X13191857Y-13462929D01*
X13206143Y-13448643D01*
X13206143Y-13477214D01*
X13506143Y-13477214D02*
X13334714Y-13477214D01*
X13420428Y-13477214D02*
X13420428Y-13177214D01*
X13391857Y-13220071D01*
X13363286Y-13248643D01*
X13334714Y-13262929D01*
X13691857Y-13177214D02*
X13720428Y-13177214D01*
X13749000Y-13191500D01*
X13763286Y-13205786D01*
X13777571Y-13234357D01*
X13791857Y-13291500D01*
X13791857Y-13362929D01*
X13777571Y-13420071D01*
X13763286Y-13448643D01*
X13749000Y-13462929D01*
X13720428Y-13477214D01*
X13691857Y-13477214D01*
X13663286Y-13462929D01*
X13649000Y-13448643D01*
X13634714Y-13420071D01*
X13620428Y-13362929D01*
X13620428Y-13291500D01*
X13634714Y-13234357D01*
X13649000Y-13205786D01*
X13663286Y-13191500D01*
X13691857Y-13177214D01*
X13920428Y-13477214D02*
X13920428Y-13277214D01*
X13920428Y-13305786D02*
X13934714Y-13291500D01*
X13963286Y-13277214D01*
X14006143Y-13277214D01*
X14034714Y-13291500D01*
X14049000Y-13320071D01*
X14049000Y-13477214D01*
X14049000Y-13320071D02*
X14063286Y-13291500D01*
X14091857Y-13277214D01*
X14134714Y-13277214D01*
X14163286Y-13291500D01*
X14177571Y-13320071D01*
X14177571Y-13477214D01*
X14320428Y-13477214D02*
X14320428Y-13277214D01*
X14320428Y-13305786D02*
X14334714Y-13291500D01*
X14363286Y-13277214D01*
X14406143Y-13277214D01*
X14434714Y-13291500D01*
X14449000Y-13320071D01*
X14449000Y-13477214D01*
X14449000Y-13320071D02*
X14463286Y-13291500D01*
X14491857Y-13277214D01*
X14534714Y-13277214D01*
X14563286Y-13291500D01*
X14577571Y-13320071D01*
X14577571Y-13477214D01*
X15163286Y-13162929D02*
X14906143Y-13548643D01*
X15549000Y-13177214D02*
X15577571Y-13177214D01*
X15606143Y-13191500D01*
X15620428Y-13205786D01*
X15634714Y-13234357D01*
X15649000Y-13291500D01*
X15649000Y-13362929D01*
X15634714Y-13420071D01*
X15620428Y-13448643D01*
X15606143Y-13462929D01*
X15577571Y-13477214D01*
X15549000Y-13477214D01*
X15520428Y-13462929D01*
X15506143Y-13448643D01*
X15491857Y-13420071D01*
X15477571Y-13362929D01*
X15477571Y-13291500D01*
X15491857Y-13234357D01*
X15506143Y-13205786D01*
X15520428Y-13191500D01*
X15549000Y-13177214D01*
X15777571Y-13448643D02*
X15791857Y-13462929D01*
X15777571Y-13477214D01*
X15763286Y-13462929D01*
X15777571Y-13448643D01*
X15777571Y-13477214D01*
X15977571Y-13177214D02*
X16006143Y-13177214D01*
X16034714Y-13191500D01*
X16049000Y-13205786D01*
X16063286Y-13234357D01*
X16077571Y-13291500D01*
X16077571Y-13362929D01*
X16063286Y-13420071D01*
X16049000Y-13448643D01*
X16034714Y-13462929D01*
X16006143Y-13477214D01*
X15977571Y-13477214D01*
X15949000Y-13462929D01*
X15934714Y-13448643D01*
X15920428Y-13420071D01*
X15906143Y-13362929D01*
X15906143Y-13291500D01*
X15920428Y-13234357D01*
X15934714Y-13205786D01*
X15949000Y-13191500D01*
X15977571Y-13177214D01*
X16334714Y-13277214D02*
X16334714Y-13477214D01*
X16263286Y-13162929D02*
X16191857Y-13377214D01*
X16377571Y-13377214D01*
X16463286Y-13177214D02*
X16649000Y-13177214D01*
X16549000Y-13291500D01*
X16591857Y-13291500D01*
X16620428Y-13305786D01*
X16634714Y-13320071D01*
X16649000Y-13348643D01*
X16649000Y-13420071D01*
X16634714Y-13448643D01*
X16620428Y-13462929D01*
X16591857Y-13477214D01*
X16506143Y-13477214D01*
X16477571Y-13462929D01*
X16463286Y-13448643D01*
X16763286Y-13177214D02*
X16763286Y-13234357D01*
X16877571Y-13177214D02*
X16877571Y-13234357D01*
X17320428Y-13591500D02*
X17306143Y-13577214D01*
X17277571Y-13534357D01*
X17263286Y-13505786D01*
X17249000Y-13462929D01*
X17234714Y-13391500D01*
X17234714Y-13334357D01*
X17249000Y-13262929D01*
X17263286Y-13220071D01*
X17277571Y-13191500D01*
X17306143Y-13148643D01*
X17320428Y-13134357D01*
X17477571Y-13305786D02*
X17449000Y-13291500D01*
X17434714Y-13277214D01*
X17420428Y-13248643D01*
X17420428Y-13234357D01*
X17434714Y-13205786D01*
X17449000Y-13191500D01*
X17477571Y-13177214D01*
X17534714Y-13177214D01*
X17563286Y-13191500D01*
X17577571Y-13205786D01*
X17591857Y-13234357D01*
X17591857Y-13248643D01*
X17577571Y-13277214D01*
X17563286Y-13291500D01*
X17534714Y-13305786D01*
X17477571Y-13305786D01*
X17449000Y-13320071D01*
X17434714Y-13334357D01*
X17420428Y-13362929D01*
X17420428Y-13420071D01*
X17434714Y-13448643D01*
X17449000Y-13462929D01*
X17477571Y-13477214D01*
X17534714Y-13477214D01*
X17563286Y-13462929D01*
X17577571Y-13448643D01*
X17591857Y-13420071D01*
X17591857Y-13362929D01*
X17577571Y-13334357D01*
X17563286Y-13320071D01*
X17534714Y-13305786D01*
X17949000Y-13477214D02*
X17949000Y-13177214D01*
X18077571Y-13477214D02*
X18077571Y-13320071D01*
X18063286Y-13291500D01*
X18034714Y-13277214D01*
X17991857Y-13277214D01*
X17963286Y-13291500D01*
X17949000Y-13305786D01*
X18263286Y-13477214D02*
X18234714Y-13462929D01*
X18220428Y-13448643D01*
X18206143Y-13420071D01*
X18206143Y-13334357D01*
X18220428Y-13305786D01*
X18234714Y-13291500D01*
X18263286Y-13277214D01*
X18306143Y-13277214D01*
X18334714Y-13291500D01*
X18349000Y-13305786D01*
X18363286Y-13334357D01*
X18363286Y-13420071D01*
X18349000Y-13448643D01*
X18334714Y-13462929D01*
X18306143Y-13477214D01*
X18263286Y-13477214D01*
X18534714Y-13477214D02*
X18506143Y-13462929D01*
X18491857Y-13434357D01*
X18491857Y-13177214D01*
X18763286Y-13462929D02*
X18734714Y-13477214D01*
X18677571Y-13477214D01*
X18649000Y-13462929D01*
X18634714Y-13434357D01*
X18634714Y-13320071D01*
X18649000Y-13291500D01*
X18677571Y-13277214D01*
X18734714Y-13277214D01*
X18763286Y-13291500D01*
X18777571Y-13320071D01*
X18777571Y-13348643D01*
X18634714Y-13377214D01*
X18891857Y-13462929D02*
X18920428Y-13477214D01*
X18977571Y-13477214D01*
X19006143Y-13462929D01*
X19020428Y-13434357D01*
X19020428Y-13420071D01*
X19006143Y-13391500D01*
X18977571Y-13377214D01*
X18934714Y-13377214D01*
X18906143Y-13362929D01*
X18891857Y-13334357D01*
X18891857Y-13320071D01*
X18906143Y-13291500D01*
X18934714Y-13277214D01*
X18977571Y-13277214D01*
X19006143Y-13291500D01*
X19120428Y-13591500D02*
X19134714Y-13577214D01*
X19163286Y-13534357D01*
X19177571Y-13505786D01*
X19191857Y-13462929D01*
X19206143Y-13391500D01*
X19206143Y-13334357D01*
X19191857Y-13262929D01*
X19177571Y-13220071D01*
X19163286Y-13191500D01*
X19134714Y-13148643D01*
X19120428Y-13134357D01*
M02*
