M48
; DRILL file {KiCad 5.1.6-c6e7f7d~87~ubuntu20.04.1} date Sun Sep 27 23:03:36 2020
; FORMAT={-:-/ absolute / metric / decimal}
; #@! TF.CreationDate,2020-09-27T23:03:36+02:00
; #@! TF.GenerationSoftware,Kicad,Pcbnew,5.1.6-c6e7f7d~87~ubuntu20.04.1
; #@! TF.FileFunction,Plated,1,2,PTH
FMAT,2
METRIC
T1C0.400
T2C0.750
T3C0.800
T4C0.900
T5C1.000
T6C1.100
%
G90
G05
T1
X135.75Y-82.385
X142.47Y-81.266
X142.875Y-78.105
X153.67Y-59.69
X159.258Y-73.66
T2
X136.03Y-68.605
X137.3Y-68.605
X138.57Y-68.605
T3
X135.064Y-88.24
X142.684Y-88.24
X135.966Y-72.568
X135.966Y-80.188
X135.064Y-91.364
X142.684Y-91.364
X139.04Y-72.555
X139.04Y-80.175
X135.064Y-85.103
X142.684Y-85.103
T4
X128.981Y-86.5
X131.521Y-86.5
X128.981Y-93.091
X131.521Y-93.091
X128.981Y-79.908
X131.521Y-79.908
T5
X138.049Y-96.406
X140.589Y-96.406
X135.382Y-59.69
X135.382Y-62.23
X135.382Y-64.77
X176.022Y-59.69
X178.562Y-59.69
X146.05Y-66.04
X146.05Y-68.58
X146.05Y-71.12
X146.05Y-73.66
X146.05Y-76.2
X146.05Y-78.74
X146.05Y-81.28
X146.05Y-83.82
X146.05Y-86.36
X146.05Y-88.9
X146.05Y-91.44
X146.05Y-93.98
X146.05Y-96.52
X146.05Y-99.06
X146.05Y-101.6
X161.29Y-66.04
X161.29Y-68.58
X161.29Y-71.12
X161.29Y-73.66
X161.29Y-76.2
X161.29Y-78.74
X161.29Y-81.28
X161.29Y-83.82
X161.29Y-86.36
X161.29Y-88.9
X161.29Y-91.44
X161.29Y-93.98
X161.29Y-96.52
X161.29Y-99.06
X161.29Y-101.6
X166.967Y-95.923
X169.507Y-95.923
X153.67Y-59.69
X156.21Y-59.69
X139.065Y-59.69
X139.065Y-62.23
X139.065Y-64.77
X145.415Y-59.69
X147.955Y-59.69
X131.712Y-59.665
X131.712Y-62.205
X131.712Y-64.745
X137.795Y-56.515
X139.18Y-53.975
X140.565Y-56.515
X141.95Y-53.975
X143.335Y-56.515
X144.72Y-53.975
X146.105Y-56.515
X147.49Y-53.975
X148.875Y-56.515
X150.26Y-53.975
X151.645Y-56.515
X153.03Y-53.975
X154.415Y-56.515
X155.8Y-53.975
X157.185Y-56.515
X158.57Y-53.975
X159.955Y-56.515
X161.34Y-53.975
X162.725Y-56.515
X164.11Y-53.975
X165.495Y-56.515
X166.88Y-53.975
X168.265Y-56.515
X169.65Y-53.975
X171.035Y-56.515
T6
X136.388Y-99.983
X136.388Y-104.483
X142.888Y-99.983
X142.888Y-104.483
X165.278Y-99.771
X165.278Y-104.271
X171.778Y-99.771
X171.778Y-104.271
T0
M30
