%TF.GenerationSoftware,KiCad,Pcbnew,5.1.6-c6e7f7d~87~ubuntu20.04.1*%
%TF.CreationDate,2020-09-09T20:44:38+02:00*%
%TF.ProjectId,arduino-2-tb6560-4axis,61726475-696e-46f2-9d32-2d7462363536,rev?*%
%TF.SameCoordinates,Original*%
%TF.FileFunction,Copper,L1,Top*%
%TF.FilePolarity,Positive*%
%FSLAX46Y46*%
G04 Gerber Fmt 4.6, Leading zero omitted, Abs format (unit mm)*
G04 Created by KiCad (PCBNEW 5.1.6-c6e7f7d~87~ubuntu20.04.1) date 2020-09-09 20:44:38*
%MOMM*%
%LPD*%
G01*
G04 APERTURE LIST*
%TA.AperFunction,ComponentPad*%
%ADD10O,1.700000X1.700000*%
%TD*%
%TA.AperFunction,ComponentPad*%
%ADD11R,1.700000X1.700000*%
%TD*%
%TA.AperFunction,ComponentPad*%
%ADD12O,1.400000X1.400000*%
%TD*%
%TA.AperFunction,ComponentPad*%
%ADD13C,1.400000*%
%TD*%
%TA.AperFunction,ComponentPad*%
%ADD14R,1.050000X1.500000*%
%TD*%
%TA.AperFunction,ComponentPad*%
%ADD15O,1.050000X1.500000*%
%TD*%
%TA.AperFunction,ComponentPad*%
%ADD16C,1.600000*%
%TD*%
%TA.AperFunction,ComponentPad*%
%ADD17R,1.600000X1.600000*%
%TD*%
%TA.AperFunction,ComponentPad*%
%ADD18O,1.600000X1.600000*%
%TD*%
%TA.AperFunction,ViaPad*%
%ADD19C,0.800000*%
%TD*%
%TA.AperFunction,Conductor*%
%ADD20C,0.250000*%
%TD*%
G04 APERTURE END LIST*
D10*
%TO.P,J7,3*%
%TO.N,SPINDLE_PWM*%
X135382000Y-64770000D03*
%TO.P,J7,2*%
%TO.N,SPINDLE_PWM_SELECT*%
X135382000Y-62230000D03*
D11*
%TO.P,J7,1*%
%TO.N,SPINDLE_PWM_INVERTED*%
X135382000Y-59690000D03*
%TD*%
D12*
%TO.P,R2,2*%
%TO.N,SPINDLE_PWM_INVERTED*%
X135636000Y-73660000D03*
D13*
%TO.P,R2,1*%
%TO.N,VCC*%
X135636000Y-78740000D03*
%TD*%
D12*
%TO.P,R1,2*%
%TO.N,SPINDLE_PWM*%
X137922000Y-78740000D03*
D13*
%TO.P,R1,1*%
%TO.N,Net-(Q1-Pad2)*%
X137922000Y-73660000D03*
%TD*%
D10*
%TO.P,J6,2*%
%TO.N,PROBE*%
X176022000Y-59690000D03*
D11*
%TO.P,J6,1*%
%TO.N,GND*%
X178562000Y-59690000D03*
%TD*%
D14*
%TO.P,Q1,1*%
%TO.N,GND*%
X138684000Y-69342000D03*
D15*
%TO.P,Q1,3*%
%TO.N,SPINDLE_PWM_INVERTED*%
X136144000Y-69342000D03*
%TO.P,Q1,2*%
%TO.N,Net-(Q1-Pad2)*%
X137414000Y-69342000D03*
%TD*%
D10*
%TO.P,J5,3*%
%TO.N,SPINDLE_ENABLE_14*%
X131711700Y-59664600D03*
%TO.P,J5,2*%
%TO.N,SPINDLE_PWM_SELECT*%
X131711700Y-62204600D03*
D11*
%TO.P,J5,1*%
%TO.N,SPINDLE_ENABLE_17*%
X131711700Y-64744600D03*
%TD*%
D10*
%TO.P,J4,2*%
%TO.N,Y_DIR*%
X153670000Y-59690000D03*
D11*
%TO.P,J4,1*%
%TO.N,A_DIR*%
X156210000Y-59690000D03*
%TD*%
D10*
%TO.P,J3,2*%
%TO.N,Y_STEP*%
X145415000Y-59690000D03*
D11*
%TO.P,J3,1*%
%TO.N,A_STEP*%
X147955000Y-59690000D03*
%TD*%
D10*
%TO.P,J2,3*%
%TO.N,DISABLE_STEPPER_1*%
X139065000Y-64770000D03*
%TO.P,J2,2*%
%TO.N,DISABLE_STEPPER*%
X139065000Y-62230000D03*
D11*
%TO.P,J2,1*%
%TO.N,DISABLE_STEPPER_16*%
X139065000Y-59690000D03*
%TD*%
D16*
%TO.P,J1,25*%
%TO.N,GND*%
X169650000Y-53975000D03*
%TO.P,J1,24*%
X166880000Y-53975000D03*
%TO.P,J1,23*%
X164110000Y-53975000D03*
%TO.P,J1,22*%
X161340000Y-53975000D03*
%TO.P,J1,21*%
X158570000Y-53975000D03*
%TO.P,J1,20*%
X155800000Y-53975000D03*
%TO.P,J1,19*%
X153030000Y-53975000D03*
%TO.P,J1,18*%
X150260000Y-53975000D03*
%TO.P,J1,17*%
%TO.N,SPINDLE_ENABLE_17*%
X147490000Y-53975000D03*
%TO.P,J1,16*%
%TO.N,DISABLE_STEPPER_16*%
X144720000Y-53975000D03*
%TO.P,J1,15*%
%TO.N,Net-(J1-Pad15)*%
X141950000Y-53975000D03*
%TO.P,J1,14*%
%TO.N,SPINDLE_ENABLE_14*%
X139180000Y-53975000D03*
%TO.P,J1,13*%
%TO.N,Net-(J1-Pad13)*%
X171035000Y-56515000D03*
%TO.P,J1,12*%
%TO.N,Z_LIMIT*%
X168265000Y-56515000D03*
%TO.P,J1,11*%
%TO.N,Y_LIMIT*%
X165495000Y-56515000D03*
%TO.P,J1,10*%
%TO.N,X_LIMIT*%
X162725000Y-56515000D03*
%TO.P,J1,9*%
%TO.N,A_DIR*%
X159955000Y-56515000D03*
%TO.P,J1,8*%
%TO.N,A_STEP*%
X157185000Y-56515000D03*
%TO.P,J1,7*%
%TO.N,Z_DIR*%
X154415000Y-56515000D03*
%TO.P,J1,6*%
%TO.N,Z_STEP*%
X151645000Y-56515000D03*
%TO.P,J1,5*%
%TO.N,Y_DIR*%
X148875000Y-56515000D03*
%TO.P,J1,4*%
%TO.N,Y_STEP*%
X146105000Y-56515000D03*
%TO.P,J1,3*%
%TO.N,X_DIR*%
X143335000Y-56515000D03*
%TO.P,J1,2*%
%TO.N,X_STEP*%
X140565000Y-56515000D03*
D17*
%TO.P,J1,1*%
%TO.N,DISABLE_STEPPER_1*%
X137795000Y-56515000D03*
%TD*%
D18*
%TO.P,A1,16*%
%TO.N,Net-(A1-Pad16)*%
X161290000Y-101600000D03*
%TO.P,A1,15*%
%TO.N,Z_LIMIT*%
X146050000Y-101600000D03*
%TO.P,A1,30*%
%TO.N,Net-(A1-Pad30)*%
X161290000Y-66040000D03*
%TO.P,A1,14*%
%TO.N,SPINDLE_PWM*%
X146050000Y-99060000D03*
%TO.P,A1,29*%
%TO.N,Net-(A1-Pad29)*%
X161290000Y-68580000D03*
%TO.P,A1,13*%
%TO.N,Y_LIMIT*%
X146050000Y-96520000D03*
%TO.P,A1,28*%
%TO.N,Net-(A1-Pad28)*%
X161290000Y-71120000D03*
%TO.P,A1,12*%
%TO.N,X_LIMIT*%
X146050000Y-93980000D03*
%TO.P,A1,27*%
%TO.N,VCC*%
X161290000Y-73660000D03*
%TO.P,A1,11*%
%TO.N,DISABLE_STEPPER*%
X146050000Y-91440000D03*
%TO.P,A1,26*%
%TO.N,Net-(A1-Pad26)*%
X161290000Y-76200000D03*
%TO.P,A1,10*%
%TO.N,Z_DIR*%
X146050000Y-88900000D03*
%TO.P,A1,25*%
%TO.N,Net-(A1-Pad25)*%
X161290000Y-78740000D03*
%TO.P,A1,9*%
%TO.N,Y_DIR*%
X146050000Y-86360000D03*
%TO.P,A1,24*%
%TO.N,PROBE*%
X161290000Y-81280000D03*
%TO.P,A1,8*%
%TO.N,X_DIR*%
X146050000Y-83820000D03*
%TO.P,A1,23*%
%TO.N,Net-(A1-Pad23)*%
X161290000Y-83820000D03*
%TO.P,A1,7*%
%TO.N,Z_STEP*%
X146050000Y-81280000D03*
%TO.P,A1,22*%
%TO.N,Net-(A1-Pad22)*%
X161290000Y-86360000D03*
%TO.P,A1,6*%
%TO.N,Y_STEP*%
X146050000Y-78740000D03*
%TO.P,A1,21*%
%TO.N,Net-(A1-Pad21)*%
X161290000Y-88900000D03*
%TO.P,A1,5*%
%TO.N,X_STEP*%
X146050000Y-76200000D03*
%TO.P,A1,20*%
%TO.N,Net-(A1-Pad20)*%
X161290000Y-91440000D03*
%TO.P,A1,4*%
%TO.N,GND*%
X146050000Y-73660000D03*
%TO.P,A1,19*%
%TO.N,Net-(A1-Pad19)*%
X161290000Y-93980000D03*
%TO.P,A1,3*%
%TO.N,Net-(A1-Pad3)*%
X146050000Y-71120000D03*
%TO.P,A1,18*%
%TO.N,Net-(A1-Pad18)*%
X161290000Y-96520000D03*
%TO.P,A1,2*%
%TO.N,Net-(A1-Pad2)*%
X146050000Y-68580000D03*
%TO.P,A1,17*%
%TO.N,Net-(A1-Pad17)*%
X161290000Y-99060000D03*
D17*
%TO.P,A1,1*%
%TO.N,Net-(A1-Pad1)*%
X146050000Y-66040000D03*
%TD*%
D19*
%TO.N,Y_DIR*%
X153670000Y-59690000D03*
%TO.N,X_DIR*%
X142875000Y-78105000D03*
%TO.N,VCC*%
X159258000Y-73660000D03*
X135636000Y-80772000D03*
%TD*%
D20*
%TO.N,Z_LIMIT*%
X158115000Y-66665000D02*
X168265000Y-56515000D01*
X158115000Y-89535000D02*
X158115000Y-86487000D01*
X158115000Y-86487000D02*
X158115000Y-86995000D01*
X146050000Y-101600000D02*
X158115000Y-89535000D01*
X158115000Y-66665000D02*
X158115000Y-86487000D01*
%TO.N,Y_LIMIT*%
X156845000Y-65165000D02*
X165495000Y-56515000D01*
X156845000Y-85725000D02*
X146050000Y-96520000D01*
X156845000Y-65165000D02*
X156845000Y-85725000D01*
%TO.N,X_LIMIT*%
X155740000Y-63500000D02*
X162725000Y-56515000D01*
X155740000Y-84290000D02*
X146050000Y-93980000D01*
X155740000Y-63500000D02*
X155740000Y-84290000D01*
%TO.N,DISABLE_STEPPER*%
X140519990Y-63684990D02*
X139065000Y-62230000D01*
X140519990Y-85909990D02*
X140519990Y-63684990D01*
X146050000Y-91440000D02*
X140519990Y-85909990D01*
%TO.N,Z_DIR*%
X154940000Y-57040000D02*
X154415000Y-56515000D01*
X154940000Y-80010000D02*
X154940000Y-57040000D01*
X146050000Y-88900000D02*
X154940000Y-80010000D01*
%TO.N,Y_DIR*%
X153670000Y-78740000D02*
X153670000Y-59690000D01*
X146050000Y-86360000D02*
X153670000Y-78740000D01*
%TO.N,X_DIR*%
X142875000Y-80645000D02*
X142875000Y-78105000D01*
X146050000Y-83820000D02*
X142875000Y-80645000D01*
%TO.N,Z_STEP*%
X151645000Y-75685000D02*
X146050000Y-81280000D01*
X151645000Y-56515000D02*
X151645000Y-75685000D01*
%TO.N,Y_STEP*%
X146050000Y-78740000D02*
X147175001Y-77614999D01*
X145669998Y-59690000D02*
X145415000Y-59690000D01*
X147175001Y-61195003D02*
X145669998Y-59690000D01*
X147175001Y-77614999D02*
X147175001Y-61195003D01*
X145415000Y-57205000D02*
X146105000Y-56515000D01*
X145415000Y-59690000D02*
X145415000Y-57205000D01*
%TO.N,X_STEP*%
X140335000Y-56745000D02*
X140565000Y-56515000D01*
X146050000Y-76200000D02*
X141605000Y-76200000D01*
X140970000Y-75565000D02*
X140970000Y-56920000D01*
X141605000Y-76200000D02*
X140970000Y-75565000D01*
%TO.N,DISABLE_STEPPER_16*%
X143594999Y-55100001D02*
X144720000Y-53975000D01*
X140314997Y-55100001D02*
X143594999Y-55100001D01*
X139065000Y-56349998D02*
X140314997Y-55100001D01*
X139065000Y-59690000D02*
X139065000Y-56349998D01*
%TO.N,DISABLE_STEPPER_1*%
X137160000Y-56515000D02*
X137795000Y-56515000D01*
X137795000Y-63500000D02*
X139065000Y-64770000D01*
X137795000Y-56515000D02*
X137795000Y-63500000D01*
%TO.N,A_DIR*%
X156780000Y-59690000D02*
X159955000Y-56515000D01*
X156210000Y-59690000D02*
X156780000Y-59690000D01*
%TO.N,A_STEP*%
X156059999Y-55389999D02*
X157185000Y-56515000D01*
X148334999Y-55389999D02*
X156059999Y-55389999D01*
X147749999Y-55974999D02*
X148334999Y-55389999D01*
X147749999Y-59484999D02*
X147749999Y-55974999D01*
X147955000Y-59690000D02*
X147749999Y-59484999D01*
%TO.N,SPINDLE_ENABLE_17*%
X146364999Y-52849999D02*
X147490000Y-53975000D01*
X130536699Y-59100599D02*
X136787299Y-52849999D01*
X136787299Y-52849999D02*
X146364999Y-52849999D01*
X130536699Y-63569599D02*
X130536699Y-59100599D01*
X131711700Y-64744600D02*
X130536699Y-63569599D01*
%TO.N,SPINDLE_ENABLE_14*%
X137401300Y-53975000D02*
X139180000Y-53975000D01*
X131711700Y-59664600D02*
X137401300Y-53975000D01*
%TO.N,SPINDLE_PWM*%
X146050000Y-99060000D02*
X137922000Y-90932000D01*
X137922000Y-84582000D02*
X137922000Y-79508998D01*
X137922000Y-90932000D02*
X137922000Y-84582000D01*
X137922000Y-84582000D02*
X137922000Y-78740000D01*
X134610999Y-65541001D02*
X135382000Y-64770000D01*
X134610999Y-75428999D02*
X134610999Y-65541001D01*
X137922000Y-78740000D02*
X134610999Y-75428999D01*
%TO.N,VCC*%
X159258000Y-73660000D02*
X161290000Y-73660000D01*
X135636000Y-80772000D02*
X135636000Y-78740000D01*
%TO.N,Net-(Q1-Pad2)*%
X137414000Y-73152000D02*
X137414000Y-69342000D01*
X137922000Y-73660000D02*
X137414000Y-73152000D01*
%TO.N,SPINDLE_PWM_INVERTED*%
X135636000Y-69850000D02*
X136144000Y-69342000D01*
X135636000Y-73660000D02*
X135636000Y-69850000D01*
%TO.N,PROBE*%
X176022000Y-66548000D02*
X176022000Y-59690000D01*
X161290000Y-81280000D02*
X176022000Y-66548000D01*
%TO.N,SPINDLE_PWM_SELECT*%
X131737100Y-62230000D02*
X131711700Y-62204600D01*
X135382000Y-62230000D02*
X131737100Y-62230000D01*
%TO.N,SPINDLE_PWM_INVERTED*%
X136594010Y-60902010D02*
X135382000Y-59690000D01*
X136594010Y-67891990D02*
X136594010Y-60902010D01*
X136144000Y-68342000D02*
X136594010Y-67891990D01*
X136144000Y-69342000D02*
X136144000Y-68342000D01*
%TD*%
M02*
