M48
; DRILL file {KiCad 5.1.6-c6e7f7d~87~ubuntu20.04.1} date Sat Sep 12 20:51:52 2020
; FORMAT={-:-/ absolute / metric / decimal}
; #@! TF.CreationDate,2020-09-12T20:51:52+02:00
; #@! TF.GenerationSoftware,Kicad,Pcbnew,5.1.6-c6e7f7d~87~ubuntu20.04.1
; #@! TF.FileFunction,Plated,1,2,PTH
FMAT,2
METRIC
T1C0.400
T2C0.700
T3C0.750
T4C0.900
T5C1.000
T6C1.100
%
G90
G05
T1
X133.178Y-74.213
X133.886Y-71.819
X133.886Y-73.508
X135.636Y-80.772
X141.245Y-75.794
X142.875Y-78.105
X153.67Y-59.69
X159.258Y-73.66
T2
X130.886Y-70.472
X130.886Y-75.552
X128.702Y-70.472
X128.702Y-75.552
X137.922Y-73.66
X137.922Y-78.74
X135.636Y-73.66
X135.636Y-78.74
X133.083Y-70.472
X133.083Y-75.552
T3
X136.144Y-69.342
X137.414Y-69.342
X138.684Y-69.342
T4
X128.981Y-93.091
X131.521Y-93.091
X128.981Y-86.5
X131.521Y-86.5
X128.981Y-79.908
X131.521Y-79.908
T5
X176.022Y-59.69
X178.562Y-59.69
X153.67Y-59.69
X156.21Y-59.69
X146.05Y-66.04
X146.05Y-68.58
X146.05Y-71.12
X146.05Y-73.66
X146.05Y-76.2
X146.05Y-78.74
X146.05Y-81.28
X146.05Y-83.82
X146.05Y-86.36
X146.05Y-88.9
X146.05Y-91.44
X146.05Y-93.98
X146.05Y-96.52
X146.05Y-99.06
X146.05Y-101.6
X161.29Y-66.04
X161.29Y-68.58
X161.29Y-71.12
X161.29Y-73.66
X161.29Y-76.2
X161.29Y-78.74
X161.29Y-81.28
X161.29Y-83.82
X161.29Y-86.36
X161.29Y-88.9
X161.29Y-91.44
X161.29Y-93.98
X161.29Y-96.52
X161.29Y-99.06
X161.29Y-101.6
X138.049Y-96.406
X140.589Y-96.406
X145.415Y-59.69
X147.955Y-59.69
X166.967Y-95.923
X169.507Y-95.923
X131.712Y-59.665
X131.712Y-62.205
X131.712Y-64.745
X137.795Y-56.515
X139.18Y-53.975
X140.565Y-56.515
X141.95Y-53.975
X143.335Y-56.515
X144.72Y-53.975
X146.105Y-56.515
X147.49Y-53.975
X148.875Y-56.515
X150.26Y-53.975
X151.645Y-56.515
X153.03Y-53.975
X154.415Y-56.515
X155.8Y-53.975
X157.185Y-56.515
X158.57Y-53.975
X159.955Y-56.515
X161.34Y-53.975
X162.725Y-56.515
X164.11Y-53.975
X165.495Y-56.515
X166.88Y-53.975
X168.265Y-56.515
X169.65Y-53.975
X171.035Y-56.515
X139.065Y-59.69
X139.065Y-62.23
X139.065Y-64.77
X135.382Y-59.69
X135.382Y-62.23
X135.382Y-64.77
T6
X136.388Y-99.983
X136.388Y-104.483
X142.888Y-99.983
X142.888Y-104.483
X165.278Y-99.771
X165.278Y-104.271
X171.778Y-99.771
X171.778Y-104.271
T0
M30
