%TF.GenerationSoftware,KiCad,Pcbnew,5.1.6-c6e7f7d~87~ubuntu20.04.1*%
%TF.CreationDate,2020-09-12T20:51:55+02:00*%
%TF.ProjectId,arduino-2-tb6560-4axis,61726475-696e-46f2-9d32-2d7462363536,rev?*%
%TF.SameCoordinates,Original*%
%TF.FileFunction,Soldermask,Bot*%
%TF.FilePolarity,Negative*%
%FSLAX46Y46*%
G04 Gerber Fmt 4.6, Leading zero omitted, Abs format (unit mm)*
G04 Created by KiCad (PCBNEW 5.1.6-c6e7f7d~87~ubuntu20.04.1) date 2020-09-12 20:51:55*
%MOMM*%
%LPD*%
G01*
G04 APERTURE LIST*
%ADD10O,1.500000X1.500000*%
%ADD11C,1.500000*%
%ADD12C,1.900000*%
%ADD13R,1.900000X1.900000*%
%ADD14C,2.100000*%
%ADD15O,1.800000X1.800000*%
%ADD16R,1.800000X1.800000*%
%ADD17R,1.150000X1.600000*%
%ADD18O,1.150000X1.600000*%
%ADD19C,3.300000*%
%ADD20C,1.700000*%
%ADD21R,1.700000X1.700000*%
%ADD22O,1.700000X1.700000*%
G04 APERTURE END LIST*
D10*
%TO.C,R5*%
X128701800Y-70472300D03*
D11*
X128701800Y-75552300D03*
%TD*%
D10*
%TO.C,R4*%
X130886200Y-70472300D03*
D11*
X130886200Y-75552300D03*
%TD*%
D10*
%TO.C,R3*%
X133083300Y-70472300D03*
D11*
X133083300Y-75552300D03*
%TD*%
D12*
%TO.C,D3*%
X131521200Y-79908400D03*
D13*
X128981200Y-79908400D03*
%TD*%
D12*
%TO.C,D2*%
X131521200Y-86499700D03*
D13*
X128981200Y-86499700D03*
%TD*%
D12*
%TO.C,D1*%
X131521200Y-93091000D03*
D13*
X128981200Y-93091000D03*
%TD*%
D14*
%TO.C,SW2*%
X171777800Y-99771200D03*
X171777800Y-104271200D03*
X165277800Y-99771200D03*
X165277800Y-104271200D03*
%TD*%
%TO.C,SW1*%
X136387700Y-104482900D03*
X136387700Y-99982900D03*
X142887700Y-104482900D03*
X142887700Y-99982900D03*
%TD*%
D15*
%TO.C,J9*%
X166966900Y-95923100D03*
D16*
X169506900Y-95923100D03*
%TD*%
D15*
%TO.C,J8*%
X138049000Y-96405700D03*
D16*
X140589000Y-96405700D03*
%TD*%
D15*
%TO.C,J7*%
X135382000Y-64770000D03*
X135382000Y-62230000D03*
D16*
X135382000Y-59690000D03*
%TD*%
D10*
%TO.C,R2*%
X135636000Y-73660000D03*
D11*
X135636000Y-78740000D03*
%TD*%
D10*
%TO.C,R1*%
X137922000Y-78740000D03*
D11*
X137922000Y-73660000D03*
%TD*%
D15*
%TO.C,J6*%
X176022000Y-59690000D03*
D16*
X178562000Y-59690000D03*
%TD*%
D17*
%TO.C,Q1*%
X138684000Y-69342000D03*
D18*
X136144000Y-69342000D03*
X137414000Y-69342000D03*
%TD*%
D15*
%TO.C,J5*%
X131711700Y-59664600D03*
X131711700Y-62204600D03*
D16*
X131711700Y-64744600D03*
%TD*%
D15*
%TO.C,J4*%
X153670000Y-59690000D03*
D16*
X156210000Y-59690000D03*
%TD*%
D15*
%TO.C,J3*%
X145415000Y-59690000D03*
D16*
X147955000Y-59690000D03*
%TD*%
D15*
%TO.C,J2*%
X139065000Y-64770000D03*
X139065000Y-62230000D03*
D16*
X139065000Y-59690000D03*
%TD*%
D19*
%TO.C,REF\u002A\u002A*%
X177800000Y-48895000D03*
%TD*%
%TO.C,REF\u002A\u002A*%
X130810000Y-48895000D03*
%TD*%
%TO.C,REF\u002A\u002A*%
X130810000Y-103505000D03*
%TD*%
%TO.C,REF\u002A\u002A*%
X177800000Y-103505000D03*
%TD*%
D20*
%TO.C,J1*%
X169650000Y-53975000D03*
X166880000Y-53975000D03*
X164110000Y-53975000D03*
X161340000Y-53975000D03*
X158570000Y-53975000D03*
X155800000Y-53975000D03*
X153030000Y-53975000D03*
X150260000Y-53975000D03*
X147490000Y-53975000D03*
X144720000Y-53975000D03*
X141950000Y-53975000D03*
X139180000Y-53975000D03*
X171035000Y-56515000D03*
X168265000Y-56515000D03*
X165495000Y-56515000D03*
X162725000Y-56515000D03*
X159955000Y-56515000D03*
X157185000Y-56515000D03*
X154415000Y-56515000D03*
X151645000Y-56515000D03*
X148875000Y-56515000D03*
X146105000Y-56515000D03*
X143335000Y-56515000D03*
X140565000Y-56515000D03*
D21*
X137795000Y-56515000D03*
%TD*%
D22*
%TO.C,A1*%
X161290000Y-101600000D03*
X146050000Y-101600000D03*
X161290000Y-66040000D03*
X146050000Y-99060000D03*
X161290000Y-68580000D03*
X146050000Y-96520000D03*
X161290000Y-71120000D03*
X146050000Y-93980000D03*
X161290000Y-73660000D03*
X146050000Y-91440000D03*
X161290000Y-76200000D03*
X146050000Y-88900000D03*
X161290000Y-78740000D03*
X146050000Y-86360000D03*
X161290000Y-81280000D03*
X146050000Y-83820000D03*
X161290000Y-83820000D03*
X146050000Y-81280000D03*
X161290000Y-86360000D03*
X146050000Y-78740000D03*
X161290000Y-88900000D03*
X146050000Y-76200000D03*
X161290000Y-91440000D03*
X146050000Y-73660000D03*
X161290000Y-93980000D03*
X146050000Y-71120000D03*
X161290000Y-96520000D03*
X146050000Y-68580000D03*
X161290000Y-99060000D03*
D21*
X146050000Y-66040000D03*
%TD*%
M02*
