%TF.GenerationSoftware,KiCad,Pcbnew,5.1.6-c6e7f7d~87~ubuntu20.04.1*%
%TF.CreationDate,2020-09-09T20:44:38+02:00*%
%TF.ProjectId,arduino-2-tb6560-4axis,61726475-696e-46f2-9d32-2d7462363536,rev?*%
%TF.SameCoordinates,Original*%
%TF.FileFunction,Copper,L2,Bot*%
%TF.FilePolarity,Positive*%
%FSLAX46Y46*%
G04 Gerber Fmt 4.6, Leading zero omitted, Abs format (unit mm)*
G04 Created by KiCad (PCBNEW 5.1.6-c6e7f7d~87~ubuntu20.04.1) date 2020-09-09 20:44:38*
%MOMM*%
%LPD*%
G01*
G04 APERTURE LIST*
%TA.AperFunction,ComponentPad*%
%ADD10O,1.700000X1.700000*%
%TD*%
%TA.AperFunction,ComponentPad*%
%ADD11R,1.700000X1.700000*%
%TD*%
%TA.AperFunction,ComponentPad*%
%ADD12O,1.400000X1.400000*%
%TD*%
%TA.AperFunction,ComponentPad*%
%ADD13C,1.400000*%
%TD*%
%TA.AperFunction,ComponentPad*%
%ADD14R,1.050000X1.500000*%
%TD*%
%TA.AperFunction,ComponentPad*%
%ADD15O,1.050000X1.500000*%
%TD*%
%TA.AperFunction,ComponentPad*%
%ADD16C,1.600000*%
%TD*%
%TA.AperFunction,ComponentPad*%
%ADD17R,1.600000X1.600000*%
%TD*%
%TA.AperFunction,ComponentPad*%
%ADD18O,1.600000X1.600000*%
%TD*%
%TA.AperFunction,ViaPad*%
%ADD19C,0.800000*%
%TD*%
%TA.AperFunction,Conductor*%
%ADD20C,0.250000*%
%TD*%
%TA.AperFunction,Conductor*%
%ADD21C,0.254000*%
%TD*%
G04 APERTURE END LIST*
D10*
%TO.P,J7,3*%
%TO.N,SPINDLE_PWM*%
X135382000Y-64770000D03*
%TO.P,J7,2*%
%TO.N,SPINDLE_PWM_SELECT*%
X135382000Y-62230000D03*
D11*
%TO.P,J7,1*%
%TO.N,SPINDLE_PWM_INVERTED*%
X135382000Y-59690000D03*
%TD*%
D12*
%TO.P,R2,2*%
%TO.N,SPINDLE_PWM_INVERTED*%
X135636000Y-73660000D03*
D13*
%TO.P,R2,1*%
%TO.N,VCC*%
X135636000Y-78740000D03*
%TD*%
D12*
%TO.P,R1,2*%
%TO.N,SPINDLE_PWM*%
X137922000Y-78740000D03*
D13*
%TO.P,R1,1*%
%TO.N,Net-(Q1-Pad2)*%
X137922000Y-73660000D03*
%TD*%
D10*
%TO.P,J6,2*%
%TO.N,PROBE*%
X176022000Y-59690000D03*
D11*
%TO.P,J6,1*%
%TO.N,GND*%
X178562000Y-59690000D03*
%TD*%
D14*
%TO.P,Q1,1*%
%TO.N,GND*%
X138684000Y-69342000D03*
D15*
%TO.P,Q1,3*%
%TO.N,SPINDLE_PWM_INVERTED*%
X136144000Y-69342000D03*
%TO.P,Q1,2*%
%TO.N,Net-(Q1-Pad2)*%
X137414000Y-69342000D03*
%TD*%
D10*
%TO.P,J5,3*%
%TO.N,SPINDLE_ENABLE_14*%
X131711700Y-59664600D03*
%TO.P,J5,2*%
%TO.N,SPINDLE_PWM_SELECT*%
X131711700Y-62204600D03*
D11*
%TO.P,J5,1*%
%TO.N,SPINDLE_ENABLE_17*%
X131711700Y-64744600D03*
%TD*%
D10*
%TO.P,J4,2*%
%TO.N,Y_DIR*%
X153670000Y-59690000D03*
D11*
%TO.P,J4,1*%
%TO.N,A_DIR*%
X156210000Y-59690000D03*
%TD*%
D10*
%TO.P,J3,2*%
%TO.N,Y_STEP*%
X145415000Y-59690000D03*
D11*
%TO.P,J3,1*%
%TO.N,A_STEP*%
X147955000Y-59690000D03*
%TD*%
D10*
%TO.P,J2,3*%
%TO.N,DISABLE_STEPPER_1*%
X139065000Y-64770000D03*
%TO.P,J2,2*%
%TO.N,DISABLE_STEPPER*%
X139065000Y-62230000D03*
D11*
%TO.P,J2,1*%
%TO.N,DISABLE_STEPPER_16*%
X139065000Y-59690000D03*
%TD*%
D16*
%TO.P,J1,25*%
%TO.N,GND*%
X169650000Y-53975000D03*
%TO.P,J1,24*%
X166880000Y-53975000D03*
%TO.P,J1,23*%
X164110000Y-53975000D03*
%TO.P,J1,22*%
X161340000Y-53975000D03*
%TO.P,J1,21*%
X158570000Y-53975000D03*
%TO.P,J1,20*%
X155800000Y-53975000D03*
%TO.P,J1,19*%
X153030000Y-53975000D03*
%TO.P,J1,18*%
X150260000Y-53975000D03*
%TO.P,J1,17*%
%TO.N,SPINDLE_ENABLE_17*%
X147490000Y-53975000D03*
%TO.P,J1,16*%
%TO.N,DISABLE_STEPPER_16*%
X144720000Y-53975000D03*
%TO.P,J1,15*%
%TO.N,Net-(J1-Pad15)*%
X141950000Y-53975000D03*
%TO.P,J1,14*%
%TO.N,SPINDLE_ENABLE_14*%
X139180000Y-53975000D03*
%TO.P,J1,13*%
%TO.N,Net-(J1-Pad13)*%
X171035000Y-56515000D03*
%TO.P,J1,12*%
%TO.N,Z_LIMIT*%
X168265000Y-56515000D03*
%TO.P,J1,11*%
%TO.N,Y_LIMIT*%
X165495000Y-56515000D03*
%TO.P,J1,10*%
%TO.N,X_LIMIT*%
X162725000Y-56515000D03*
%TO.P,J1,9*%
%TO.N,A_DIR*%
X159955000Y-56515000D03*
%TO.P,J1,8*%
%TO.N,A_STEP*%
X157185000Y-56515000D03*
%TO.P,J1,7*%
%TO.N,Z_DIR*%
X154415000Y-56515000D03*
%TO.P,J1,6*%
%TO.N,Z_STEP*%
X151645000Y-56515000D03*
%TO.P,J1,5*%
%TO.N,Y_DIR*%
X148875000Y-56515000D03*
%TO.P,J1,4*%
%TO.N,Y_STEP*%
X146105000Y-56515000D03*
%TO.P,J1,3*%
%TO.N,X_DIR*%
X143335000Y-56515000D03*
%TO.P,J1,2*%
%TO.N,X_STEP*%
X140565000Y-56515000D03*
D17*
%TO.P,J1,1*%
%TO.N,DISABLE_STEPPER_1*%
X137795000Y-56515000D03*
%TD*%
D18*
%TO.P,A1,16*%
%TO.N,Net-(A1-Pad16)*%
X161290000Y-101600000D03*
%TO.P,A1,15*%
%TO.N,Z_LIMIT*%
X146050000Y-101600000D03*
%TO.P,A1,30*%
%TO.N,Net-(A1-Pad30)*%
X161290000Y-66040000D03*
%TO.P,A1,14*%
%TO.N,SPINDLE_PWM*%
X146050000Y-99060000D03*
%TO.P,A1,29*%
%TO.N,Net-(A1-Pad29)*%
X161290000Y-68580000D03*
%TO.P,A1,13*%
%TO.N,Y_LIMIT*%
X146050000Y-96520000D03*
%TO.P,A1,28*%
%TO.N,Net-(A1-Pad28)*%
X161290000Y-71120000D03*
%TO.P,A1,12*%
%TO.N,X_LIMIT*%
X146050000Y-93980000D03*
%TO.P,A1,27*%
%TO.N,VCC*%
X161290000Y-73660000D03*
%TO.P,A1,11*%
%TO.N,DISABLE_STEPPER*%
X146050000Y-91440000D03*
%TO.P,A1,26*%
%TO.N,Net-(A1-Pad26)*%
X161290000Y-76200000D03*
%TO.P,A1,10*%
%TO.N,Z_DIR*%
X146050000Y-88900000D03*
%TO.P,A1,25*%
%TO.N,Net-(A1-Pad25)*%
X161290000Y-78740000D03*
%TO.P,A1,9*%
%TO.N,Y_DIR*%
X146050000Y-86360000D03*
%TO.P,A1,24*%
%TO.N,PROBE*%
X161290000Y-81280000D03*
%TO.P,A1,8*%
%TO.N,X_DIR*%
X146050000Y-83820000D03*
%TO.P,A1,23*%
%TO.N,Net-(A1-Pad23)*%
X161290000Y-83820000D03*
%TO.P,A1,7*%
%TO.N,Z_STEP*%
X146050000Y-81280000D03*
%TO.P,A1,22*%
%TO.N,Net-(A1-Pad22)*%
X161290000Y-86360000D03*
%TO.P,A1,6*%
%TO.N,Y_STEP*%
X146050000Y-78740000D03*
%TO.P,A1,21*%
%TO.N,Net-(A1-Pad21)*%
X161290000Y-88900000D03*
%TO.P,A1,5*%
%TO.N,X_STEP*%
X146050000Y-76200000D03*
%TO.P,A1,20*%
%TO.N,Net-(A1-Pad20)*%
X161290000Y-91440000D03*
%TO.P,A1,4*%
%TO.N,GND*%
X146050000Y-73660000D03*
%TO.P,A1,19*%
%TO.N,Net-(A1-Pad19)*%
X161290000Y-93980000D03*
%TO.P,A1,3*%
%TO.N,Net-(A1-Pad3)*%
X146050000Y-71120000D03*
%TO.P,A1,18*%
%TO.N,Net-(A1-Pad18)*%
X161290000Y-96520000D03*
%TO.P,A1,2*%
%TO.N,Net-(A1-Pad2)*%
X146050000Y-68580000D03*
%TO.P,A1,17*%
%TO.N,Net-(A1-Pad17)*%
X161290000Y-99060000D03*
D17*
%TO.P,A1,1*%
%TO.N,Net-(A1-Pad1)*%
X146050000Y-66040000D03*
%TD*%
D19*
%TO.N,Y_DIR*%
X153670000Y-59690000D03*
%TO.N,X_DIR*%
X142875000Y-78105000D03*
%TO.N,VCC*%
X159258000Y-73660000D03*
X135636000Y-80772000D03*
%TD*%
D20*
%TO.N,Y_DIR*%
X152050000Y-59690000D02*
X148875000Y-56515000D01*
X153670000Y-59690000D02*
X152050000Y-59690000D01*
%TO.N,X_DIR*%
X142875000Y-56975000D02*
X143335000Y-56515000D01*
X142875000Y-78105000D02*
X142875000Y-56975000D01*
%TO.N,VCC*%
X137269001Y-82405001D02*
X135636000Y-80772000D01*
X150512999Y-82405001D02*
X137269001Y-82405001D01*
X159258000Y-73660000D02*
X150512999Y-82405001D01*
%TD*%
D21*
%TO.N,GND*%
G36*
X181585000Y-105377721D02*
G01*
X181546091Y-105774545D01*
X181440220Y-106125206D01*
X181268257Y-106448623D01*
X181036748Y-106732482D01*
X180754514Y-106965965D01*
X180432304Y-107140184D01*
X180082385Y-107248502D01*
X179687557Y-107290000D01*
X128937279Y-107290000D01*
X128540455Y-107251091D01*
X128189794Y-107145220D01*
X127866377Y-106973257D01*
X127582518Y-106741748D01*
X127349035Y-106459514D01*
X127174816Y-106137304D01*
X127066498Y-105787385D01*
X127025000Y-105392557D01*
X127025000Y-103284872D01*
X128575000Y-103284872D01*
X128575000Y-103725128D01*
X128660890Y-104156925D01*
X128829369Y-104563669D01*
X129073962Y-104929729D01*
X129385271Y-105241038D01*
X129751331Y-105485631D01*
X130158075Y-105654110D01*
X130589872Y-105740000D01*
X131030128Y-105740000D01*
X131461925Y-105654110D01*
X131868669Y-105485631D01*
X132234729Y-105241038D01*
X132546038Y-104929729D01*
X132790631Y-104563669D01*
X132959110Y-104156925D01*
X133045000Y-103725128D01*
X133045000Y-103284872D01*
X175565000Y-103284872D01*
X175565000Y-103725128D01*
X175650890Y-104156925D01*
X175819369Y-104563669D01*
X176063962Y-104929729D01*
X176375271Y-105241038D01*
X176741331Y-105485631D01*
X177148075Y-105654110D01*
X177579872Y-105740000D01*
X178020128Y-105740000D01*
X178451925Y-105654110D01*
X178858669Y-105485631D01*
X179224729Y-105241038D01*
X179536038Y-104929729D01*
X179780631Y-104563669D01*
X179949110Y-104156925D01*
X180035000Y-103725128D01*
X180035000Y-103284872D01*
X179949110Y-102853075D01*
X179780631Y-102446331D01*
X179536038Y-102080271D01*
X179224729Y-101768962D01*
X178858669Y-101524369D01*
X178451925Y-101355890D01*
X178020128Y-101270000D01*
X177579872Y-101270000D01*
X177148075Y-101355890D01*
X176741331Y-101524369D01*
X176375271Y-101768962D01*
X176063962Y-102080271D01*
X175819369Y-102446331D01*
X175650890Y-102853075D01*
X175565000Y-103284872D01*
X133045000Y-103284872D01*
X132959110Y-102853075D01*
X132790631Y-102446331D01*
X132546038Y-102080271D01*
X132234729Y-101768962D01*
X131868669Y-101524369D01*
X131461925Y-101355890D01*
X131030128Y-101270000D01*
X130589872Y-101270000D01*
X130158075Y-101355890D01*
X129751331Y-101524369D01*
X129385271Y-101768962D01*
X129073962Y-102080271D01*
X128829369Y-102446331D01*
X128660890Y-102853075D01*
X128575000Y-103284872D01*
X127025000Y-103284872D01*
X127025000Y-78608514D01*
X134301000Y-78608514D01*
X134301000Y-78871486D01*
X134352304Y-79129405D01*
X134452939Y-79372359D01*
X134599038Y-79591013D01*
X134784987Y-79776962D01*
X135003641Y-79923061D01*
X135028294Y-79933273D01*
X134976226Y-79968063D01*
X134832063Y-80112226D01*
X134718795Y-80281744D01*
X134640774Y-80470102D01*
X134601000Y-80670061D01*
X134601000Y-80873939D01*
X134640774Y-81073898D01*
X134718795Y-81262256D01*
X134832063Y-81431774D01*
X134976226Y-81575937D01*
X135145744Y-81689205D01*
X135334102Y-81767226D01*
X135534061Y-81807000D01*
X135596199Y-81807000D01*
X136705202Y-82916004D01*
X136729000Y-82945002D01*
X136844725Y-83039975D01*
X136976754Y-83110547D01*
X137120015Y-83154004D01*
X137231668Y-83165001D01*
X137231677Y-83165001D01*
X137269000Y-83168677D01*
X137306323Y-83165001D01*
X144768077Y-83165001D01*
X144670147Y-83401426D01*
X144615000Y-83678665D01*
X144615000Y-83961335D01*
X144670147Y-84238574D01*
X144778320Y-84499727D01*
X144935363Y-84734759D01*
X145135241Y-84934637D01*
X145367759Y-85090000D01*
X145135241Y-85245363D01*
X144935363Y-85445241D01*
X144778320Y-85680273D01*
X144670147Y-85941426D01*
X144615000Y-86218665D01*
X144615000Y-86501335D01*
X144670147Y-86778574D01*
X144778320Y-87039727D01*
X144935363Y-87274759D01*
X145135241Y-87474637D01*
X145367759Y-87630000D01*
X145135241Y-87785363D01*
X144935363Y-87985241D01*
X144778320Y-88220273D01*
X144670147Y-88481426D01*
X144615000Y-88758665D01*
X144615000Y-89041335D01*
X144670147Y-89318574D01*
X144778320Y-89579727D01*
X144935363Y-89814759D01*
X145135241Y-90014637D01*
X145367759Y-90170000D01*
X145135241Y-90325363D01*
X144935363Y-90525241D01*
X144778320Y-90760273D01*
X144670147Y-91021426D01*
X144615000Y-91298665D01*
X144615000Y-91581335D01*
X144670147Y-91858574D01*
X144778320Y-92119727D01*
X144935363Y-92354759D01*
X145135241Y-92554637D01*
X145367759Y-92710000D01*
X145135241Y-92865363D01*
X144935363Y-93065241D01*
X144778320Y-93300273D01*
X144670147Y-93561426D01*
X144615000Y-93838665D01*
X144615000Y-94121335D01*
X144670147Y-94398574D01*
X144778320Y-94659727D01*
X144935363Y-94894759D01*
X145135241Y-95094637D01*
X145367759Y-95250000D01*
X145135241Y-95405363D01*
X144935363Y-95605241D01*
X144778320Y-95840273D01*
X144670147Y-96101426D01*
X144615000Y-96378665D01*
X144615000Y-96661335D01*
X144670147Y-96938574D01*
X144778320Y-97199727D01*
X144935363Y-97434759D01*
X145135241Y-97634637D01*
X145367759Y-97790000D01*
X145135241Y-97945363D01*
X144935363Y-98145241D01*
X144778320Y-98380273D01*
X144670147Y-98641426D01*
X144615000Y-98918665D01*
X144615000Y-99201335D01*
X144670147Y-99478574D01*
X144778320Y-99739727D01*
X144935363Y-99974759D01*
X145135241Y-100174637D01*
X145367759Y-100330000D01*
X145135241Y-100485363D01*
X144935363Y-100685241D01*
X144778320Y-100920273D01*
X144670147Y-101181426D01*
X144615000Y-101458665D01*
X144615000Y-101741335D01*
X144670147Y-102018574D01*
X144778320Y-102279727D01*
X144935363Y-102514759D01*
X145135241Y-102714637D01*
X145370273Y-102871680D01*
X145631426Y-102979853D01*
X145908665Y-103035000D01*
X146191335Y-103035000D01*
X146468574Y-102979853D01*
X146729727Y-102871680D01*
X146964759Y-102714637D01*
X147164637Y-102514759D01*
X147321680Y-102279727D01*
X147429853Y-102018574D01*
X147485000Y-101741335D01*
X147485000Y-101458665D01*
X147429853Y-101181426D01*
X147321680Y-100920273D01*
X147164637Y-100685241D01*
X146964759Y-100485363D01*
X146732241Y-100330000D01*
X146964759Y-100174637D01*
X147164637Y-99974759D01*
X147321680Y-99739727D01*
X147429853Y-99478574D01*
X147485000Y-99201335D01*
X147485000Y-98918665D01*
X147429853Y-98641426D01*
X147321680Y-98380273D01*
X147164637Y-98145241D01*
X146964759Y-97945363D01*
X146732241Y-97790000D01*
X146964759Y-97634637D01*
X147164637Y-97434759D01*
X147321680Y-97199727D01*
X147429853Y-96938574D01*
X147485000Y-96661335D01*
X147485000Y-96378665D01*
X147429853Y-96101426D01*
X147321680Y-95840273D01*
X147164637Y-95605241D01*
X146964759Y-95405363D01*
X146732241Y-95250000D01*
X146964759Y-95094637D01*
X147164637Y-94894759D01*
X147321680Y-94659727D01*
X147429853Y-94398574D01*
X147485000Y-94121335D01*
X147485000Y-93838665D01*
X147429853Y-93561426D01*
X147321680Y-93300273D01*
X147164637Y-93065241D01*
X146964759Y-92865363D01*
X146732241Y-92710000D01*
X146964759Y-92554637D01*
X147164637Y-92354759D01*
X147321680Y-92119727D01*
X147429853Y-91858574D01*
X147485000Y-91581335D01*
X147485000Y-91298665D01*
X147429853Y-91021426D01*
X147321680Y-90760273D01*
X147164637Y-90525241D01*
X146964759Y-90325363D01*
X146732241Y-90170000D01*
X146964759Y-90014637D01*
X147164637Y-89814759D01*
X147321680Y-89579727D01*
X147429853Y-89318574D01*
X147485000Y-89041335D01*
X147485000Y-88758665D01*
X147429853Y-88481426D01*
X147321680Y-88220273D01*
X147164637Y-87985241D01*
X146964759Y-87785363D01*
X146732241Y-87630000D01*
X146964759Y-87474637D01*
X147164637Y-87274759D01*
X147321680Y-87039727D01*
X147429853Y-86778574D01*
X147485000Y-86501335D01*
X147485000Y-86218665D01*
X147429853Y-85941426D01*
X147321680Y-85680273D01*
X147164637Y-85445241D01*
X146964759Y-85245363D01*
X146732241Y-85090000D01*
X146964759Y-84934637D01*
X147164637Y-84734759D01*
X147321680Y-84499727D01*
X147429853Y-84238574D01*
X147485000Y-83961335D01*
X147485000Y-83678665D01*
X147429853Y-83401426D01*
X147331923Y-83165001D01*
X150475677Y-83165001D01*
X150512999Y-83168677D01*
X150550321Y-83165001D01*
X150550332Y-83165001D01*
X150661985Y-83154004D01*
X150805246Y-83110547D01*
X150937275Y-83039975D01*
X151053000Y-82945002D01*
X151076803Y-82915998D01*
X159297802Y-74695000D01*
X159359939Y-74695000D01*
X159559898Y-74655226D01*
X159748256Y-74577205D01*
X159917774Y-74463937D01*
X160027798Y-74353913D01*
X160175363Y-74574759D01*
X160375241Y-74774637D01*
X160607759Y-74930000D01*
X160375241Y-75085363D01*
X160175363Y-75285241D01*
X160018320Y-75520273D01*
X159910147Y-75781426D01*
X159855000Y-76058665D01*
X159855000Y-76341335D01*
X159910147Y-76618574D01*
X160018320Y-76879727D01*
X160175363Y-77114759D01*
X160375241Y-77314637D01*
X160607759Y-77470000D01*
X160375241Y-77625363D01*
X160175363Y-77825241D01*
X160018320Y-78060273D01*
X159910147Y-78321426D01*
X159855000Y-78598665D01*
X159855000Y-78881335D01*
X159910147Y-79158574D01*
X160018320Y-79419727D01*
X160175363Y-79654759D01*
X160375241Y-79854637D01*
X160607759Y-80010000D01*
X160375241Y-80165363D01*
X160175363Y-80365241D01*
X160018320Y-80600273D01*
X159910147Y-80861426D01*
X159855000Y-81138665D01*
X159855000Y-81421335D01*
X159910147Y-81698574D01*
X160018320Y-81959727D01*
X160175363Y-82194759D01*
X160375241Y-82394637D01*
X160607759Y-82550000D01*
X160375241Y-82705363D01*
X160175363Y-82905241D01*
X160018320Y-83140273D01*
X159910147Y-83401426D01*
X159855000Y-83678665D01*
X159855000Y-83961335D01*
X159910147Y-84238574D01*
X160018320Y-84499727D01*
X160175363Y-84734759D01*
X160375241Y-84934637D01*
X160607759Y-85090000D01*
X160375241Y-85245363D01*
X160175363Y-85445241D01*
X160018320Y-85680273D01*
X159910147Y-85941426D01*
X159855000Y-86218665D01*
X159855000Y-86501335D01*
X159910147Y-86778574D01*
X160018320Y-87039727D01*
X160175363Y-87274759D01*
X160375241Y-87474637D01*
X160607759Y-87630000D01*
X160375241Y-87785363D01*
X160175363Y-87985241D01*
X160018320Y-88220273D01*
X159910147Y-88481426D01*
X159855000Y-88758665D01*
X159855000Y-89041335D01*
X159910147Y-89318574D01*
X160018320Y-89579727D01*
X160175363Y-89814759D01*
X160375241Y-90014637D01*
X160607759Y-90170000D01*
X160375241Y-90325363D01*
X160175363Y-90525241D01*
X160018320Y-90760273D01*
X159910147Y-91021426D01*
X159855000Y-91298665D01*
X159855000Y-91581335D01*
X159910147Y-91858574D01*
X160018320Y-92119727D01*
X160175363Y-92354759D01*
X160375241Y-92554637D01*
X160607759Y-92710000D01*
X160375241Y-92865363D01*
X160175363Y-93065241D01*
X160018320Y-93300273D01*
X159910147Y-93561426D01*
X159855000Y-93838665D01*
X159855000Y-94121335D01*
X159910147Y-94398574D01*
X160018320Y-94659727D01*
X160175363Y-94894759D01*
X160375241Y-95094637D01*
X160607759Y-95250000D01*
X160375241Y-95405363D01*
X160175363Y-95605241D01*
X160018320Y-95840273D01*
X159910147Y-96101426D01*
X159855000Y-96378665D01*
X159855000Y-96661335D01*
X159910147Y-96938574D01*
X160018320Y-97199727D01*
X160175363Y-97434759D01*
X160375241Y-97634637D01*
X160607759Y-97790000D01*
X160375241Y-97945363D01*
X160175363Y-98145241D01*
X160018320Y-98380273D01*
X159910147Y-98641426D01*
X159855000Y-98918665D01*
X159855000Y-99201335D01*
X159910147Y-99478574D01*
X160018320Y-99739727D01*
X160175363Y-99974759D01*
X160375241Y-100174637D01*
X160607759Y-100330000D01*
X160375241Y-100485363D01*
X160175363Y-100685241D01*
X160018320Y-100920273D01*
X159910147Y-101181426D01*
X159855000Y-101458665D01*
X159855000Y-101741335D01*
X159910147Y-102018574D01*
X160018320Y-102279727D01*
X160175363Y-102514759D01*
X160375241Y-102714637D01*
X160610273Y-102871680D01*
X160871426Y-102979853D01*
X161148665Y-103035000D01*
X161431335Y-103035000D01*
X161708574Y-102979853D01*
X161969727Y-102871680D01*
X162204759Y-102714637D01*
X162404637Y-102514759D01*
X162561680Y-102279727D01*
X162669853Y-102018574D01*
X162725000Y-101741335D01*
X162725000Y-101458665D01*
X162669853Y-101181426D01*
X162561680Y-100920273D01*
X162404637Y-100685241D01*
X162204759Y-100485363D01*
X161972241Y-100330000D01*
X162204759Y-100174637D01*
X162404637Y-99974759D01*
X162561680Y-99739727D01*
X162669853Y-99478574D01*
X162725000Y-99201335D01*
X162725000Y-98918665D01*
X162669853Y-98641426D01*
X162561680Y-98380273D01*
X162404637Y-98145241D01*
X162204759Y-97945363D01*
X161972241Y-97790000D01*
X162204759Y-97634637D01*
X162404637Y-97434759D01*
X162561680Y-97199727D01*
X162669853Y-96938574D01*
X162725000Y-96661335D01*
X162725000Y-96378665D01*
X162669853Y-96101426D01*
X162561680Y-95840273D01*
X162404637Y-95605241D01*
X162204759Y-95405363D01*
X161972241Y-95250000D01*
X162204759Y-95094637D01*
X162404637Y-94894759D01*
X162561680Y-94659727D01*
X162669853Y-94398574D01*
X162725000Y-94121335D01*
X162725000Y-93838665D01*
X162669853Y-93561426D01*
X162561680Y-93300273D01*
X162404637Y-93065241D01*
X162204759Y-92865363D01*
X161972241Y-92710000D01*
X162204759Y-92554637D01*
X162404637Y-92354759D01*
X162561680Y-92119727D01*
X162669853Y-91858574D01*
X162725000Y-91581335D01*
X162725000Y-91298665D01*
X162669853Y-91021426D01*
X162561680Y-90760273D01*
X162404637Y-90525241D01*
X162204759Y-90325363D01*
X161972241Y-90170000D01*
X162204759Y-90014637D01*
X162404637Y-89814759D01*
X162561680Y-89579727D01*
X162669853Y-89318574D01*
X162725000Y-89041335D01*
X162725000Y-88758665D01*
X162669853Y-88481426D01*
X162561680Y-88220273D01*
X162404637Y-87985241D01*
X162204759Y-87785363D01*
X161972241Y-87630000D01*
X162204759Y-87474637D01*
X162404637Y-87274759D01*
X162561680Y-87039727D01*
X162669853Y-86778574D01*
X162725000Y-86501335D01*
X162725000Y-86218665D01*
X162669853Y-85941426D01*
X162561680Y-85680273D01*
X162404637Y-85445241D01*
X162204759Y-85245363D01*
X161972241Y-85090000D01*
X162204759Y-84934637D01*
X162404637Y-84734759D01*
X162561680Y-84499727D01*
X162669853Y-84238574D01*
X162725000Y-83961335D01*
X162725000Y-83678665D01*
X162669853Y-83401426D01*
X162561680Y-83140273D01*
X162404637Y-82905241D01*
X162204759Y-82705363D01*
X161972241Y-82550000D01*
X162204759Y-82394637D01*
X162404637Y-82194759D01*
X162561680Y-81959727D01*
X162669853Y-81698574D01*
X162725000Y-81421335D01*
X162725000Y-81138665D01*
X162669853Y-80861426D01*
X162561680Y-80600273D01*
X162404637Y-80365241D01*
X162204759Y-80165363D01*
X161972241Y-80010000D01*
X162204759Y-79854637D01*
X162404637Y-79654759D01*
X162561680Y-79419727D01*
X162669853Y-79158574D01*
X162725000Y-78881335D01*
X162725000Y-78598665D01*
X162669853Y-78321426D01*
X162561680Y-78060273D01*
X162404637Y-77825241D01*
X162204759Y-77625363D01*
X161972241Y-77470000D01*
X162204759Y-77314637D01*
X162404637Y-77114759D01*
X162561680Y-76879727D01*
X162669853Y-76618574D01*
X162725000Y-76341335D01*
X162725000Y-76058665D01*
X162669853Y-75781426D01*
X162561680Y-75520273D01*
X162404637Y-75285241D01*
X162204759Y-75085363D01*
X161972241Y-74930000D01*
X162204759Y-74774637D01*
X162404637Y-74574759D01*
X162561680Y-74339727D01*
X162669853Y-74078574D01*
X162725000Y-73801335D01*
X162725000Y-73518665D01*
X162669853Y-73241426D01*
X162561680Y-72980273D01*
X162404637Y-72745241D01*
X162204759Y-72545363D01*
X161972241Y-72390000D01*
X162204759Y-72234637D01*
X162404637Y-72034759D01*
X162561680Y-71799727D01*
X162669853Y-71538574D01*
X162725000Y-71261335D01*
X162725000Y-70978665D01*
X162669853Y-70701426D01*
X162561680Y-70440273D01*
X162404637Y-70205241D01*
X162204759Y-70005363D01*
X161972241Y-69850000D01*
X162204759Y-69694637D01*
X162404637Y-69494759D01*
X162561680Y-69259727D01*
X162669853Y-68998574D01*
X162725000Y-68721335D01*
X162725000Y-68438665D01*
X162669853Y-68161426D01*
X162561680Y-67900273D01*
X162404637Y-67665241D01*
X162204759Y-67465363D01*
X161972241Y-67310000D01*
X162204759Y-67154637D01*
X162404637Y-66954759D01*
X162561680Y-66719727D01*
X162669853Y-66458574D01*
X162725000Y-66181335D01*
X162725000Y-65898665D01*
X162669853Y-65621426D01*
X162561680Y-65360273D01*
X162404637Y-65125241D01*
X162204759Y-64925363D01*
X161969727Y-64768320D01*
X161708574Y-64660147D01*
X161431335Y-64605000D01*
X161148665Y-64605000D01*
X160871426Y-64660147D01*
X160610273Y-64768320D01*
X160375241Y-64925363D01*
X160175363Y-65125241D01*
X160018320Y-65360273D01*
X159910147Y-65621426D01*
X159855000Y-65898665D01*
X159855000Y-66181335D01*
X159910147Y-66458574D01*
X160018320Y-66719727D01*
X160175363Y-66954759D01*
X160375241Y-67154637D01*
X160607759Y-67310000D01*
X160375241Y-67465363D01*
X160175363Y-67665241D01*
X160018320Y-67900273D01*
X159910147Y-68161426D01*
X159855000Y-68438665D01*
X159855000Y-68721335D01*
X159910147Y-68998574D01*
X160018320Y-69259727D01*
X160175363Y-69494759D01*
X160375241Y-69694637D01*
X160607759Y-69850000D01*
X160375241Y-70005363D01*
X160175363Y-70205241D01*
X160018320Y-70440273D01*
X159910147Y-70701426D01*
X159855000Y-70978665D01*
X159855000Y-71261335D01*
X159910147Y-71538574D01*
X160018320Y-71799727D01*
X160175363Y-72034759D01*
X160375241Y-72234637D01*
X160607759Y-72390000D01*
X160375241Y-72545363D01*
X160175363Y-72745241D01*
X160027798Y-72966087D01*
X159917774Y-72856063D01*
X159748256Y-72742795D01*
X159559898Y-72664774D01*
X159359939Y-72625000D01*
X159156061Y-72625000D01*
X158956102Y-72664774D01*
X158767744Y-72742795D01*
X158598226Y-72856063D01*
X158454063Y-73000226D01*
X158340795Y-73169744D01*
X158262774Y-73358102D01*
X158223000Y-73558061D01*
X158223000Y-73620198D01*
X150198198Y-81645001D01*
X147440509Y-81645001D01*
X147485000Y-81421335D01*
X147485000Y-81138665D01*
X147429853Y-80861426D01*
X147321680Y-80600273D01*
X147164637Y-80365241D01*
X146964759Y-80165363D01*
X146732241Y-80010000D01*
X146964759Y-79854637D01*
X147164637Y-79654759D01*
X147321680Y-79419727D01*
X147429853Y-79158574D01*
X147485000Y-78881335D01*
X147485000Y-78598665D01*
X147429853Y-78321426D01*
X147321680Y-78060273D01*
X147164637Y-77825241D01*
X146964759Y-77625363D01*
X146732241Y-77470000D01*
X146964759Y-77314637D01*
X147164637Y-77114759D01*
X147321680Y-76879727D01*
X147429853Y-76618574D01*
X147485000Y-76341335D01*
X147485000Y-76058665D01*
X147429853Y-75781426D01*
X147321680Y-75520273D01*
X147164637Y-75285241D01*
X146964759Y-75085363D01*
X146729727Y-74928320D01*
X146719135Y-74923933D01*
X146905131Y-74812385D01*
X147113519Y-74623414D01*
X147281037Y-74397420D01*
X147401246Y-74143087D01*
X147441904Y-74009039D01*
X147319915Y-73787000D01*
X146177000Y-73787000D01*
X146177000Y-73807000D01*
X145923000Y-73807000D01*
X145923000Y-73787000D01*
X144780085Y-73787000D01*
X144658096Y-74009039D01*
X144698754Y-74143087D01*
X144818963Y-74397420D01*
X144986481Y-74623414D01*
X145194869Y-74812385D01*
X145380865Y-74923933D01*
X145370273Y-74928320D01*
X145135241Y-75085363D01*
X144935363Y-75285241D01*
X144778320Y-75520273D01*
X144670147Y-75781426D01*
X144615000Y-76058665D01*
X144615000Y-76341335D01*
X144670147Y-76618574D01*
X144778320Y-76879727D01*
X144935363Y-77114759D01*
X145135241Y-77314637D01*
X145367759Y-77470000D01*
X145135241Y-77625363D01*
X144935363Y-77825241D01*
X144778320Y-78060273D01*
X144670147Y-78321426D01*
X144615000Y-78598665D01*
X144615000Y-78881335D01*
X144670147Y-79158574D01*
X144778320Y-79419727D01*
X144935363Y-79654759D01*
X145135241Y-79854637D01*
X145367759Y-80010000D01*
X145135241Y-80165363D01*
X144935363Y-80365241D01*
X144778320Y-80600273D01*
X144670147Y-80861426D01*
X144615000Y-81138665D01*
X144615000Y-81421335D01*
X144659491Y-81645001D01*
X137583803Y-81645001D01*
X136671000Y-80732199D01*
X136671000Y-80670061D01*
X136631226Y-80470102D01*
X136553205Y-80281744D01*
X136439937Y-80112226D01*
X136295774Y-79968063D01*
X136243706Y-79933273D01*
X136268359Y-79923061D01*
X136487013Y-79776962D01*
X136672962Y-79591013D01*
X136779000Y-79432315D01*
X136885038Y-79591013D01*
X137070987Y-79776962D01*
X137289641Y-79923061D01*
X137532595Y-80023696D01*
X137790514Y-80075000D01*
X138053486Y-80075000D01*
X138311405Y-80023696D01*
X138554359Y-79923061D01*
X138773013Y-79776962D01*
X138958962Y-79591013D01*
X139105061Y-79372359D01*
X139205696Y-79129405D01*
X139257000Y-78871486D01*
X139257000Y-78608514D01*
X139205696Y-78350595D01*
X139105061Y-78107641D01*
X138958962Y-77888987D01*
X138773013Y-77703038D01*
X138554359Y-77556939D01*
X138311405Y-77456304D01*
X138053486Y-77405000D01*
X137790514Y-77405000D01*
X137532595Y-77456304D01*
X137289641Y-77556939D01*
X137070987Y-77703038D01*
X136885038Y-77888987D01*
X136779000Y-78047685D01*
X136672962Y-77888987D01*
X136487013Y-77703038D01*
X136268359Y-77556939D01*
X136025405Y-77456304D01*
X135767486Y-77405000D01*
X135504514Y-77405000D01*
X135246595Y-77456304D01*
X135003641Y-77556939D01*
X134784987Y-77703038D01*
X134599038Y-77888987D01*
X134452939Y-78107641D01*
X134352304Y-78350595D01*
X134301000Y-78608514D01*
X127025000Y-78608514D01*
X127025000Y-73528514D01*
X134301000Y-73528514D01*
X134301000Y-73791486D01*
X134352304Y-74049405D01*
X134452939Y-74292359D01*
X134599038Y-74511013D01*
X134784987Y-74696962D01*
X135003641Y-74843061D01*
X135246595Y-74943696D01*
X135504514Y-74995000D01*
X135767486Y-74995000D01*
X136025405Y-74943696D01*
X136268359Y-74843061D01*
X136487013Y-74696962D01*
X136672962Y-74511013D01*
X136779000Y-74352315D01*
X136885038Y-74511013D01*
X137070987Y-74696962D01*
X137289641Y-74843061D01*
X137532595Y-74943696D01*
X137790514Y-74995000D01*
X138053486Y-74995000D01*
X138311405Y-74943696D01*
X138554359Y-74843061D01*
X138773013Y-74696962D01*
X138958962Y-74511013D01*
X139105061Y-74292359D01*
X139205696Y-74049405D01*
X139257000Y-73791486D01*
X139257000Y-73528514D01*
X139205696Y-73270595D01*
X139105061Y-73027641D01*
X138958962Y-72808987D01*
X138773013Y-72623038D01*
X138554359Y-72476939D01*
X138311405Y-72376304D01*
X138053486Y-72325000D01*
X137790514Y-72325000D01*
X137532595Y-72376304D01*
X137289641Y-72476939D01*
X137070987Y-72623038D01*
X136885038Y-72808987D01*
X136779000Y-72967685D01*
X136672962Y-72808987D01*
X136487013Y-72623038D01*
X136268359Y-72476939D01*
X136025405Y-72376304D01*
X135767486Y-72325000D01*
X135504514Y-72325000D01*
X135246595Y-72376304D01*
X135003641Y-72476939D01*
X134784987Y-72623038D01*
X134599038Y-72808987D01*
X134452939Y-73027641D01*
X134352304Y-73270595D01*
X134301000Y-73528514D01*
X127025000Y-73528514D01*
X127025000Y-69060021D01*
X134984000Y-69060021D01*
X134984000Y-69623978D01*
X135000785Y-69794399D01*
X135067115Y-70013059D01*
X135174829Y-70214578D01*
X135319788Y-70391212D01*
X135496421Y-70536171D01*
X135697940Y-70643885D01*
X135916600Y-70710215D01*
X136144000Y-70732612D01*
X136371399Y-70710215D01*
X136590059Y-70643885D01*
X136779000Y-70542894D01*
X136967940Y-70643885D01*
X137186600Y-70710215D01*
X137414000Y-70732612D01*
X137641399Y-70710215D01*
X137850098Y-70646907D01*
X137914820Y-70681502D01*
X138034518Y-70717812D01*
X138159000Y-70730072D01*
X138398250Y-70727000D01*
X138557000Y-70568250D01*
X138557000Y-69795109D01*
X138557215Y-69794400D01*
X138574000Y-69623979D01*
X138574000Y-69469000D01*
X138811000Y-69469000D01*
X138811000Y-70568250D01*
X138969750Y-70727000D01*
X139209000Y-70730072D01*
X139333482Y-70717812D01*
X139453180Y-70681502D01*
X139563494Y-70622537D01*
X139660185Y-70543185D01*
X139739537Y-70446494D01*
X139798502Y-70336180D01*
X139834812Y-70216482D01*
X139847072Y-70092000D01*
X139844000Y-69627750D01*
X139685250Y-69469000D01*
X138811000Y-69469000D01*
X138574000Y-69469000D01*
X138574000Y-69060022D01*
X138557215Y-68889601D01*
X138557000Y-68888892D01*
X138557000Y-68115750D01*
X138811000Y-68115750D01*
X138811000Y-69215000D01*
X139685250Y-69215000D01*
X139844000Y-69056250D01*
X139847072Y-68592000D01*
X139834812Y-68467518D01*
X139798502Y-68347820D01*
X139739537Y-68237506D01*
X139660185Y-68140815D01*
X139563494Y-68061463D01*
X139453180Y-68002498D01*
X139333482Y-67966188D01*
X139209000Y-67953928D01*
X138969750Y-67957000D01*
X138811000Y-68115750D01*
X138557000Y-68115750D01*
X138398250Y-67957000D01*
X138159000Y-67953928D01*
X138034518Y-67966188D01*
X137914820Y-68002498D01*
X137850098Y-68037093D01*
X137641400Y-67973785D01*
X137414000Y-67951388D01*
X137186601Y-67973785D01*
X136967941Y-68040115D01*
X136779001Y-68141106D01*
X136590060Y-68040115D01*
X136371400Y-67973785D01*
X136144000Y-67951388D01*
X135916601Y-67973785D01*
X135697941Y-68040115D01*
X135496422Y-68147829D01*
X135319789Y-68292788D01*
X135174830Y-68469421D01*
X135067115Y-68670940D01*
X135000785Y-68889600D01*
X134984000Y-69060021D01*
X127025000Y-69060021D01*
X127025000Y-63894600D01*
X130223628Y-63894600D01*
X130223628Y-65594600D01*
X130235888Y-65719082D01*
X130272198Y-65838780D01*
X130331163Y-65949094D01*
X130410515Y-66045785D01*
X130507206Y-66125137D01*
X130617520Y-66184102D01*
X130737218Y-66220412D01*
X130861700Y-66232672D01*
X132561700Y-66232672D01*
X132686182Y-66220412D01*
X132805880Y-66184102D01*
X132916194Y-66125137D01*
X133012885Y-66045785D01*
X133092237Y-65949094D01*
X133151202Y-65838780D01*
X133187512Y-65719082D01*
X133199772Y-65594600D01*
X133199772Y-63894600D01*
X133187512Y-63770118D01*
X133151202Y-63650420D01*
X133092237Y-63540106D01*
X133012885Y-63443415D01*
X132916194Y-63364063D01*
X132805880Y-63305098D01*
X132733320Y-63283087D01*
X132865175Y-63151232D01*
X133027690Y-62908011D01*
X133139632Y-62637758D01*
X133196700Y-62350860D01*
X133196700Y-62058340D01*
X133139632Y-61771442D01*
X133027690Y-61501189D01*
X132865175Y-61257968D01*
X132658332Y-61051125D01*
X132483940Y-60934600D01*
X132658332Y-60818075D01*
X132865175Y-60611232D01*
X133027690Y-60368011D01*
X133139632Y-60097758D01*
X133196700Y-59810860D01*
X133196700Y-59518340D01*
X133139632Y-59231442D01*
X133027690Y-58961189D01*
X132946715Y-58840000D01*
X133893928Y-58840000D01*
X133893928Y-60540000D01*
X133906188Y-60664482D01*
X133942498Y-60784180D01*
X134001463Y-60894494D01*
X134080815Y-60991185D01*
X134177506Y-61070537D01*
X134287820Y-61129502D01*
X134360380Y-61151513D01*
X134228525Y-61283368D01*
X134066010Y-61526589D01*
X133954068Y-61796842D01*
X133897000Y-62083740D01*
X133897000Y-62376260D01*
X133954068Y-62663158D01*
X134066010Y-62933411D01*
X134228525Y-63176632D01*
X134435368Y-63383475D01*
X134609760Y-63500000D01*
X134435368Y-63616525D01*
X134228525Y-63823368D01*
X134066010Y-64066589D01*
X133954068Y-64336842D01*
X133897000Y-64623740D01*
X133897000Y-64916260D01*
X133954068Y-65203158D01*
X134066010Y-65473411D01*
X134228525Y-65716632D01*
X134435368Y-65923475D01*
X134678589Y-66085990D01*
X134948842Y-66197932D01*
X135235740Y-66255000D01*
X135528260Y-66255000D01*
X135815158Y-66197932D01*
X136085411Y-66085990D01*
X136328632Y-65923475D01*
X136535475Y-65716632D01*
X136697990Y-65473411D01*
X136809932Y-65203158D01*
X136867000Y-64916260D01*
X136867000Y-64623740D01*
X136809932Y-64336842D01*
X136697990Y-64066589D01*
X136535475Y-63823368D01*
X136328632Y-63616525D01*
X136154240Y-63500000D01*
X136328632Y-63383475D01*
X136535475Y-63176632D01*
X136697990Y-62933411D01*
X136809932Y-62663158D01*
X136867000Y-62376260D01*
X136867000Y-62083740D01*
X136809932Y-61796842D01*
X136697990Y-61526589D01*
X136535475Y-61283368D01*
X136403620Y-61151513D01*
X136476180Y-61129502D01*
X136586494Y-61070537D01*
X136683185Y-60991185D01*
X136762537Y-60894494D01*
X136821502Y-60784180D01*
X136857812Y-60664482D01*
X136870072Y-60540000D01*
X136870072Y-58840000D01*
X137576928Y-58840000D01*
X137576928Y-60540000D01*
X137589188Y-60664482D01*
X137625498Y-60784180D01*
X137684463Y-60894494D01*
X137763815Y-60991185D01*
X137860506Y-61070537D01*
X137970820Y-61129502D01*
X138043380Y-61151513D01*
X137911525Y-61283368D01*
X137749010Y-61526589D01*
X137637068Y-61796842D01*
X137580000Y-62083740D01*
X137580000Y-62376260D01*
X137637068Y-62663158D01*
X137749010Y-62933411D01*
X137911525Y-63176632D01*
X138118368Y-63383475D01*
X138292760Y-63500000D01*
X138118368Y-63616525D01*
X137911525Y-63823368D01*
X137749010Y-64066589D01*
X137637068Y-64336842D01*
X137580000Y-64623740D01*
X137580000Y-64916260D01*
X137637068Y-65203158D01*
X137749010Y-65473411D01*
X137911525Y-65716632D01*
X138118368Y-65923475D01*
X138361589Y-66085990D01*
X138631842Y-66197932D01*
X138918740Y-66255000D01*
X139211260Y-66255000D01*
X139498158Y-66197932D01*
X139768411Y-66085990D01*
X140011632Y-65923475D01*
X140218475Y-65716632D01*
X140380990Y-65473411D01*
X140492932Y-65203158D01*
X140550000Y-64916260D01*
X140550000Y-64623740D01*
X140492932Y-64336842D01*
X140380990Y-64066589D01*
X140218475Y-63823368D01*
X140011632Y-63616525D01*
X139837240Y-63500000D01*
X140011632Y-63383475D01*
X140218475Y-63176632D01*
X140380990Y-62933411D01*
X140492932Y-62663158D01*
X140550000Y-62376260D01*
X140550000Y-62083740D01*
X140492932Y-61796842D01*
X140380990Y-61526589D01*
X140218475Y-61283368D01*
X140086620Y-61151513D01*
X140159180Y-61129502D01*
X140269494Y-61070537D01*
X140366185Y-60991185D01*
X140445537Y-60894494D01*
X140504502Y-60784180D01*
X140540812Y-60664482D01*
X140553072Y-60540000D01*
X140553072Y-58840000D01*
X140540812Y-58715518D01*
X140504502Y-58595820D01*
X140445537Y-58485506D01*
X140366185Y-58388815D01*
X140269494Y-58309463D01*
X140159180Y-58250498D01*
X140039482Y-58214188D01*
X139915000Y-58201928D01*
X138215000Y-58201928D01*
X138090518Y-58214188D01*
X137970820Y-58250498D01*
X137860506Y-58309463D01*
X137763815Y-58388815D01*
X137684463Y-58485506D01*
X137625498Y-58595820D01*
X137589188Y-58715518D01*
X137576928Y-58840000D01*
X136870072Y-58840000D01*
X136857812Y-58715518D01*
X136821502Y-58595820D01*
X136762537Y-58485506D01*
X136683185Y-58388815D01*
X136586494Y-58309463D01*
X136476180Y-58250498D01*
X136356482Y-58214188D01*
X136232000Y-58201928D01*
X134532000Y-58201928D01*
X134407518Y-58214188D01*
X134287820Y-58250498D01*
X134177506Y-58309463D01*
X134080815Y-58388815D01*
X134001463Y-58485506D01*
X133942498Y-58595820D01*
X133906188Y-58715518D01*
X133893928Y-58840000D01*
X132946715Y-58840000D01*
X132865175Y-58717968D01*
X132658332Y-58511125D01*
X132415111Y-58348610D01*
X132144858Y-58236668D01*
X131857960Y-58179600D01*
X131565440Y-58179600D01*
X131278542Y-58236668D01*
X131008289Y-58348610D01*
X130765068Y-58511125D01*
X130558225Y-58717968D01*
X130395710Y-58961189D01*
X130283768Y-59231442D01*
X130226700Y-59518340D01*
X130226700Y-59810860D01*
X130283768Y-60097758D01*
X130395710Y-60368011D01*
X130558225Y-60611232D01*
X130765068Y-60818075D01*
X130939460Y-60934600D01*
X130765068Y-61051125D01*
X130558225Y-61257968D01*
X130395710Y-61501189D01*
X130283768Y-61771442D01*
X130226700Y-62058340D01*
X130226700Y-62350860D01*
X130283768Y-62637758D01*
X130395710Y-62908011D01*
X130558225Y-63151232D01*
X130690080Y-63283087D01*
X130617520Y-63305098D01*
X130507206Y-63364063D01*
X130410515Y-63443415D01*
X130331163Y-63540106D01*
X130272198Y-63650420D01*
X130235888Y-63770118D01*
X130223628Y-63894600D01*
X127025000Y-63894600D01*
X127025000Y-55715000D01*
X136356928Y-55715000D01*
X136356928Y-57315000D01*
X136369188Y-57439482D01*
X136405498Y-57559180D01*
X136464463Y-57669494D01*
X136543815Y-57766185D01*
X136640506Y-57845537D01*
X136750820Y-57904502D01*
X136870518Y-57940812D01*
X136995000Y-57953072D01*
X138595000Y-57953072D01*
X138719482Y-57940812D01*
X138839180Y-57904502D01*
X138949494Y-57845537D01*
X139046185Y-57766185D01*
X139125537Y-57669494D01*
X139184502Y-57559180D01*
X139220812Y-57439482D01*
X139233072Y-57315000D01*
X139233072Y-57049275D01*
X139293320Y-57194727D01*
X139450363Y-57429759D01*
X139650241Y-57629637D01*
X139885273Y-57786680D01*
X140146426Y-57894853D01*
X140423665Y-57950000D01*
X140706335Y-57950000D01*
X140983574Y-57894853D01*
X141244727Y-57786680D01*
X141479759Y-57629637D01*
X141679637Y-57429759D01*
X141836680Y-57194727D01*
X141944853Y-56933574D01*
X141950000Y-56907699D01*
X141955147Y-56933574D01*
X142063320Y-57194727D01*
X142115001Y-57272073D01*
X142115000Y-77401289D01*
X142071063Y-77445226D01*
X141957795Y-77614744D01*
X141879774Y-77803102D01*
X141840000Y-78003061D01*
X141840000Y-78206939D01*
X141879774Y-78406898D01*
X141957795Y-78595256D01*
X142071063Y-78764774D01*
X142215226Y-78908937D01*
X142384744Y-79022205D01*
X142573102Y-79100226D01*
X142773061Y-79140000D01*
X142976939Y-79140000D01*
X143176898Y-79100226D01*
X143365256Y-79022205D01*
X143534774Y-78908937D01*
X143678937Y-78764774D01*
X143792205Y-78595256D01*
X143870226Y-78406898D01*
X143910000Y-78206939D01*
X143910000Y-78003061D01*
X143870226Y-77803102D01*
X143792205Y-77614744D01*
X143678937Y-77445226D01*
X143635000Y-77401289D01*
X143635000Y-65240000D01*
X144611928Y-65240000D01*
X144611928Y-66840000D01*
X144624188Y-66964482D01*
X144660498Y-67084180D01*
X144719463Y-67194494D01*
X144798815Y-67291185D01*
X144895506Y-67370537D01*
X145005820Y-67429502D01*
X145125518Y-67465812D01*
X145133961Y-67466643D01*
X144935363Y-67665241D01*
X144778320Y-67900273D01*
X144670147Y-68161426D01*
X144615000Y-68438665D01*
X144615000Y-68721335D01*
X144670147Y-68998574D01*
X144778320Y-69259727D01*
X144935363Y-69494759D01*
X145135241Y-69694637D01*
X145367759Y-69850000D01*
X145135241Y-70005363D01*
X144935363Y-70205241D01*
X144778320Y-70440273D01*
X144670147Y-70701426D01*
X144615000Y-70978665D01*
X144615000Y-71261335D01*
X144670147Y-71538574D01*
X144778320Y-71799727D01*
X144935363Y-72034759D01*
X145135241Y-72234637D01*
X145370273Y-72391680D01*
X145380865Y-72396067D01*
X145194869Y-72507615D01*
X144986481Y-72696586D01*
X144818963Y-72922580D01*
X144698754Y-73176913D01*
X144658096Y-73310961D01*
X144780085Y-73533000D01*
X145923000Y-73533000D01*
X145923000Y-73513000D01*
X146177000Y-73513000D01*
X146177000Y-73533000D01*
X147319915Y-73533000D01*
X147441904Y-73310961D01*
X147401246Y-73176913D01*
X147281037Y-72922580D01*
X147113519Y-72696586D01*
X146905131Y-72507615D01*
X146719135Y-72396067D01*
X146729727Y-72391680D01*
X146964759Y-72234637D01*
X147164637Y-72034759D01*
X147321680Y-71799727D01*
X147429853Y-71538574D01*
X147485000Y-71261335D01*
X147485000Y-70978665D01*
X147429853Y-70701426D01*
X147321680Y-70440273D01*
X147164637Y-70205241D01*
X146964759Y-70005363D01*
X146732241Y-69850000D01*
X146964759Y-69694637D01*
X147164637Y-69494759D01*
X147321680Y-69259727D01*
X147429853Y-68998574D01*
X147485000Y-68721335D01*
X147485000Y-68438665D01*
X147429853Y-68161426D01*
X147321680Y-67900273D01*
X147164637Y-67665241D01*
X146966039Y-67466643D01*
X146974482Y-67465812D01*
X147094180Y-67429502D01*
X147204494Y-67370537D01*
X147301185Y-67291185D01*
X147380537Y-67194494D01*
X147439502Y-67084180D01*
X147475812Y-66964482D01*
X147488072Y-66840000D01*
X147488072Y-65240000D01*
X147475812Y-65115518D01*
X147439502Y-64995820D01*
X147380537Y-64885506D01*
X147301185Y-64788815D01*
X147204494Y-64709463D01*
X147094180Y-64650498D01*
X146974482Y-64614188D01*
X146850000Y-64601928D01*
X145250000Y-64601928D01*
X145125518Y-64614188D01*
X145005820Y-64650498D01*
X144895506Y-64709463D01*
X144798815Y-64788815D01*
X144719463Y-64885506D01*
X144660498Y-64995820D01*
X144624188Y-65115518D01*
X144611928Y-65240000D01*
X143635000Y-65240000D01*
X143635000Y-59543740D01*
X143930000Y-59543740D01*
X143930000Y-59836260D01*
X143987068Y-60123158D01*
X144099010Y-60393411D01*
X144261525Y-60636632D01*
X144468368Y-60843475D01*
X144711589Y-61005990D01*
X144981842Y-61117932D01*
X145268740Y-61175000D01*
X145561260Y-61175000D01*
X145848158Y-61117932D01*
X146118411Y-61005990D01*
X146361632Y-60843475D01*
X146493487Y-60711620D01*
X146515498Y-60784180D01*
X146574463Y-60894494D01*
X146653815Y-60991185D01*
X146750506Y-61070537D01*
X146860820Y-61129502D01*
X146980518Y-61165812D01*
X147105000Y-61178072D01*
X148805000Y-61178072D01*
X148929482Y-61165812D01*
X149049180Y-61129502D01*
X149159494Y-61070537D01*
X149256185Y-60991185D01*
X149335537Y-60894494D01*
X149394502Y-60784180D01*
X149430812Y-60664482D01*
X149443072Y-60540000D01*
X149443072Y-58840000D01*
X149430812Y-58715518D01*
X149394502Y-58595820D01*
X149335537Y-58485506D01*
X149256185Y-58388815D01*
X149159494Y-58309463D01*
X149049180Y-58250498D01*
X148929482Y-58214188D01*
X148805000Y-58201928D01*
X147105000Y-58201928D01*
X146980518Y-58214188D01*
X146860820Y-58250498D01*
X146750506Y-58309463D01*
X146653815Y-58388815D01*
X146574463Y-58485506D01*
X146515498Y-58595820D01*
X146493487Y-58668380D01*
X146361632Y-58536525D01*
X146118411Y-58374010D01*
X145848158Y-58262068D01*
X145561260Y-58205000D01*
X145268740Y-58205000D01*
X144981842Y-58262068D01*
X144711589Y-58374010D01*
X144468368Y-58536525D01*
X144261525Y-58743368D01*
X144099010Y-58986589D01*
X143987068Y-59256842D01*
X143930000Y-59543740D01*
X143635000Y-59543740D01*
X143635000Y-57918439D01*
X143753574Y-57894853D01*
X144014727Y-57786680D01*
X144249759Y-57629637D01*
X144449637Y-57429759D01*
X144606680Y-57194727D01*
X144714853Y-56933574D01*
X144720000Y-56907699D01*
X144725147Y-56933574D01*
X144833320Y-57194727D01*
X144990363Y-57429759D01*
X145190241Y-57629637D01*
X145425273Y-57786680D01*
X145686426Y-57894853D01*
X145963665Y-57950000D01*
X146246335Y-57950000D01*
X146523574Y-57894853D01*
X146784727Y-57786680D01*
X147019759Y-57629637D01*
X147219637Y-57429759D01*
X147376680Y-57194727D01*
X147484853Y-56933574D01*
X147490000Y-56907699D01*
X147495147Y-56933574D01*
X147603320Y-57194727D01*
X147760363Y-57429759D01*
X147960241Y-57629637D01*
X148195273Y-57786680D01*
X148456426Y-57894853D01*
X148733665Y-57950000D01*
X149016335Y-57950000D01*
X149198886Y-57913688D01*
X151486201Y-60201003D01*
X151509999Y-60230001D01*
X151538997Y-60253799D01*
X151625723Y-60324974D01*
X151706239Y-60368011D01*
X151757753Y-60395546D01*
X151901014Y-60439003D01*
X152012667Y-60450000D01*
X152012676Y-60450000D01*
X152049999Y-60453676D01*
X152087322Y-60450000D01*
X152391822Y-60450000D01*
X152516525Y-60636632D01*
X152723368Y-60843475D01*
X152966589Y-61005990D01*
X153236842Y-61117932D01*
X153523740Y-61175000D01*
X153816260Y-61175000D01*
X154103158Y-61117932D01*
X154373411Y-61005990D01*
X154616632Y-60843475D01*
X154748487Y-60711620D01*
X154770498Y-60784180D01*
X154829463Y-60894494D01*
X154908815Y-60991185D01*
X155005506Y-61070537D01*
X155115820Y-61129502D01*
X155235518Y-61165812D01*
X155360000Y-61178072D01*
X157060000Y-61178072D01*
X157184482Y-61165812D01*
X157304180Y-61129502D01*
X157414494Y-61070537D01*
X157511185Y-60991185D01*
X157590537Y-60894494D01*
X157649502Y-60784180D01*
X157685812Y-60664482D01*
X157698072Y-60540000D01*
X157698072Y-59543740D01*
X174537000Y-59543740D01*
X174537000Y-59836260D01*
X174594068Y-60123158D01*
X174706010Y-60393411D01*
X174868525Y-60636632D01*
X175075368Y-60843475D01*
X175318589Y-61005990D01*
X175588842Y-61117932D01*
X175875740Y-61175000D01*
X176168260Y-61175000D01*
X176455158Y-61117932D01*
X176725411Y-61005990D01*
X176968632Y-60843475D01*
X177100487Y-60711620D01*
X177122498Y-60784180D01*
X177181463Y-60894494D01*
X177260815Y-60991185D01*
X177357506Y-61070537D01*
X177467820Y-61129502D01*
X177587518Y-61165812D01*
X177712000Y-61178072D01*
X178276250Y-61175000D01*
X178435000Y-61016250D01*
X178435000Y-59817000D01*
X178689000Y-59817000D01*
X178689000Y-61016250D01*
X178847750Y-61175000D01*
X179412000Y-61178072D01*
X179536482Y-61165812D01*
X179656180Y-61129502D01*
X179766494Y-61070537D01*
X179863185Y-60991185D01*
X179942537Y-60894494D01*
X180001502Y-60784180D01*
X180037812Y-60664482D01*
X180050072Y-60540000D01*
X180047000Y-59975750D01*
X179888250Y-59817000D01*
X178689000Y-59817000D01*
X178435000Y-59817000D01*
X178415000Y-59817000D01*
X178415000Y-59563000D01*
X178435000Y-59563000D01*
X178435000Y-58363750D01*
X178689000Y-58363750D01*
X178689000Y-59563000D01*
X179888250Y-59563000D01*
X180047000Y-59404250D01*
X180050072Y-58840000D01*
X180037812Y-58715518D01*
X180001502Y-58595820D01*
X179942537Y-58485506D01*
X179863185Y-58388815D01*
X179766494Y-58309463D01*
X179656180Y-58250498D01*
X179536482Y-58214188D01*
X179412000Y-58201928D01*
X178847750Y-58205000D01*
X178689000Y-58363750D01*
X178435000Y-58363750D01*
X178276250Y-58205000D01*
X177712000Y-58201928D01*
X177587518Y-58214188D01*
X177467820Y-58250498D01*
X177357506Y-58309463D01*
X177260815Y-58388815D01*
X177181463Y-58485506D01*
X177122498Y-58595820D01*
X177100487Y-58668380D01*
X176968632Y-58536525D01*
X176725411Y-58374010D01*
X176455158Y-58262068D01*
X176168260Y-58205000D01*
X175875740Y-58205000D01*
X175588842Y-58262068D01*
X175318589Y-58374010D01*
X175075368Y-58536525D01*
X174868525Y-58743368D01*
X174706010Y-58986589D01*
X174594068Y-59256842D01*
X174537000Y-59543740D01*
X157698072Y-59543740D01*
X157698072Y-58840000D01*
X157685812Y-58715518D01*
X157649502Y-58595820D01*
X157590537Y-58485506D01*
X157511185Y-58388815D01*
X157414494Y-58309463D01*
X157304180Y-58250498D01*
X157184482Y-58214188D01*
X157060000Y-58201928D01*
X155360000Y-58201928D01*
X155235518Y-58214188D01*
X155115820Y-58250498D01*
X155005506Y-58309463D01*
X154908815Y-58388815D01*
X154829463Y-58485506D01*
X154770498Y-58595820D01*
X154748487Y-58668380D01*
X154616632Y-58536525D01*
X154373411Y-58374010D01*
X154103158Y-58262068D01*
X153816260Y-58205000D01*
X153523740Y-58205000D01*
X153236842Y-58262068D01*
X152966589Y-58374010D01*
X152723368Y-58536525D01*
X152516525Y-58743368D01*
X152391822Y-58930000D01*
X152364802Y-58930000D01*
X151355287Y-57920485D01*
X151503665Y-57950000D01*
X151786335Y-57950000D01*
X152063574Y-57894853D01*
X152324727Y-57786680D01*
X152559759Y-57629637D01*
X152759637Y-57429759D01*
X152916680Y-57194727D01*
X153024853Y-56933574D01*
X153030000Y-56907699D01*
X153035147Y-56933574D01*
X153143320Y-57194727D01*
X153300363Y-57429759D01*
X153500241Y-57629637D01*
X153735273Y-57786680D01*
X153996426Y-57894853D01*
X154273665Y-57950000D01*
X154556335Y-57950000D01*
X154833574Y-57894853D01*
X155094727Y-57786680D01*
X155329759Y-57629637D01*
X155529637Y-57429759D01*
X155686680Y-57194727D01*
X155794853Y-56933574D01*
X155800000Y-56907699D01*
X155805147Y-56933574D01*
X155913320Y-57194727D01*
X156070363Y-57429759D01*
X156270241Y-57629637D01*
X156505273Y-57786680D01*
X156766426Y-57894853D01*
X157043665Y-57950000D01*
X157326335Y-57950000D01*
X157603574Y-57894853D01*
X157864727Y-57786680D01*
X158099759Y-57629637D01*
X158299637Y-57429759D01*
X158456680Y-57194727D01*
X158564853Y-56933574D01*
X158570000Y-56907699D01*
X158575147Y-56933574D01*
X158683320Y-57194727D01*
X158840363Y-57429759D01*
X159040241Y-57629637D01*
X159275273Y-57786680D01*
X159536426Y-57894853D01*
X159813665Y-57950000D01*
X160096335Y-57950000D01*
X160373574Y-57894853D01*
X160634727Y-57786680D01*
X160869759Y-57629637D01*
X161069637Y-57429759D01*
X161226680Y-57194727D01*
X161334853Y-56933574D01*
X161340000Y-56907699D01*
X161345147Y-56933574D01*
X161453320Y-57194727D01*
X161610363Y-57429759D01*
X161810241Y-57629637D01*
X162045273Y-57786680D01*
X162306426Y-57894853D01*
X162583665Y-57950000D01*
X162866335Y-57950000D01*
X163143574Y-57894853D01*
X163404727Y-57786680D01*
X163639759Y-57629637D01*
X163839637Y-57429759D01*
X163996680Y-57194727D01*
X164104853Y-56933574D01*
X164110000Y-56907699D01*
X164115147Y-56933574D01*
X164223320Y-57194727D01*
X164380363Y-57429759D01*
X164580241Y-57629637D01*
X164815273Y-57786680D01*
X165076426Y-57894853D01*
X165353665Y-57950000D01*
X165636335Y-57950000D01*
X165913574Y-57894853D01*
X166174727Y-57786680D01*
X166409759Y-57629637D01*
X166609637Y-57429759D01*
X166766680Y-57194727D01*
X166874853Y-56933574D01*
X166880000Y-56907699D01*
X166885147Y-56933574D01*
X166993320Y-57194727D01*
X167150363Y-57429759D01*
X167350241Y-57629637D01*
X167585273Y-57786680D01*
X167846426Y-57894853D01*
X168123665Y-57950000D01*
X168406335Y-57950000D01*
X168683574Y-57894853D01*
X168944727Y-57786680D01*
X169179759Y-57629637D01*
X169379637Y-57429759D01*
X169536680Y-57194727D01*
X169644853Y-56933574D01*
X169650000Y-56907699D01*
X169655147Y-56933574D01*
X169763320Y-57194727D01*
X169920363Y-57429759D01*
X170120241Y-57629637D01*
X170355273Y-57786680D01*
X170616426Y-57894853D01*
X170893665Y-57950000D01*
X171176335Y-57950000D01*
X171453574Y-57894853D01*
X171714727Y-57786680D01*
X171949759Y-57629637D01*
X172149637Y-57429759D01*
X172306680Y-57194727D01*
X172414853Y-56933574D01*
X172470000Y-56656335D01*
X172470000Y-56373665D01*
X172414853Y-56096426D01*
X172306680Y-55835273D01*
X172149637Y-55600241D01*
X171949759Y-55400363D01*
X171714727Y-55243320D01*
X171453574Y-55135147D01*
X171176335Y-55080000D01*
X170893665Y-55080000D01*
X170616426Y-55135147D01*
X170355273Y-55243320D01*
X170120241Y-55400363D01*
X169920363Y-55600241D01*
X169763320Y-55835273D01*
X169655147Y-56096426D01*
X169650000Y-56122301D01*
X169644853Y-56096426D01*
X169536680Y-55835273D01*
X169379637Y-55600241D01*
X169179759Y-55400363D01*
X168944727Y-55243320D01*
X168683574Y-55135147D01*
X168406335Y-55080000D01*
X168123665Y-55080000D01*
X167846426Y-55135147D01*
X167585273Y-55243320D01*
X167350241Y-55400363D01*
X167150363Y-55600241D01*
X166993320Y-55835273D01*
X166885147Y-56096426D01*
X166880000Y-56122301D01*
X166874853Y-56096426D01*
X166766680Y-55835273D01*
X166609637Y-55600241D01*
X166409759Y-55400363D01*
X166174727Y-55243320D01*
X165913574Y-55135147D01*
X165636335Y-55080000D01*
X165353665Y-55080000D01*
X165076426Y-55135147D01*
X164815273Y-55243320D01*
X164580241Y-55400363D01*
X164380363Y-55600241D01*
X164223320Y-55835273D01*
X164115147Y-56096426D01*
X164110000Y-56122301D01*
X164104853Y-56096426D01*
X163996680Y-55835273D01*
X163839637Y-55600241D01*
X163639759Y-55400363D01*
X163404727Y-55243320D01*
X163143574Y-55135147D01*
X162866335Y-55080000D01*
X162583665Y-55080000D01*
X162306426Y-55135147D01*
X162045273Y-55243320D01*
X161810241Y-55400363D01*
X161610363Y-55600241D01*
X161453320Y-55835273D01*
X161345147Y-56096426D01*
X161340000Y-56122301D01*
X161334853Y-56096426D01*
X161226680Y-55835273D01*
X161069637Y-55600241D01*
X160869759Y-55400363D01*
X160634727Y-55243320D01*
X160373574Y-55135147D01*
X160096335Y-55080000D01*
X159813665Y-55080000D01*
X159536426Y-55135147D01*
X159275273Y-55243320D01*
X159040241Y-55400363D01*
X158840363Y-55600241D01*
X158683320Y-55835273D01*
X158575147Y-56096426D01*
X158570000Y-56122301D01*
X158564853Y-56096426D01*
X158456680Y-55835273D01*
X158299637Y-55600241D01*
X158099759Y-55400363D01*
X157864727Y-55243320D01*
X157603574Y-55135147D01*
X157326335Y-55080000D01*
X157043665Y-55080000D01*
X156766426Y-55135147D01*
X156505273Y-55243320D01*
X156270241Y-55400363D01*
X156070363Y-55600241D01*
X155913320Y-55835273D01*
X155805147Y-56096426D01*
X155800000Y-56122301D01*
X155794853Y-56096426D01*
X155686680Y-55835273D01*
X155529637Y-55600241D01*
X155329759Y-55400363D01*
X155094727Y-55243320D01*
X154833574Y-55135147D01*
X154556335Y-55080000D01*
X154273665Y-55080000D01*
X153996426Y-55135147D01*
X153735273Y-55243320D01*
X153500241Y-55400363D01*
X153300363Y-55600241D01*
X153143320Y-55835273D01*
X153035147Y-56096426D01*
X153030000Y-56122301D01*
X153024853Y-56096426D01*
X152916680Y-55835273D01*
X152759637Y-55600241D01*
X152559759Y-55400363D01*
X152324727Y-55243320D01*
X152063574Y-55135147D01*
X151786335Y-55080000D01*
X151503665Y-55080000D01*
X151226426Y-55135147D01*
X150965273Y-55243320D01*
X150730241Y-55400363D01*
X150530363Y-55600241D01*
X150373320Y-55835273D01*
X150265147Y-56096426D01*
X150260000Y-56122301D01*
X150254853Y-56096426D01*
X150146680Y-55835273D01*
X149989637Y-55600241D01*
X149789759Y-55400363D01*
X149554727Y-55243320D01*
X149293574Y-55135147D01*
X149016335Y-55080000D01*
X148733665Y-55080000D01*
X148456426Y-55135147D01*
X148195273Y-55243320D01*
X147960241Y-55400363D01*
X147760363Y-55600241D01*
X147603320Y-55835273D01*
X147495147Y-56096426D01*
X147490000Y-56122301D01*
X147484853Y-56096426D01*
X147376680Y-55835273D01*
X147219637Y-55600241D01*
X147019759Y-55400363D01*
X146784727Y-55243320D01*
X146523574Y-55135147D01*
X146246335Y-55080000D01*
X145963665Y-55080000D01*
X145686426Y-55135147D01*
X145425273Y-55243320D01*
X145190241Y-55400363D01*
X144990363Y-55600241D01*
X144833320Y-55835273D01*
X144725147Y-56096426D01*
X144720000Y-56122301D01*
X144714853Y-56096426D01*
X144606680Y-55835273D01*
X144449637Y-55600241D01*
X144249759Y-55400363D01*
X144014727Y-55243320D01*
X143753574Y-55135147D01*
X143476335Y-55080000D01*
X143193665Y-55080000D01*
X142916426Y-55135147D01*
X142655273Y-55243320D01*
X142420241Y-55400363D01*
X142220363Y-55600241D01*
X142063320Y-55835273D01*
X141955147Y-56096426D01*
X141950000Y-56122301D01*
X141944853Y-56096426D01*
X141836680Y-55835273D01*
X141679637Y-55600241D01*
X141479759Y-55400363D01*
X141244727Y-55243320D01*
X140983574Y-55135147D01*
X140706335Y-55080000D01*
X140423665Y-55080000D01*
X140146426Y-55135147D01*
X139885273Y-55243320D01*
X139650241Y-55400363D01*
X139450363Y-55600241D01*
X139293320Y-55835273D01*
X139233072Y-55980725D01*
X139233072Y-55715000D01*
X139220812Y-55590518D01*
X139184502Y-55470820D01*
X139151993Y-55410000D01*
X139321335Y-55410000D01*
X139598574Y-55354853D01*
X139859727Y-55246680D01*
X140094759Y-55089637D01*
X140294637Y-54889759D01*
X140451680Y-54654727D01*
X140559853Y-54393574D01*
X140565000Y-54367699D01*
X140570147Y-54393574D01*
X140678320Y-54654727D01*
X140835363Y-54889759D01*
X141035241Y-55089637D01*
X141270273Y-55246680D01*
X141531426Y-55354853D01*
X141808665Y-55410000D01*
X142091335Y-55410000D01*
X142368574Y-55354853D01*
X142629727Y-55246680D01*
X142864759Y-55089637D01*
X143064637Y-54889759D01*
X143221680Y-54654727D01*
X143329853Y-54393574D01*
X143335000Y-54367699D01*
X143340147Y-54393574D01*
X143448320Y-54654727D01*
X143605363Y-54889759D01*
X143805241Y-55089637D01*
X144040273Y-55246680D01*
X144301426Y-55354853D01*
X144578665Y-55410000D01*
X144861335Y-55410000D01*
X145138574Y-55354853D01*
X145399727Y-55246680D01*
X145634759Y-55089637D01*
X145834637Y-54889759D01*
X145991680Y-54654727D01*
X146099853Y-54393574D01*
X146105000Y-54367699D01*
X146110147Y-54393574D01*
X146218320Y-54654727D01*
X146375363Y-54889759D01*
X146575241Y-55089637D01*
X146810273Y-55246680D01*
X147071426Y-55354853D01*
X147348665Y-55410000D01*
X147631335Y-55410000D01*
X147908574Y-55354853D01*
X148169727Y-55246680D01*
X148404759Y-55089637D01*
X148526694Y-54967702D01*
X149446903Y-54967702D01*
X149518486Y-55211671D01*
X149773996Y-55332571D01*
X150048184Y-55401300D01*
X150330512Y-55415217D01*
X150610130Y-55373787D01*
X150876292Y-55278603D01*
X151001514Y-55211671D01*
X151073097Y-54967702D01*
X152216903Y-54967702D01*
X152288486Y-55211671D01*
X152543996Y-55332571D01*
X152818184Y-55401300D01*
X153100512Y-55415217D01*
X153380130Y-55373787D01*
X153646292Y-55278603D01*
X153771514Y-55211671D01*
X153843097Y-54967702D01*
X154986903Y-54967702D01*
X155058486Y-55211671D01*
X155313996Y-55332571D01*
X155588184Y-55401300D01*
X155870512Y-55415217D01*
X156150130Y-55373787D01*
X156416292Y-55278603D01*
X156541514Y-55211671D01*
X156613097Y-54967702D01*
X157756903Y-54967702D01*
X157828486Y-55211671D01*
X158083996Y-55332571D01*
X158358184Y-55401300D01*
X158640512Y-55415217D01*
X158920130Y-55373787D01*
X159186292Y-55278603D01*
X159311514Y-55211671D01*
X159383097Y-54967702D01*
X160526903Y-54967702D01*
X160598486Y-55211671D01*
X160853996Y-55332571D01*
X161128184Y-55401300D01*
X161410512Y-55415217D01*
X161690130Y-55373787D01*
X161956292Y-55278603D01*
X162081514Y-55211671D01*
X162153097Y-54967702D01*
X163296903Y-54967702D01*
X163368486Y-55211671D01*
X163623996Y-55332571D01*
X163898184Y-55401300D01*
X164180512Y-55415217D01*
X164460130Y-55373787D01*
X164726292Y-55278603D01*
X164851514Y-55211671D01*
X164923097Y-54967702D01*
X166066903Y-54967702D01*
X166138486Y-55211671D01*
X166393996Y-55332571D01*
X166668184Y-55401300D01*
X166950512Y-55415217D01*
X167230130Y-55373787D01*
X167496292Y-55278603D01*
X167621514Y-55211671D01*
X167693097Y-54967702D01*
X168836903Y-54967702D01*
X168908486Y-55211671D01*
X169163996Y-55332571D01*
X169438184Y-55401300D01*
X169720512Y-55415217D01*
X170000130Y-55373787D01*
X170266292Y-55278603D01*
X170391514Y-55211671D01*
X170463097Y-54967702D01*
X169650000Y-54154605D01*
X168836903Y-54967702D01*
X167693097Y-54967702D01*
X166880000Y-54154605D01*
X166066903Y-54967702D01*
X164923097Y-54967702D01*
X164110000Y-54154605D01*
X163296903Y-54967702D01*
X162153097Y-54967702D01*
X161340000Y-54154605D01*
X160526903Y-54967702D01*
X159383097Y-54967702D01*
X158570000Y-54154605D01*
X157756903Y-54967702D01*
X156613097Y-54967702D01*
X155800000Y-54154605D01*
X154986903Y-54967702D01*
X153843097Y-54967702D01*
X153030000Y-54154605D01*
X152216903Y-54967702D01*
X151073097Y-54967702D01*
X150260000Y-54154605D01*
X149446903Y-54967702D01*
X148526694Y-54967702D01*
X148604637Y-54889759D01*
X148761680Y-54654727D01*
X148869853Y-54393574D01*
X148875513Y-54365118D01*
X148956397Y-54591292D01*
X149023329Y-54716514D01*
X149267298Y-54788097D01*
X150080395Y-53975000D01*
X150439605Y-53975000D01*
X151252702Y-54788097D01*
X151496671Y-54716514D01*
X151617571Y-54461004D01*
X151643216Y-54358695D01*
X151726397Y-54591292D01*
X151793329Y-54716514D01*
X152037298Y-54788097D01*
X152850395Y-53975000D01*
X153209605Y-53975000D01*
X154022702Y-54788097D01*
X154266671Y-54716514D01*
X154387571Y-54461004D01*
X154413216Y-54358695D01*
X154496397Y-54591292D01*
X154563329Y-54716514D01*
X154807298Y-54788097D01*
X155620395Y-53975000D01*
X155979605Y-53975000D01*
X156792702Y-54788097D01*
X157036671Y-54716514D01*
X157157571Y-54461004D01*
X157183216Y-54358695D01*
X157266397Y-54591292D01*
X157333329Y-54716514D01*
X157577298Y-54788097D01*
X158390395Y-53975000D01*
X158749605Y-53975000D01*
X159562702Y-54788097D01*
X159806671Y-54716514D01*
X159927571Y-54461004D01*
X159953216Y-54358695D01*
X160036397Y-54591292D01*
X160103329Y-54716514D01*
X160347298Y-54788097D01*
X161160395Y-53975000D01*
X161519605Y-53975000D01*
X162332702Y-54788097D01*
X162576671Y-54716514D01*
X162697571Y-54461004D01*
X162723216Y-54358695D01*
X162806397Y-54591292D01*
X162873329Y-54716514D01*
X163117298Y-54788097D01*
X163930395Y-53975000D01*
X164289605Y-53975000D01*
X165102702Y-54788097D01*
X165346671Y-54716514D01*
X165467571Y-54461004D01*
X165493216Y-54358695D01*
X165576397Y-54591292D01*
X165643329Y-54716514D01*
X165887298Y-54788097D01*
X166700395Y-53975000D01*
X167059605Y-53975000D01*
X167872702Y-54788097D01*
X168116671Y-54716514D01*
X168237571Y-54461004D01*
X168263216Y-54358695D01*
X168346397Y-54591292D01*
X168413329Y-54716514D01*
X168657298Y-54788097D01*
X169470395Y-53975000D01*
X169829605Y-53975000D01*
X170642702Y-54788097D01*
X170886671Y-54716514D01*
X171007571Y-54461004D01*
X171076300Y-54186816D01*
X171090217Y-53904488D01*
X171048787Y-53624870D01*
X170953603Y-53358708D01*
X170886671Y-53233486D01*
X170642702Y-53161903D01*
X169829605Y-53975000D01*
X169470395Y-53975000D01*
X168657298Y-53161903D01*
X168413329Y-53233486D01*
X168292429Y-53488996D01*
X168266784Y-53591305D01*
X168183603Y-53358708D01*
X168116671Y-53233486D01*
X167872702Y-53161903D01*
X167059605Y-53975000D01*
X166700395Y-53975000D01*
X165887298Y-53161903D01*
X165643329Y-53233486D01*
X165522429Y-53488996D01*
X165496784Y-53591305D01*
X165413603Y-53358708D01*
X165346671Y-53233486D01*
X165102702Y-53161903D01*
X164289605Y-53975000D01*
X163930395Y-53975000D01*
X163117298Y-53161903D01*
X162873329Y-53233486D01*
X162752429Y-53488996D01*
X162726784Y-53591305D01*
X162643603Y-53358708D01*
X162576671Y-53233486D01*
X162332702Y-53161903D01*
X161519605Y-53975000D01*
X161160395Y-53975000D01*
X160347298Y-53161903D01*
X160103329Y-53233486D01*
X159982429Y-53488996D01*
X159956784Y-53591305D01*
X159873603Y-53358708D01*
X159806671Y-53233486D01*
X159562702Y-53161903D01*
X158749605Y-53975000D01*
X158390395Y-53975000D01*
X157577298Y-53161903D01*
X157333329Y-53233486D01*
X157212429Y-53488996D01*
X157186784Y-53591305D01*
X157103603Y-53358708D01*
X157036671Y-53233486D01*
X156792702Y-53161903D01*
X155979605Y-53975000D01*
X155620395Y-53975000D01*
X154807298Y-53161903D01*
X154563329Y-53233486D01*
X154442429Y-53488996D01*
X154416784Y-53591305D01*
X154333603Y-53358708D01*
X154266671Y-53233486D01*
X154022702Y-53161903D01*
X153209605Y-53975000D01*
X152850395Y-53975000D01*
X152037298Y-53161903D01*
X151793329Y-53233486D01*
X151672429Y-53488996D01*
X151646784Y-53591305D01*
X151563603Y-53358708D01*
X151496671Y-53233486D01*
X151252702Y-53161903D01*
X150439605Y-53975000D01*
X150080395Y-53975000D01*
X149267298Y-53161903D01*
X149023329Y-53233486D01*
X148902429Y-53488996D01*
X148876788Y-53591289D01*
X148869853Y-53556426D01*
X148761680Y-53295273D01*
X148604637Y-53060241D01*
X148526694Y-52982298D01*
X149446903Y-52982298D01*
X150260000Y-53795395D01*
X151073097Y-52982298D01*
X152216903Y-52982298D01*
X153030000Y-53795395D01*
X153843097Y-52982298D01*
X154986903Y-52982298D01*
X155800000Y-53795395D01*
X156613097Y-52982298D01*
X157756903Y-52982298D01*
X158570000Y-53795395D01*
X159383097Y-52982298D01*
X160526903Y-52982298D01*
X161340000Y-53795395D01*
X162153097Y-52982298D01*
X163296903Y-52982298D01*
X164110000Y-53795395D01*
X164923097Y-52982298D01*
X166066903Y-52982298D01*
X166880000Y-53795395D01*
X167693097Y-52982298D01*
X168836903Y-52982298D01*
X169650000Y-53795395D01*
X170463097Y-52982298D01*
X170391514Y-52738329D01*
X170136004Y-52617429D01*
X169861816Y-52548700D01*
X169579488Y-52534783D01*
X169299870Y-52576213D01*
X169033708Y-52671397D01*
X168908486Y-52738329D01*
X168836903Y-52982298D01*
X167693097Y-52982298D01*
X167621514Y-52738329D01*
X167366004Y-52617429D01*
X167091816Y-52548700D01*
X166809488Y-52534783D01*
X166529870Y-52576213D01*
X166263708Y-52671397D01*
X166138486Y-52738329D01*
X166066903Y-52982298D01*
X164923097Y-52982298D01*
X164851514Y-52738329D01*
X164596004Y-52617429D01*
X164321816Y-52548700D01*
X164039488Y-52534783D01*
X163759870Y-52576213D01*
X163493708Y-52671397D01*
X163368486Y-52738329D01*
X163296903Y-52982298D01*
X162153097Y-52982298D01*
X162081514Y-52738329D01*
X161826004Y-52617429D01*
X161551816Y-52548700D01*
X161269488Y-52534783D01*
X160989870Y-52576213D01*
X160723708Y-52671397D01*
X160598486Y-52738329D01*
X160526903Y-52982298D01*
X159383097Y-52982298D01*
X159311514Y-52738329D01*
X159056004Y-52617429D01*
X158781816Y-52548700D01*
X158499488Y-52534783D01*
X158219870Y-52576213D01*
X157953708Y-52671397D01*
X157828486Y-52738329D01*
X157756903Y-52982298D01*
X156613097Y-52982298D01*
X156541514Y-52738329D01*
X156286004Y-52617429D01*
X156011816Y-52548700D01*
X155729488Y-52534783D01*
X155449870Y-52576213D01*
X155183708Y-52671397D01*
X155058486Y-52738329D01*
X154986903Y-52982298D01*
X153843097Y-52982298D01*
X153771514Y-52738329D01*
X153516004Y-52617429D01*
X153241816Y-52548700D01*
X152959488Y-52534783D01*
X152679870Y-52576213D01*
X152413708Y-52671397D01*
X152288486Y-52738329D01*
X152216903Y-52982298D01*
X151073097Y-52982298D01*
X151001514Y-52738329D01*
X150746004Y-52617429D01*
X150471816Y-52548700D01*
X150189488Y-52534783D01*
X149909870Y-52576213D01*
X149643708Y-52671397D01*
X149518486Y-52738329D01*
X149446903Y-52982298D01*
X148526694Y-52982298D01*
X148404759Y-52860363D01*
X148169727Y-52703320D01*
X147908574Y-52595147D01*
X147631335Y-52540000D01*
X147348665Y-52540000D01*
X147071426Y-52595147D01*
X146810273Y-52703320D01*
X146575241Y-52860363D01*
X146375363Y-53060241D01*
X146218320Y-53295273D01*
X146110147Y-53556426D01*
X146105000Y-53582301D01*
X146099853Y-53556426D01*
X145991680Y-53295273D01*
X145834637Y-53060241D01*
X145634759Y-52860363D01*
X145399727Y-52703320D01*
X145138574Y-52595147D01*
X144861335Y-52540000D01*
X144578665Y-52540000D01*
X144301426Y-52595147D01*
X144040273Y-52703320D01*
X143805241Y-52860363D01*
X143605363Y-53060241D01*
X143448320Y-53295273D01*
X143340147Y-53556426D01*
X143335000Y-53582301D01*
X143329853Y-53556426D01*
X143221680Y-53295273D01*
X143064637Y-53060241D01*
X142864759Y-52860363D01*
X142629727Y-52703320D01*
X142368574Y-52595147D01*
X142091335Y-52540000D01*
X141808665Y-52540000D01*
X141531426Y-52595147D01*
X141270273Y-52703320D01*
X141035241Y-52860363D01*
X140835363Y-53060241D01*
X140678320Y-53295273D01*
X140570147Y-53556426D01*
X140565000Y-53582301D01*
X140559853Y-53556426D01*
X140451680Y-53295273D01*
X140294637Y-53060241D01*
X140094759Y-52860363D01*
X139859727Y-52703320D01*
X139598574Y-52595147D01*
X139321335Y-52540000D01*
X139038665Y-52540000D01*
X138761426Y-52595147D01*
X138500273Y-52703320D01*
X138265241Y-52860363D01*
X138065363Y-53060241D01*
X137908320Y-53295273D01*
X137800147Y-53556426D01*
X137745000Y-53833665D01*
X137745000Y-54116335D01*
X137800147Y-54393574D01*
X137908320Y-54654727D01*
X138065363Y-54889759D01*
X138252532Y-55076928D01*
X136995000Y-55076928D01*
X136870518Y-55089188D01*
X136750820Y-55125498D01*
X136640506Y-55184463D01*
X136543815Y-55263815D01*
X136464463Y-55360506D01*
X136405498Y-55470820D01*
X136369188Y-55590518D01*
X136356928Y-55715000D01*
X127025000Y-55715000D01*
X127025000Y-48674872D01*
X128575000Y-48674872D01*
X128575000Y-49115128D01*
X128660890Y-49546925D01*
X128829369Y-49953669D01*
X129073962Y-50319729D01*
X129385271Y-50631038D01*
X129751331Y-50875631D01*
X130158075Y-51044110D01*
X130589872Y-51130000D01*
X131030128Y-51130000D01*
X131461925Y-51044110D01*
X131868669Y-50875631D01*
X132234729Y-50631038D01*
X132546038Y-50319729D01*
X132790631Y-49953669D01*
X132959110Y-49546925D01*
X133045000Y-49115128D01*
X133045000Y-48674872D01*
X175565000Y-48674872D01*
X175565000Y-49115128D01*
X175650890Y-49546925D01*
X175819369Y-49953669D01*
X176063962Y-50319729D01*
X176375271Y-50631038D01*
X176741331Y-50875631D01*
X177148075Y-51044110D01*
X177579872Y-51130000D01*
X178020128Y-51130000D01*
X178451925Y-51044110D01*
X178858669Y-50875631D01*
X179224729Y-50631038D01*
X179536038Y-50319729D01*
X179780631Y-49953669D01*
X179949110Y-49546925D01*
X180035000Y-49115128D01*
X180035000Y-48674872D01*
X179949110Y-48243075D01*
X179780631Y-47836331D01*
X179536038Y-47470271D01*
X179224729Y-47158962D01*
X178858669Y-46914369D01*
X178451925Y-46745890D01*
X178020128Y-46660000D01*
X177579872Y-46660000D01*
X177148075Y-46745890D01*
X176741331Y-46914369D01*
X176375271Y-47158962D01*
X176063962Y-47470271D01*
X175819369Y-47836331D01*
X175650890Y-48243075D01*
X175565000Y-48674872D01*
X133045000Y-48674872D01*
X132959110Y-48243075D01*
X132790631Y-47836331D01*
X132546038Y-47470271D01*
X132234729Y-47158962D01*
X131868669Y-46914369D01*
X131461925Y-46745890D01*
X131030128Y-46660000D01*
X130589872Y-46660000D01*
X130158075Y-46745890D01*
X129751331Y-46914369D01*
X129385271Y-47158962D01*
X129073962Y-47470271D01*
X128829369Y-47836331D01*
X128660890Y-48243075D01*
X128575000Y-48674872D01*
X127025000Y-48674872D01*
X127025000Y-45110000D01*
X181585001Y-45110000D01*
X181585000Y-105377721D01*
G37*
X181585000Y-105377721D02*
X181546091Y-105774545D01*
X181440220Y-106125206D01*
X181268257Y-106448623D01*
X181036748Y-106732482D01*
X180754514Y-106965965D01*
X180432304Y-107140184D01*
X180082385Y-107248502D01*
X179687557Y-107290000D01*
X128937279Y-107290000D01*
X128540455Y-107251091D01*
X128189794Y-107145220D01*
X127866377Y-106973257D01*
X127582518Y-106741748D01*
X127349035Y-106459514D01*
X127174816Y-106137304D01*
X127066498Y-105787385D01*
X127025000Y-105392557D01*
X127025000Y-103284872D01*
X128575000Y-103284872D01*
X128575000Y-103725128D01*
X128660890Y-104156925D01*
X128829369Y-104563669D01*
X129073962Y-104929729D01*
X129385271Y-105241038D01*
X129751331Y-105485631D01*
X130158075Y-105654110D01*
X130589872Y-105740000D01*
X131030128Y-105740000D01*
X131461925Y-105654110D01*
X131868669Y-105485631D01*
X132234729Y-105241038D01*
X132546038Y-104929729D01*
X132790631Y-104563669D01*
X132959110Y-104156925D01*
X133045000Y-103725128D01*
X133045000Y-103284872D01*
X175565000Y-103284872D01*
X175565000Y-103725128D01*
X175650890Y-104156925D01*
X175819369Y-104563669D01*
X176063962Y-104929729D01*
X176375271Y-105241038D01*
X176741331Y-105485631D01*
X177148075Y-105654110D01*
X177579872Y-105740000D01*
X178020128Y-105740000D01*
X178451925Y-105654110D01*
X178858669Y-105485631D01*
X179224729Y-105241038D01*
X179536038Y-104929729D01*
X179780631Y-104563669D01*
X179949110Y-104156925D01*
X180035000Y-103725128D01*
X180035000Y-103284872D01*
X179949110Y-102853075D01*
X179780631Y-102446331D01*
X179536038Y-102080271D01*
X179224729Y-101768962D01*
X178858669Y-101524369D01*
X178451925Y-101355890D01*
X178020128Y-101270000D01*
X177579872Y-101270000D01*
X177148075Y-101355890D01*
X176741331Y-101524369D01*
X176375271Y-101768962D01*
X176063962Y-102080271D01*
X175819369Y-102446331D01*
X175650890Y-102853075D01*
X175565000Y-103284872D01*
X133045000Y-103284872D01*
X132959110Y-102853075D01*
X132790631Y-102446331D01*
X132546038Y-102080271D01*
X132234729Y-101768962D01*
X131868669Y-101524369D01*
X131461925Y-101355890D01*
X131030128Y-101270000D01*
X130589872Y-101270000D01*
X130158075Y-101355890D01*
X129751331Y-101524369D01*
X129385271Y-101768962D01*
X129073962Y-102080271D01*
X128829369Y-102446331D01*
X128660890Y-102853075D01*
X128575000Y-103284872D01*
X127025000Y-103284872D01*
X127025000Y-78608514D01*
X134301000Y-78608514D01*
X134301000Y-78871486D01*
X134352304Y-79129405D01*
X134452939Y-79372359D01*
X134599038Y-79591013D01*
X134784987Y-79776962D01*
X135003641Y-79923061D01*
X135028294Y-79933273D01*
X134976226Y-79968063D01*
X134832063Y-80112226D01*
X134718795Y-80281744D01*
X134640774Y-80470102D01*
X134601000Y-80670061D01*
X134601000Y-80873939D01*
X134640774Y-81073898D01*
X134718795Y-81262256D01*
X134832063Y-81431774D01*
X134976226Y-81575937D01*
X135145744Y-81689205D01*
X135334102Y-81767226D01*
X135534061Y-81807000D01*
X135596199Y-81807000D01*
X136705202Y-82916004D01*
X136729000Y-82945002D01*
X136844725Y-83039975D01*
X136976754Y-83110547D01*
X137120015Y-83154004D01*
X137231668Y-83165001D01*
X137231677Y-83165001D01*
X137269000Y-83168677D01*
X137306323Y-83165001D01*
X144768077Y-83165001D01*
X144670147Y-83401426D01*
X144615000Y-83678665D01*
X144615000Y-83961335D01*
X144670147Y-84238574D01*
X144778320Y-84499727D01*
X144935363Y-84734759D01*
X145135241Y-84934637D01*
X145367759Y-85090000D01*
X145135241Y-85245363D01*
X144935363Y-85445241D01*
X144778320Y-85680273D01*
X144670147Y-85941426D01*
X144615000Y-86218665D01*
X144615000Y-86501335D01*
X144670147Y-86778574D01*
X144778320Y-87039727D01*
X144935363Y-87274759D01*
X145135241Y-87474637D01*
X145367759Y-87630000D01*
X145135241Y-87785363D01*
X144935363Y-87985241D01*
X144778320Y-88220273D01*
X144670147Y-88481426D01*
X144615000Y-88758665D01*
X144615000Y-89041335D01*
X144670147Y-89318574D01*
X144778320Y-89579727D01*
X144935363Y-89814759D01*
X145135241Y-90014637D01*
X145367759Y-90170000D01*
X145135241Y-90325363D01*
X144935363Y-90525241D01*
X144778320Y-90760273D01*
X144670147Y-91021426D01*
X144615000Y-91298665D01*
X144615000Y-91581335D01*
X144670147Y-91858574D01*
X144778320Y-92119727D01*
X144935363Y-92354759D01*
X145135241Y-92554637D01*
X145367759Y-92710000D01*
X145135241Y-92865363D01*
X144935363Y-93065241D01*
X144778320Y-93300273D01*
X144670147Y-93561426D01*
X144615000Y-93838665D01*
X144615000Y-94121335D01*
X144670147Y-94398574D01*
X144778320Y-94659727D01*
X144935363Y-94894759D01*
X145135241Y-95094637D01*
X145367759Y-95250000D01*
X145135241Y-95405363D01*
X144935363Y-95605241D01*
X144778320Y-95840273D01*
X144670147Y-96101426D01*
X144615000Y-96378665D01*
X144615000Y-96661335D01*
X144670147Y-96938574D01*
X144778320Y-97199727D01*
X144935363Y-97434759D01*
X145135241Y-97634637D01*
X145367759Y-97790000D01*
X145135241Y-97945363D01*
X144935363Y-98145241D01*
X144778320Y-98380273D01*
X144670147Y-98641426D01*
X144615000Y-98918665D01*
X144615000Y-99201335D01*
X144670147Y-99478574D01*
X144778320Y-99739727D01*
X144935363Y-99974759D01*
X145135241Y-100174637D01*
X145367759Y-100330000D01*
X145135241Y-100485363D01*
X144935363Y-100685241D01*
X144778320Y-100920273D01*
X144670147Y-101181426D01*
X144615000Y-101458665D01*
X144615000Y-101741335D01*
X144670147Y-102018574D01*
X144778320Y-102279727D01*
X144935363Y-102514759D01*
X145135241Y-102714637D01*
X145370273Y-102871680D01*
X145631426Y-102979853D01*
X145908665Y-103035000D01*
X146191335Y-103035000D01*
X146468574Y-102979853D01*
X146729727Y-102871680D01*
X146964759Y-102714637D01*
X147164637Y-102514759D01*
X147321680Y-102279727D01*
X147429853Y-102018574D01*
X147485000Y-101741335D01*
X147485000Y-101458665D01*
X147429853Y-101181426D01*
X147321680Y-100920273D01*
X147164637Y-100685241D01*
X146964759Y-100485363D01*
X146732241Y-100330000D01*
X146964759Y-100174637D01*
X147164637Y-99974759D01*
X147321680Y-99739727D01*
X147429853Y-99478574D01*
X147485000Y-99201335D01*
X147485000Y-98918665D01*
X147429853Y-98641426D01*
X147321680Y-98380273D01*
X147164637Y-98145241D01*
X146964759Y-97945363D01*
X146732241Y-97790000D01*
X146964759Y-97634637D01*
X147164637Y-97434759D01*
X147321680Y-97199727D01*
X147429853Y-96938574D01*
X147485000Y-96661335D01*
X147485000Y-96378665D01*
X147429853Y-96101426D01*
X147321680Y-95840273D01*
X147164637Y-95605241D01*
X146964759Y-95405363D01*
X146732241Y-95250000D01*
X146964759Y-95094637D01*
X147164637Y-94894759D01*
X147321680Y-94659727D01*
X147429853Y-94398574D01*
X147485000Y-94121335D01*
X147485000Y-93838665D01*
X147429853Y-93561426D01*
X147321680Y-93300273D01*
X147164637Y-93065241D01*
X146964759Y-92865363D01*
X146732241Y-92710000D01*
X146964759Y-92554637D01*
X147164637Y-92354759D01*
X147321680Y-92119727D01*
X147429853Y-91858574D01*
X147485000Y-91581335D01*
X147485000Y-91298665D01*
X147429853Y-91021426D01*
X147321680Y-90760273D01*
X147164637Y-90525241D01*
X146964759Y-90325363D01*
X146732241Y-90170000D01*
X146964759Y-90014637D01*
X147164637Y-89814759D01*
X147321680Y-89579727D01*
X147429853Y-89318574D01*
X147485000Y-89041335D01*
X147485000Y-88758665D01*
X147429853Y-88481426D01*
X147321680Y-88220273D01*
X147164637Y-87985241D01*
X146964759Y-87785363D01*
X146732241Y-87630000D01*
X146964759Y-87474637D01*
X147164637Y-87274759D01*
X147321680Y-87039727D01*
X147429853Y-86778574D01*
X147485000Y-86501335D01*
X147485000Y-86218665D01*
X147429853Y-85941426D01*
X147321680Y-85680273D01*
X147164637Y-85445241D01*
X146964759Y-85245363D01*
X146732241Y-85090000D01*
X146964759Y-84934637D01*
X147164637Y-84734759D01*
X147321680Y-84499727D01*
X147429853Y-84238574D01*
X147485000Y-83961335D01*
X147485000Y-83678665D01*
X147429853Y-83401426D01*
X147331923Y-83165001D01*
X150475677Y-83165001D01*
X150512999Y-83168677D01*
X150550321Y-83165001D01*
X150550332Y-83165001D01*
X150661985Y-83154004D01*
X150805246Y-83110547D01*
X150937275Y-83039975D01*
X151053000Y-82945002D01*
X151076803Y-82915998D01*
X159297802Y-74695000D01*
X159359939Y-74695000D01*
X159559898Y-74655226D01*
X159748256Y-74577205D01*
X159917774Y-74463937D01*
X160027798Y-74353913D01*
X160175363Y-74574759D01*
X160375241Y-74774637D01*
X160607759Y-74930000D01*
X160375241Y-75085363D01*
X160175363Y-75285241D01*
X160018320Y-75520273D01*
X159910147Y-75781426D01*
X159855000Y-76058665D01*
X159855000Y-76341335D01*
X159910147Y-76618574D01*
X160018320Y-76879727D01*
X160175363Y-77114759D01*
X160375241Y-77314637D01*
X160607759Y-77470000D01*
X160375241Y-77625363D01*
X160175363Y-77825241D01*
X160018320Y-78060273D01*
X159910147Y-78321426D01*
X159855000Y-78598665D01*
X159855000Y-78881335D01*
X159910147Y-79158574D01*
X160018320Y-79419727D01*
X160175363Y-79654759D01*
X160375241Y-79854637D01*
X160607759Y-80010000D01*
X160375241Y-80165363D01*
X160175363Y-80365241D01*
X160018320Y-80600273D01*
X159910147Y-80861426D01*
X159855000Y-81138665D01*
X159855000Y-81421335D01*
X159910147Y-81698574D01*
X160018320Y-81959727D01*
X160175363Y-82194759D01*
X160375241Y-82394637D01*
X160607759Y-82550000D01*
X160375241Y-82705363D01*
X160175363Y-82905241D01*
X160018320Y-83140273D01*
X159910147Y-83401426D01*
X159855000Y-83678665D01*
X159855000Y-83961335D01*
X159910147Y-84238574D01*
X160018320Y-84499727D01*
X160175363Y-84734759D01*
X160375241Y-84934637D01*
X160607759Y-85090000D01*
X160375241Y-85245363D01*
X160175363Y-85445241D01*
X160018320Y-85680273D01*
X159910147Y-85941426D01*
X159855000Y-86218665D01*
X159855000Y-86501335D01*
X159910147Y-86778574D01*
X160018320Y-87039727D01*
X160175363Y-87274759D01*
X160375241Y-87474637D01*
X160607759Y-87630000D01*
X160375241Y-87785363D01*
X160175363Y-87985241D01*
X160018320Y-88220273D01*
X159910147Y-88481426D01*
X159855000Y-88758665D01*
X159855000Y-89041335D01*
X159910147Y-89318574D01*
X160018320Y-89579727D01*
X160175363Y-89814759D01*
X160375241Y-90014637D01*
X160607759Y-90170000D01*
X160375241Y-90325363D01*
X160175363Y-90525241D01*
X160018320Y-90760273D01*
X159910147Y-91021426D01*
X159855000Y-91298665D01*
X159855000Y-91581335D01*
X159910147Y-91858574D01*
X160018320Y-92119727D01*
X160175363Y-92354759D01*
X160375241Y-92554637D01*
X160607759Y-92710000D01*
X160375241Y-92865363D01*
X160175363Y-93065241D01*
X160018320Y-93300273D01*
X159910147Y-93561426D01*
X159855000Y-93838665D01*
X159855000Y-94121335D01*
X159910147Y-94398574D01*
X160018320Y-94659727D01*
X160175363Y-94894759D01*
X160375241Y-95094637D01*
X160607759Y-95250000D01*
X160375241Y-95405363D01*
X160175363Y-95605241D01*
X160018320Y-95840273D01*
X159910147Y-96101426D01*
X159855000Y-96378665D01*
X159855000Y-96661335D01*
X159910147Y-96938574D01*
X160018320Y-97199727D01*
X160175363Y-97434759D01*
X160375241Y-97634637D01*
X160607759Y-97790000D01*
X160375241Y-97945363D01*
X160175363Y-98145241D01*
X160018320Y-98380273D01*
X159910147Y-98641426D01*
X159855000Y-98918665D01*
X159855000Y-99201335D01*
X159910147Y-99478574D01*
X160018320Y-99739727D01*
X160175363Y-99974759D01*
X160375241Y-100174637D01*
X160607759Y-100330000D01*
X160375241Y-100485363D01*
X160175363Y-100685241D01*
X160018320Y-100920273D01*
X159910147Y-101181426D01*
X159855000Y-101458665D01*
X159855000Y-101741335D01*
X159910147Y-102018574D01*
X160018320Y-102279727D01*
X160175363Y-102514759D01*
X160375241Y-102714637D01*
X160610273Y-102871680D01*
X160871426Y-102979853D01*
X161148665Y-103035000D01*
X161431335Y-103035000D01*
X161708574Y-102979853D01*
X161969727Y-102871680D01*
X162204759Y-102714637D01*
X162404637Y-102514759D01*
X162561680Y-102279727D01*
X162669853Y-102018574D01*
X162725000Y-101741335D01*
X162725000Y-101458665D01*
X162669853Y-101181426D01*
X162561680Y-100920273D01*
X162404637Y-100685241D01*
X162204759Y-100485363D01*
X161972241Y-100330000D01*
X162204759Y-100174637D01*
X162404637Y-99974759D01*
X162561680Y-99739727D01*
X162669853Y-99478574D01*
X162725000Y-99201335D01*
X162725000Y-98918665D01*
X162669853Y-98641426D01*
X162561680Y-98380273D01*
X162404637Y-98145241D01*
X162204759Y-97945363D01*
X161972241Y-97790000D01*
X162204759Y-97634637D01*
X162404637Y-97434759D01*
X162561680Y-97199727D01*
X162669853Y-96938574D01*
X162725000Y-96661335D01*
X162725000Y-96378665D01*
X162669853Y-96101426D01*
X162561680Y-95840273D01*
X162404637Y-95605241D01*
X162204759Y-95405363D01*
X161972241Y-95250000D01*
X162204759Y-95094637D01*
X162404637Y-94894759D01*
X162561680Y-94659727D01*
X162669853Y-94398574D01*
X162725000Y-94121335D01*
X162725000Y-93838665D01*
X162669853Y-93561426D01*
X162561680Y-93300273D01*
X162404637Y-93065241D01*
X162204759Y-92865363D01*
X161972241Y-92710000D01*
X162204759Y-92554637D01*
X162404637Y-92354759D01*
X162561680Y-92119727D01*
X162669853Y-91858574D01*
X162725000Y-91581335D01*
X162725000Y-91298665D01*
X162669853Y-91021426D01*
X162561680Y-90760273D01*
X162404637Y-90525241D01*
X162204759Y-90325363D01*
X161972241Y-90170000D01*
X162204759Y-90014637D01*
X162404637Y-89814759D01*
X162561680Y-89579727D01*
X162669853Y-89318574D01*
X162725000Y-89041335D01*
X162725000Y-88758665D01*
X162669853Y-88481426D01*
X162561680Y-88220273D01*
X162404637Y-87985241D01*
X162204759Y-87785363D01*
X161972241Y-87630000D01*
X162204759Y-87474637D01*
X162404637Y-87274759D01*
X162561680Y-87039727D01*
X162669853Y-86778574D01*
X162725000Y-86501335D01*
X162725000Y-86218665D01*
X162669853Y-85941426D01*
X162561680Y-85680273D01*
X162404637Y-85445241D01*
X162204759Y-85245363D01*
X161972241Y-85090000D01*
X162204759Y-84934637D01*
X162404637Y-84734759D01*
X162561680Y-84499727D01*
X162669853Y-84238574D01*
X162725000Y-83961335D01*
X162725000Y-83678665D01*
X162669853Y-83401426D01*
X162561680Y-83140273D01*
X162404637Y-82905241D01*
X162204759Y-82705363D01*
X161972241Y-82550000D01*
X162204759Y-82394637D01*
X162404637Y-82194759D01*
X162561680Y-81959727D01*
X162669853Y-81698574D01*
X162725000Y-81421335D01*
X162725000Y-81138665D01*
X162669853Y-80861426D01*
X162561680Y-80600273D01*
X162404637Y-80365241D01*
X162204759Y-80165363D01*
X161972241Y-80010000D01*
X162204759Y-79854637D01*
X162404637Y-79654759D01*
X162561680Y-79419727D01*
X162669853Y-79158574D01*
X162725000Y-78881335D01*
X162725000Y-78598665D01*
X162669853Y-78321426D01*
X162561680Y-78060273D01*
X162404637Y-77825241D01*
X162204759Y-77625363D01*
X161972241Y-77470000D01*
X162204759Y-77314637D01*
X162404637Y-77114759D01*
X162561680Y-76879727D01*
X162669853Y-76618574D01*
X162725000Y-76341335D01*
X162725000Y-76058665D01*
X162669853Y-75781426D01*
X162561680Y-75520273D01*
X162404637Y-75285241D01*
X162204759Y-75085363D01*
X161972241Y-74930000D01*
X162204759Y-74774637D01*
X162404637Y-74574759D01*
X162561680Y-74339727D01*
X162669853Y-74078574D01*
X162725000Y-73801335D01*
X162725000Y-73518665D01*
X162669853Y-73241426D01*
X162561680Y-72980273D01*
X162404637Y-72745241D01*
X162204759Y-72545363D01*
X161972241Y-72390000D01*
X162204759Y-72234637D01*
X162404637Y-72034759D01*
X162561680Y-71799727D01*
X162669853Y-71538574D01*
X162725000Y-71261335D01*
X162725000Y-70978665D01*
X162669853Y-70701426D01*
X162561680Y-70440273D01*
X162404637Y-70205241D01*
X162204759Y-70005363D01*
X161972241Y-69850000D01*
X162204759Y-69694637D01*
X162404637Y-69494759D01*
X162561680Y-69259727D01*
X162669853Y-68998574D01*
X162725000Y-68721335D01*
X162725000Y-68438665D01*
X162669853Y-68161426D01*
X162561680Y-67900273D01*
X162404637Y-67665241D01*
X162204759Y-67465363D01*
X161972241Y-67310000D01*
X162204759Y-67154637D01*
X162404637Y-66954759D01*
X162561680Y-66719727D01*
X162669853Y-66458574D01*
X162725000Y-66181335D01*
X162725000Y-65898665D01*
X162669853Y-65621426D01*
X162561680Y-65360273D01*
X162404637Y-65125241D01*
X162204759Y-64925363D01*
X161969727Y-64768320D01*
X161708574Y-64660147D01*
X161431335Y-64605000D01*
X161148665Y-64605000D01*
X160871426Y-64660147D01*
X160610273Y-64768320D01*
X160375241Y-64925363D01*
X160175363Y-65125241D01*
X160018320Y-65360273D01*
X159910147Y-65621426D01*
X159855000Y-65898665D01*
X159855000Y-66181335D01*
X159910147Y-66458574D01*
X160018320Y-66719727D01*
X160175363Y-66954759D01*
X160375241Y-67154637D01*
X160607759Y-67310000D01*
X160375241Y-67465363D01*
X160175363Y-67665241D01*
X160018320Y-67900273D01*
X159910147Y-68161426D01*
X159855000Y-68438665D01*
X159855000Y-68721335D01*
X159910147Y-68998574D01*
X160018320Y-69259727D01*
X160175363Y-69494759D01*
X160375241Y-69694637D01*
X160607759Y-69850000D01*
X160375241Y-70005363D01*
X160175363Y-70205241D01*
X160018320Y-70440273D01*
X159910147Y-70701426D01*
X159855000Y-70978665D01*
X159855000Y-71261335D01*
X159910147Y-71538574D01*
X160018320Y-71799727D01*
X160175363Y-72034759D01*
X160375241Y-72234637D01*
X160607759Y-72390000D01*
X160375241Y-72545363D01*
X160175363Y-72745241D01*
X160027798Y-72966087D01*
X159917774Y-72856063D01*
X159748256Y-72742795D01*
X159559898Y-72664774D01*
X159359939Y-72625000D01*
X159156061Y-72625000D01*
X158956102Y-72664774D01*
X158767744Y-72742795D01*
X158598226Y-72856063D01*
X158454063Y-73000226D01*
X158340795Y-73169744D01*
X158262774Y-73358102D01*
X158223000Y-73558061D01*
X158223000Y-73620198D01*
X150198198Y-81645001D01*
X147440509Y-81645001D01*
X147485000Y-81421335D01*
X147485000Y-81138665D01*
X147429853Y-80861426D01*
X147321680Y-80600273D01*
X147164637Y-80365241D01*
X146964759Y-80165363D01*
X146732241Y-80010000D01*
X146964759Y-79854637D01*
X147164637Y-79654759D01*
X147321680Y-79419727D01*
X147429853Y-79158574D01*
X147485000Y-78881335D01*
X147485000Y-78598665D01*
X147429853Y-78321426D01*
X147321680Y-78060273D01*
X147164637Y-77825241D01*
X146964759Y-77625363D01*
X146732241Y-77470000D01*
X146964759Y-77314637D01*
X147164637Y-77114759D01*
X147321680Y-76879727D01*
X147429853Y-76618574D01*
X147485000Y-76341335D01*
X147485000Y-76058665D01*
X147429853Y-75781426D01*
X147321680Y-75520273D01*
X147164637Y-75285241D01*
X146964759Y-75085363D01*
X146729727Y-74928320D01*
X146719135Y-74923933D01*
X146905131Y-74812385D01*
X147113519Y-74623414D01*
X147281037Y-74397420D01*
X147401246Y-74143087D01*
X147441904Y-74009039D01*
X147319915Y-73787000D01*
X146177000Y-73787000D01*
X146177000Y-73807000D01*
X145923000Y-73807000D01*
X145923000Y-73787000D01*
X144780085Y-73787000D01*
X144658096Y-74009039D01*
X144698754Y-74143087D01*
X144818963Y-74397420D01*
X144986481Y-74623414D01*
X145194869Y-74812385D01*
X145380865Y-74923933D01*
X145370273Y-74928320D01*
X145135241Y-75085363D01*
X144935363Y-75285241D01*
X144778320Y-75520273D01*
X144670147Y-75781426D01*
X144615000Y-76058665D01*
X144615000Y-76341335D01*
X144670147Y-76618574D01*
X144778320Y-76879727D01*
X144935363Y-77114759D01*
X145135241Y-77314637D01*
X145367759Y-77470000D01*
X145135241Y-77625363D01*
X144935363Y-77825241D01*
X144778320Y-78060273D01*
X144670147Y-78321426D01*
X144615000Y-78598665D01*
X144615000Y-78881335D01*
X144670147Y-79158574D01*
X144778320Y-79419727D01*
X144935363Y-79654759D01*
X145135241Y-79854637D01*
X145367759Y-80010000D01*
X145135241Y-80165363D01*
X144935363Y-80365241D01*
X144778320Y-80600273D01*
X144670147Y-80861426D01*
X144615000Y-81138665D01*
X144615000Y-81421335D01*
X144659491Y-81645001D01*
X137583803Y-81645001D01*
X136671000Y-80732199D01*
X136671000Y-80670061D01*
X136631226Y-80470102D01*
X136553205Y-80281744D01*
X136439937Y-80112226D01*
X136295774Y-79968063D01*
X136243706Y-79933273D01*
X136268359Y-79923061D01*
X136487013Y-79776962D01*
X136672962Y-79591013D01*
X136779000Y-79432315D01*
X136885038Y-79591013D01*
X137070987Y-79776962D01*
X137289641Y-79923061D01*
X137532595Y-80023696D01*
X137790514Y-80075000D01*
X138053486Y-80075000D01*
X138311405Y-80023696D01*
X138554359Y-79923061D01*
X138773013Y-79776962D01*
X138958962Y-79591013D01*
X139105061Y-79372359D01*
X139205696Y-79129405D01*
X139257000Y-78871486D01*
X139257000Y-78608514D01*
X139205696Y-78350595D01*
X139105061Y-78107641D01*
X138958962Y-77888987D01*
X138773013Y-77703038D01*
X138554359Y-77556939D01*
X138311405Y-77456304D01*
X138053486Y-77405000D01*
X137790514Y-77405000D01*
X137532595Y-77456304D01*
X137289641Y-77556939D01*
X137070987Y-77703038D01*
X136885038Y-77888987D01*
X136779000Y-78047685D01*
X136672962Y-77888987D01*
X136487013Y-77703038D01*
X136268359Y-77556939D01*
X136025405Y-77456304D01*
X135767486Y-77405000D01*
X135504514Y-77405000D01*
X135246595Y-77456304D01*
X135003641Y-77556939D01*
X134784987Y-77703038D01*
X134599038Y-77888987D01*
X134452939Y-78107641D01*
X134352304Y-78350595D01*
X134301000Y-78608514D01*
X127025000Y-78608514D01*
X127025000Y-73528514D01*
X134301000Y-73528514D01*
X134301000Y-73791486D01*
X134352304Y-74049405D01*
X134452939Y-74292359D01*
X134599038Y-74511013D01*
X134784987Y-74696962D01*
X135003641Y-74843061D01*
X135246595Y-74943696D01*
X135504514Y-74995000D01*
X135767486Y-74995000D01*
X136025405Y-74943696D01*
X136268359Y-74843061D01*
X136487013Y-74696962D01*
X136672962Y-74511013D01*
X136779000Y-74352315D01*
X136885038Y-74511013D01*
X137070987Y-74696962D01*
X137289641Y-74843061D01*
X137532595Y-74943696D01*
X137790514Y-74995000D01*
X138053486Y-74995000D01*
X138311405Y-74943696D01*
X138554359Y-74843061D01*
X138773013Y-74696962D01*
X138958962Y-74511013D01*
X139105061Y-74292359D01*
X139205696Y-74049405D01*
X139257000Y-73791486D01*
X139257000Y-73528514D01*
X139205696Y-73270595D01*
X139105061Y-73027641D01*
X138958962Y-72808987D01*
X138773013Y-72623038D01*
X138554359Y-72476939D01*
X138311405Y-72376304D01*
X138053486Y-72325000D01*
X137790514Y-72325000D01*
X137532595Y-72376304D01*
X137289641Y-72476939D01*
X137070987Y-72623038D01*
X136885038Y-72808987D01*
X136779000Y-72967685D01*
X136672962Y-72808987D01*
X136487013Y-72623038D01*
X136268359Y-72476939D01*
X136025405Y-72376304D01*
X135767486Y-72325000D01*
X135504514Y-72325000D01*
X135246595Y-72376304D01*
X135003641Y-72476939D01*
X134784987Y-72623038D01*
X134599038Y-72808987D01*
X134452939Y-73027641D01*
X134352304Y-73270595D01*
X134301000Y-73528514D01*
X127025000Y-73528514D01*
X127025000Y-69060021D01*
X134984000Y-69060021D01*
X134984000Y-69623978D01*
X135000785Y-69794399D01*
X135067115Y-70013059D01*
X135174829Y-70214578D01*
X135319788Y-70391212D01*
X135496421Y-70536171D01*
X135697940Y-70643885D01*
X135916600Y-70710215D01*
X136144000Y-70732612D01*
X136371399Y-70710215D01*
X136590059Y-70643885D01*
X136779000Y-70542894D01*
X136967940Y-70643885D01*
X137186600Y-70710215D01*
X137414000Y-70732612D01*
X137641399Y-70710215D01*
X137850098Y-70646907D01*
X137914820Y-70681502D01*
X138034518Y-70717812D01*
X138159000Y-70730072D01*
X138398250Y-70727000D01*
X138557000Y-70568250D01*
X138557000Y-69795109D01*
X138557215Y-69794400D01*
X138574000Y-69623979D01*
X138574000Y-69469000D01*
X138811000Y-69469000D01*
X138811000Y-70568250D01*
X138969750Y-70727000D01*
X139209000Y-70730072D01*
X139333482Y-70717812D01*
X139453180Y-70681502D01*
X139563494Y-70622537D01*
X139660185Y-70543185D01*
X139739537Y-70446494D01*
X139798502Y-70336180D01*
X139834812Y-70216482D01*
X139847072Y-70092000D01*
X139844000Y-69627750D01*
X139685250Y-69469000D01*
X138811000Y-69469000D01*
X138574000Y-69469000D01*
X138574000Y-69060022D01*
X138557215Y-68889601D01*
X138557000Y-68888892D01*
X138557000Y-68115750D01*
X138811000Y-68115750D01*
X138811000Y-69215000D01*
X139685250Y-69215000D01*
X139844000Y-69056250D01*
X139847072Y-68592000D01*
X139834812Y-68467518D01*
X139798502Y-68347820D01*
X139739537Y-68237506D01*
X139660185Y-68140815D01*
X139563494Y-68061463D01*
X139453180Y-68002498D01*
X139333482Y-67966188D01*
X139209000Y-67953928D01*
X138969750Y-67957000D01*
X138811000Y-68115750D01*
X138557000Y-68115750D01*
X138398250Y-67957000D01*
X138159000Y-67953928D01*
X138034518Y-67966188D01*
X137914820Y-68002498D01*
X137850098Y-68037093D01*
X137641400Y-67973785D01*
X137414000Y-67951388D01*
X137186601Y-67973785D01*
X136967941Y-68040115D01*
X136779001Y-68141106D01*
X136590060Y-68040115D01*
X136371400Y-67973785D01*
X136144000Y-67951388D01*
X135916601Y-67973785D01*
X135697941Y-68040115D01*
X135496422Y-68147829D01*
X135319789Y-68292788D01*
X135174830Y-68469421D01*
X135067115Y-68670940D01*
X135000785Y-68889600D01*
X134984000Y-69060021D01*
X127025000Y-69060021D01*
X127025000Y-63894600D01*
X130223628Y-63894600D01*
X130223628Y-65594600D01*
X130235888Y-65719082D01*
X130272198Y-65838780D01*
X130331163Y-65949094D01*
X130410515Y-66045785D01*
X130507206Y-66125137D01*
X130617520Y-66184102D01*
X130737218Y-66220412D01*
X130861700Y-66232672D01*
X132561700Y-66232672D01*
X132686182Y-66220412D01*
X132805880Y-66184102D01*
X132916194Y-66125137D01*
X133012885Y-66045785D01*
X133092237Y-65949094D01*
X133151202Y-65838780D01*
X133187512Y-65719082D01*
X133199772Y-65594600D01*
X133199772Y-63894600D01*
X133187512Y-63770118D01*
X133151202Y-63650420D01*
X133092237Y-63540106D01*
X133012885Y-63443415D01*
X132916194Y-63364063D01*
X132805880Y-63305098D01*
X132733320Y-63283087D01*
X132865175Y-63151232D01*
X133027690Y-62908011D01*
X133139632Y-62637758D01*
X133196700Y-62350860D01*
X133196700Y-62058340D01*
X133139632Y-61771442D01*
X133027690Y-61501189D01*
X132865175Y-61257968D01*
X132658332Y-61051125D01*
X132483940Y-60934600D01*
X132658332Y-60818075D01*
X132865175Y-60611232D01*
X133027690Y-60368011D01*
X133139632Y-60097758D01*
X133196700Y-59810860D01*
X133196700Y-59518340D01*
X133139632Y-59231442D01*
X133027690Y-58961189D01*
X132946715Y-58840000D01*
X133893928Y-58840000D01*
X133893928Y-60540000D01*
X133906188Y-60664482D01*
X133942498Y-60784180D01*
X134001463Y-60894494D01*
X134080815Y-60991185D01*
X134177506Y-61070537D01*
X134287820Y-61129502D01*
X134360380Y-61151513D01*
X134228525Y-61283368D01*
X134066010Y-61526589D01*
X133954068Y-61796842D01*
X133897000Y-62083740D01*
X133897000Y-62376260D01*
X133954068Y-62663158D01*
X134066010Y-62933411D01*
X134228525Y-63176632D01*
X134435368Y-63383475D01*
X134609760Y-63500000D01*
X134435368Y-63616525D01*
X134228525Y-63823368D01*
X134066010Y-64066589D01*
X133954068Y-64336842D01*
X133897000Y-64623740D01*
X133897000Y-64916260D01*
X133954068Y-65203158D01*
X134066010Y-65473411D01*
X134228525Y-65716632D01*
X134435368Y-65923475D01*
X134678589Y-66085990D01*
X134948842Y-66197932D01*
X135235740Y-66255000D01*
X135528260Y-66255000D01*
X135815158Y-66197932D01*
X136085411Y-66085990D01*
X136328632Y-65923475D01*
X136535475Y-65716632D01*
X136697990Y-65473411D01*
X136809932Y-65203158D01*
X136867000Y-64916260D01*
X136867000Y-64623740D01*
X136809932Y-64336842D01*
X136697990Y-64066589D01*
X136535475Y-63823368D01*
X136328632Y-63616525D01*
X136154240Y-63500000D01*
X136328632Y-63383475D01*
X136535475Y-63176632D01*
X136697990Y-62933411D01*
X136809932Y-62663158D01*
X136867000Y-62376260D01*
X136867000Y-62083740D01*
X136809932Y-61796842D01*
X136697990Y-61526589D01*
X136535475Y-61283368D01*
X136403620Y-61151513D01*
X136476180Y-61129502D01*
X136586494Y-61070537D01*
X136683185Y-60991185D01*
X136762537Y-60894494D01*
X136821502Y-60784180D01*
X136857812Y-60664482D01*
X136870072Y-60540000D01*
X136870072Y-58840000D01*
X137576928Y-58840000D01*
X137576928Y-60540000D01*
X137589188Y-60664482D01*
X137625498Y-60784180D01*
X137684463Y-60894494D01*
X137763815Y-60991185D01*
X137860506Y-61070537D01*
X137970820Y-61129502D01*
X138043380Y-61151513D01*
X137911525Y-61283368D01*
X137749010Y-61526589D01*
X137637068Y-61796842D01*
X137580000Y-62083740D01*
X137580000Y-62376260D01*
X137637068Y-62663158D01*
X137749010Y-62933411D01*
X137911525Y-63176632D01*
X138118368Y-63383475D01*
X138292760Y-63500000D01*
X138118368Y-63616525D01*
X137911525Y-63823368D01*
X137749010Y-64066589D01*
X137637068Y-64336842D01*
X137580000Y-64623740D01*
X137580000Y-64916260D01*
X137637068Y-65203158D01*
X137749010Y-65473411D01*
X137911525Y-65716632D01*
X138118368Y-65923475D01*
X138361589Y-66085990D01*
X138631842Y-66197932D01*
X138918740Y-66255000D01*
X139211260Y-66255000D01*
X139498158Y-66197932D01*
X139768411Y-66085990D01*
X140011632Y-65923475D01*
X140218475Y-65716632D01*
X140380990Y-65473411D01*
X140492932Y-65203158D01*
X140550000Y-64916260D01*
X140550000Y-64623740D01*
X140492932Y-64336842D01*
X140380990Y-64066589D01*
X140218475Y-63823368D01*
X140011632Y-63616525D01*
X139837240Y-63500000D01*
X140011632Y-63383475D01*
X140218475Y-63176632D01*
X140380990Y-62933411D01*
X140492932Y-62663158D01*
X140550000Y-62376260D01*
X140550000Y-62083740D01*
X140492932Y-61796842D01*
X140380990Y-61526589D01*
X140218475Y-61283368D01*
X140086620Y-61151513D01*
X140159180Y-61129502D01*
X140269494Y-61070537D01*
X140366185Y-60991185D01*
X140445537Y-60894494D01*
X140504502Y-60784180D01*
X140540812Y-60664482D01*
X140553072Y-60540000D01*
X140553072Y-58840000D01*
X140540812Y-58715518D01*
X140504502Y-58595820D01*
X140445537Y-58485506D01*
X140366185Y-58388815D01*
X140269494Y-58309463D01*
X140159180Y-58250498D01*
X140039482Y-58214188D01*
X139915000Y-58201928D01*
X138215000Y-58201928D01*
X138090518Y-58214188D01*
X137970820Y-58250498D01*
X137860506Y-58309463D01*
X137763815Y-58388815D01*
X137684463Y-58485506D01*
X137625498Y-58595820D01*
X137589188Y-58715518D01*
X137576928Y-58840000D01*
X136870072Y-58840000D01*
X136857812Y-58715518D01*
X136821502Y-58595820D01*
X136762537Y-58485506D01*
X136683185Y-58388815D01*
X136586494Y-58309463D01*
X136476180Y-58250498D01*
X136356482Y-58214188D01*
X136232000Y-58201928D01*
X134532000Y-58201928D01*
X134407518Y-58214188D01*
X134287820Y-58250498D01*
X134177506Y-58309463D01*
X134080815Y-58388815D01*
X134001463Y-58485506D01*
X133942498Y-58595820D01*
X133906188Y-58715518D01*
X133893928Y-58840000D01*
X132946715Y-58840000D01*
X132865175Y-58717968D01*
X132658332Y-58511125D01*
X132415111Y-58348610D01*
X132144858Y-58236668D01*
X131857960Y-58179600D01*
X131565440Y-58179600D01*
X131278542Y-58236668D01*
X131008289Y-58348610D01*
X130765068Y-58511125D01*
X130558225Y-58717968D01*
X130395710Y-58961189D01*
X130283768Y-59231442D01*
X130226700Y-59518340D01*
X130226700Y-59810860D01*
X130283768Y-60097758D01*
X130395710Y-60368011D01*
X130558225Y-60611232D01*
X130765068Y-60818075D01*
X130939460Y-60934600D01*
X130765068Y-61051125D01*
X130558225Y-61257968D01*
X130395710Y-61501189D01*
X130283768Y-61771442D01*
X130226700Y-62058340D01*
X130226700Y-62350860D01*
X130283768Y-62637758D01*
X130395710Y-62908011D01*
X130558225Y-63151232D01*
X130690080Y-63283087D01*
X130617520Y-63305098D01*
X130507206Y-63364063D01*
X130410515Y-63443415D01*
X130331163Y-63540106D01*
X130272198Y-63650420D01*
X130235888Y-63770118D01*
X130223628Y-63894600D01*
X127025000Y-63894600D01*
X127025000Y-55715000D01*
X136356928Y-55715000D01*
X136356928Y-57315000D01*
X136369188Y-57439482D01*
X136405498Y-57559180D01*
X136464463Y-57669494D01*
X136543815Y-57766185D01*
X136640506Y-57845537D01*
X136750820Y-57904502D01*
X136870518Y-57940812D01*
X136995000Y-57953072D01*
X138595000Y-57953072D01*
X138719482Y-57940812D01*
X138839180Y-57904502D01*
X138949494Y-57845537D01*
X139046185Y-57766185D01*
X139125537Y-57669494D01*
X139184502Y-57559180D01*
X139220812Y-57439482D01*
X139233072Y-57315000D01*
X139233072Y-57049275D01*
X139293320Y-57194727D01*
X139450363Y-57429759D01*
X139650241Y-57629637D01*
X139885273Y-57786680D01*
X140146426Y-57894853D01*
X140423665Y-57950000D01*
X140706335Y-57950000D01*
X140983574Y-57894853D01*
X141244727Y-57786680D01*
X141479759Y-57629637D01*
X141679637Y-57429759D01*
X141836680Y-57194727D01*
X141944853Y-56933574D01*
X141950000Y-56907699D01*
X141955147Y-56933574D01*
X142063320Y-57194727D01*
X142115001Y-57272073D01*
X142115000Y-77401289D01*
X142071063Y-77445226D01*
X141957795Y-77614744D01*
X141879774Y-77803102D01*
X141840000Y-78003061D01*
X141840000Y-78206939D01*
X141879774Y-78406898D01*
X141957795Y-78595256D01*
X142071063Y-78764774D01*
X142215226Y-78908937D01*
X142384744Y-79022205D01*
X142573102Y-79100226D01*
X142773061Y-79140000D01*
X142976939Y-79140000D01*
X143176898Y-79100226D01*
X143365256Y-79022205D01*
X143534774Y-78908937D01*
X143678937Y-78764774D01*
X143792205Y-78595256D01*
X143870226Y-78406898D01*
X143910000Y-78206939D01*
X143910000Y-78003061D01*
X143870226Y-77803102D01*
X143792205Y-77614744D01*
X143678937Y-77445226D01*
X143635000Y-77401289D01*
X143635000Y-65240000D01*
X144611928Y-65240000D01*
X144611928Y-66840000D01*
X144624188Y-66964482D01*
X144660498Y-67084180D01*
X144719463Y-67194494D01*
X144798815Y-67291185D01*
X144895506Y-67370537D01*
X145005820Y-67429502D01*
X145125518Y-67465812D01*
X145133961Y-67466643D01*
X144935363Y-67665241D01*
X144778320Y-67900273D01*
X144670147Y-68161426D01*
X144615000Y-68438665D01*
X144615000Y-68721335D01*
X144670147Y-68998574D01*
X144778320Y-69259727D01*
X144935363Y-69494759D01*
X145135241Y-69694637D01*
X145367759Y-69850000D01*
X145135241Y-70005363D01*
X144935363Y-70205241D01*
X144778320Y-70440273D01*
X144670147Y-70701426D01*
X144615000Y-70978665D01*
X144615000Y-71261335D01*
X144670147Y-71538574D01*
X144778320Y-71799727D01*
X144935363Y-72034759D01*
X145135241Y-72234637D01*
X145370273Y-72391680D01*
X145380865Y-72396067D01*
X145194869Y-72507615D01*
X144986481Y-72696586D01*
X144818963Y-72922580D01*
X144698754Y-73176913D01*
X144658096Y-73310961D01*
X144780085Y-73533000D01*
X145923000Y-73533000D01*
X145923000Y-73513000D01*
X146177000Y-73513000D01*
X146177000Y-73533000D01*
X147319915Y-73533000D01*
X147441904Y-73310961D01*
X147401246Y-73176913D01*
X147281037Y-72922580D01*
X147113519Y-72696586D01*
X146905131Y-72507615D01*
X146719135Y-72396067D01*
X146729727Y-72391680D01*
X146964759Y-72234637D01*
X147164637Y-72034759D01*
X147321680Y-71799727D01*
X147429853Y-71538574D01*
X147485000Y-71261335D01*
X147485000Y-70978665D01*
X147429853Y-70701426D01*
X147321680Y-70440273D01*
X147164637Y-70205241D01*
X146964759Y-70005363D01*
X146732241Y-69850000D01*
X146964759Y-69694637D01*
X147164637Y-69494759D01*
X147321680Y-69259727D01*
X147429853Y-68998574D01*
X147485000Y-68721335D01*
X147485000Y-68438665D01*
X147429853Y-68161426D01*
X147321680Y-67900273D01*
X147164637Y-67665241D01*
X146966039Y-67466643D01*
X146974482Y-67465812D01*
X147094180Y-67429502D01*
X147204494Y-67370537D01*
X147301185Y-67291185D01*
X147380537Y-67194494D01*
X147439502Y-67084180D01*
X147475812Y-66964482D01*
X147488072Y-66840000D01*
X147488072Y-65240000D01*
X147475812Y-65115518D01*
X147439502Y-64995820D01*
X147380537Y-64885506D01*
X147301185Y-64788815D01*
X147204494Y-64709463D01*
X147094180Y-64650498D01*
X146974482Y-64614188D01*
X146850000Y-64601928D01*
X145250000Y-64601928D01*
X145125518Y-64614188D01*
X145005820Y-64650498D01*
X144895506Y-64709463D01*
X144798815Y-64788815D01*
X144719463Y-64885506D01*
X144660498Y-64995820D01*
X144624188Y-65115518D01*
X144611928Y-65240000D01*
X143635000Y-65240000D01*
X143635000Y-59543740D01*
X143930000Y-59543740D01*
X143930000Y-59836260D01*
X143987068Y-60123158D01*
X144099010Y-60393411D01*
X144261525Y-60636632D01*
X144468368Y-60843475D01*
X144711589Y-61005990D01*
X144981842Y-61117932D01*
X145268740Y-61175000D01*
X145561260Y-61175000D01*
X145848158Y-61117932D01*
X146118411Y-61005990D01*
X146361632Y-60843475D01*
X146493487Y-60711620D01*
X146515498Y-60784180D01*
X146574463Y-60894494D01*
X146653815Y-60991185D01*
X146750506Y-61070537D01*
X146860820Y-61129502D01*
X146980518Y-61165812D01*
X147105000Y-61178072D01*
X148805000Y-61178072D01*
X148929482Y-61165812D01*
X149049180Y-61129502D01*
X149159494Y-61070537D01*
X149256185Y-60991185D01*
X149335537Y-60894494D01*
X149394502Y-60784180D01*
X149430812Y-60664482D01*
X149443072Y-60540000D01*
X149443072Y-58840000D01*
X149430812Y-58715518D01*
X149394502Y-58595820D01*
X149335537Y-58485506D01*
X149256185Y-58388815D01*
X149159494Y-58309463D01*
X149049180Y-58250498D01*
X148929482Y-58214188D01*
X148805000Y-58201928D01*
X147105000Y-58201928D01*
X146980518Y-58214188D01*
X146860820Y-58250498D01*
X146750506Y-58309463D01*
X146653815Y-58388815D01*
X146574463Y-58485506D01*
X146515498Y-58595820D01*
X146493487Y-58668380D01*
X146361632Y-58536525D01*
X146118411Y-58374010D01*
X145848158Y-58262068D01*
X145561260Y-58205000D01*
X145268740Y-58205000D01*
X144981842Y-58262068D01*
X144711589Y-58374010D01*
X144468368Y-58536525D01*
X144261525Y-58743368D01*
X144099010Y-58986589D01*
X143987068Y-59256842D01*
X143930000Y-59543740D01*
X143635000Y-59543740D01*
X143635000Y-57918439D01*
X143753574Y-57894853D01*
X144014727Y-57786680D01*
X144249759Y-57629637D01*
X144449637Y-57429759D01*
X144606680Y-57194727D01*
X144714853Y-56933574D01*
X144720000Y-56907699D01*
X144725147Y-56933574D01*
X144833320Y-57194727D01*
X144990363Y-57429759D01*
X145190241Y-57629637D01*
X145425273Y-57786680D01*
X145686426Y-57894853D01*
X145963665Y-57950000D01*
X146246335Y-57950000D01*
X146523574Y-57894853D01*
X146784727Y-57786680D01*
X147019759Y-57629637D01*
X147219637Y-57429759D01*
X147376680Y-57194727D01*
X147484853Y-56933574D01*
X147490000Y-56907699D01*
X147495147Y-56933574D01*
X147603320Y-57194727D01*
X147760363Y-57429759D01*
X147960241Y-57629637D01*
X148195273Y-57786680D01*
X148456426Y-57894853D01*
X148733665Y-57950000D01*
X149016335Y-57950000D01*
X149198886Y-57913688D01*
X151486201Y-60201003D01*
X151509999Y-60230001D01*
X151538997Y-60253799D01*
X151625723Y-60324974D01*
X151706239Y-60368011D01*
X151757753Y-60395546D01*
X151901014Y-60439003D01*
X152012667Y-60450000D01*
X152012676Y-60450000D01*
X152049999Y-60453676D01*
X152087322Y-60450000D01*
X152391822Y-60450000D01*
X152516525Y-60636632D01*
X152723368Y-60843475D01*
X152966589Y-61005990D01*
X153236842Y-61117932D01*
X153523740Y-61175000D01*
X153816260Y-61175000D01*
X154103158Y-61117932D01*
X154373411Y-61005990D01*
X154616632Y-60843475D01*
X154748487Y-60711620D01*
X154770498Y-60784180D01*
X154829463Y-60894494D01*
X154908815Y-60991185D01*
X155005506Y-61070537D01*
X155115820Y-61129502D01*
X155235518Y-61165812D01*
X155360000Y-61178072D01*
X157060000Y-61178072D01*
X157184482Y-61165812D01*
X157304180Y-61129502D01*
X157414494Y-61070537D01*
X157511185Y-60991185D01*
X157590537Y-60894494D01*
X157649502Y-60784180D01*
X157685812Y-60664482D01*
X157698072Y-60540000D01*
X157698072Y-59543740D01*
X174537000Y-59543740D01*
X174537000Y-59836260D01*
X174594068Y-60123158D01*
X174706010Y-60393411D01*
X174868525Y-60636632D01*
X175075368Y-60843475D01*
X175318589Y-61005990D01*
X175588842Y-61117932D01*
X175875740Y-61175000D01*
X176168260Y-61175000D01*
X176455158Y-61117932D01*
X176725411Y-61005990D01*
X176968632Y-60843475D01*
X177100487Y-60711620D01*
X177122498Y-60784180D01*
X177181463Y-60894494D01*
X177260815Y-60991185D01*
X177357506Y-61070537D01*
X177467820Y-61129502D01*
X177587518Y-61165812D01*
X177712000Y-61178072D01*
X178276250Y-61175000D01*
X178435000Y-61016250D01*
X178435000Y-59817000D01*
X178689000Y-59817000D01*
X178689000Y-61016250D01*
X178847750Y-61175000D01*
X179412000Y-61178072D01*
X179536482Y-61165812D01*
X179656180Y-61129502D01*
X179766494Y-61070537D01*
X179863185Y-60991185D01*
X179942537Y-60894494D01*
X180001502Y-60784180D01*
X180037812Y-60664482D01*
X180050072Y-60540000D01*
X180047000Y-59975750D01*
X179888250Y-59817000D01*
X178689000Y-59817000D01*
X178435000Y-59817000D01*
X178415000Y-59817000D01*
X178415000Y-59563000D01*
X178435000Y-59563000D01*
X178435000Y-58363750D01*
X178689000Y-58363750D01*
X178689000Y-59563000D01*
X179888250Y-59563000D01*
X180047000Y-59404250D01*
X180050072Y-58840000D01*
X180037812Y-58715518D01*
X180001502Y-58595820D01*
X179942537Y-58485506D01*
X179863185Y-58388815D01*
X179766494Y-58309463D01*
X179656180Y-58250498D01*
X179536482Y-58214188D01*
X179412000Y-58201928D01*
X178847750Y-58205000D01*
X178689000Y-58363750D01*
X178435000Y-58363750D01*
X178276250Y-58205000D01*
X177712000Y-58201928D01*
X177587518Y-58214188D01*
X177467820Y-58250498D01*
X177357506Y-58309463D01*
X177260815Y-58388815D01*
X177181463Y-58485506D01*
X177122498Y-58595820D01*
X177100487Y-58668380D01*
X176968632Y-58536525D01*
X176725411Y-58374010D01*
X176455158Y-58262068D01*
X176168260Y-58205000D01*
X175875740Y-58205000D01*
X175588842Y-58262068D01*
X175318589Y-58374010D01*
X175075368Y-58536525D01*
X174868525Y-58743368D01*
X174706010Y-58986589D01*
X174594068Y-59256842D01*
X174537000Y-59543740D01*
X157698072Y-59543740D01*
X157698072Y-58840000D01*
X157685812Y-58715518D01*
X157649502Y-58595820D01*
X157590537Y-58485506D01*
X157511185Y-58388815D01*
X157414494Y-58309463D01*
X157304180Y-58250498D01*
X157184482Y-58214188D01*
X157060000Y-58201928D01*
X155360000Y-58201928D01*
X155235518Y-58214188D01*
X155115820Y-58250498D01*
X155005506Y-58309463D01*
X154908815Y-58388815D01*
X154829463Y-58485506D01*
X154770498Y-58595820D01*
X154748487Y-58668380D01*
X154616632Y-58536525D01*
X154373411Y-58374010D01*
X154103158Y-58262068D01*
X153816260Y-58205000D01*
X153523740Y-58205000D01*
X153236842Y-58262068D01*
X152966589Y-58374010D01*
X152723368Y-58536525D01*
X152516525Y-58743368D01*
X152391822Y-58930000D01*
X152364802Y-58930000D01*
X151355287Y-57920485D01*
X151503665Y-57950000D01*
X151786335Y-57950000D01*
X152063574Y-57894853D01*
X152324727Y-57786680D01*
X152559759Y-57629637D01*
X152759637Y-57429759D01*
X152916680Y-57194727D01*
X153024853Y-56933574D01*
X153030000Y-56907699D01*
X153035147Y-56933574D01*
X153143320Y-57194727D01*
X153300363Y-57429759D01*
X153500241Y-57629637D01*
X153735273Y-57786680D01*
X153996426Y-57894853D01*
X154273665Y-57950000D01*
X154556335Y-57950000D01*
X154833574Y-57894853D01*
X155094727Y-57786680D01*
X155329759Y-57629637D01*
X155529637Y-57429759D01*
X155686680Y-57194727D01*
X155794853Y-56933574D01*
X155800000Y-56907699D01*
X155805147Y-56933574D01*
X155913320Y-57194727D01*
X156070363Y-57429759D01*
X156270241Y-57629637D01*
X156505273Y-57786680D01*
X156766426Y-57894853D01*
X157043665Y-57950000D01*
X157326335Y-57950000D01*
X157603574Y-57894853D01*
X157864727Y-57786680D01*
X158099759Y-57629637D01*
X158299637Y-57429759D01*
X158456680Y-57194727D01*
X158564853Y-56933574D01*
X158570000Y-56907699D01*
X158575147Y-56933574D01*
X158683320Y-57194727D01*
X158840363Y-57429759D01*
X159040241Y-57629637D01*
X159275273Y-57786680D01*
X159536426Y-57894853D01*
X159813665Y-57950000D01*
X160096335Y-57950000D01*
X160373574Y-57894853D01*
X160634727Y-57786680D01*
X160869759Y-57629637D01*
X161069637Y-57429759D01*
X161226680Y-57194727D01*
X161334853Y-56933574D01*
X161340000Y-56907699D01*
X161345147Y-56933574D01*
X161453320Y-57194727D01*
X161610363Y-57429759D01*
X161810241Y-57629637D01*
X162045273Y-57786680D01*
X162306426Y-57894853D01*
X162583665Y-57950000D01*
X162866335Y-57950000D01*
X163143574Y-57894853D01*
X163404727Y-57786680D01*
X163639759Y-57629637D01*
X163839637Y-57429759D01*
X163996680Y-57194727D01*
X164104853Y-56933574D01*
X164110000Y-56907699D01*
X164115147Y-56933574D01*
X164223320Y-57194727D01*
X164380363Y-57429759D01*
X164580241Y-57629637D01*
X164815273Y-57786680D01*
X165076426Y-57894853D01*
X165353665Y-57950000D01*
X165636335Y-57950000D01*
X165913574Y-57894853D01*
X166174727Y-57786680D01*
X166409759Y-57629637D01*
X166609637Y-57429759D01*
X166766680Y-57194727D01*
X166874853Y-56933574D01*
X166880000Y-56907699D01*
X166885147Y-56933574D01*
X166993320Y-57194727D01*
X167150363Y-57429759D01*
X167350241Y-57629637D01*
X167585273Y-57786680D01*
X167846426Y-57894853D01*
X168123665Y-57950000D01*
X168406335Y-57950000D01*
X168683574Y-57894853D01*
X168944727Y-57786680D01*
X169179759Y-57629637D01*
X169379637Y-57429759D01*
X169536680Y-57194727D01*
X169644853Y-56933574D01*
X169650000Y-56907699D01*
X169655147Y-56933574D01*
X169763320Y-57194727D01*
X169920363Y-57429759D01*
X170120241Y-57629637D01*
X170355273Y-57786680D01*
X170616426Y-57894853D01*
X170893665Y-57950000D01*
X171176335Y-57950000D01*
X171453574Y-57894853D01*
X171714727Y-57786680D01*
X171949759Y-57629637D01*
X172149637Y-57429759D01*
X172306680Y-57194727D01*
X172414853Y-56933574D01*
X172470000Y-56656335D01*
X172470000Y-56373665D01*
X172414853Y-56096426D01*
X172306680Y-55835273D01*
X172149637Y-55600241D01*
X171949759Y-55400363D01*
X171714727Y-55243320D01*
X171453574Y-55135147D01*
X171176335Y-55080000D01*
X170893665Y-55080000D01*
X170616426Y-55135147D01*
X170355273Y-55243320D01*
X170120241Y-55400363D01*
X169920363Y-55600241D01*
X169763320Y-55835273D01*
X169655147Y-56096426D01*
X169650000Y-56122301D01*
X169644853Y-56096426D01*
X169536680Y-55835273D01*
X169379637Y-55600241D01*
X169179759Y-55400363D01*
X168944727Y-55243320D01*
X168683574Y-55135147D01*
X168406335Y-55080000D01*
X168123665Y-55080000D01*
X167846426Y-55135147D01*
X167585273Y-55243320D01*
X167350241Y-55400363D01*
X167150363Y-55600241D01*
X166993320Y-55835273D01*
X166885147Y-56096426D01*
X166880000Y-56122301D01*
X166874853Y-56096426D01*
X166766680Y-55835273D01*
X166609637Y-55600241D01*
X166409759Y-55400363D01*
X166174727Y-55243320D01*
X165913574Y-55135147D01*
X165636335Y-55080000D01*
X165353665Y-55080000D01*
X165076426Y-55135147D01*
X164815273Y-55243320D01*
X164580241Y-55400363D01*
X164380363Y-55600241D01*
X164223320Y-55835273D01*
X164115147Y-56096426D01*
X164110000Y-56122301D01*
X164104853Y-56096426D01*
X163996680Y-55835273D01*
X163839637Y-55600241D01*
X163639759Y-55400363D01*
X163404727Y-55243320D01*
X163143574Y-55135147D01*
X162866335Y-55080000D01*
X162583665Y-55080000D01*
X162306426Y-55135147D01*
X162045273Y-55243320D01*
X161810241Y-55400363D01*
X161610363Y-55600241D01*
X161453320Y-55835273D01*
X161345147Y-56096426D01*
X161340000Y-56122301D01*
X161334853Y-56096426D01*
X161226680Y-55835273D01*
X161069637Y-55600241D01*
X160869759Y-55400363D01*
X160634727Y-55243320D01*
X160373574Y-55135147D01*
X160096335Y-55080000D01*
X159813665Y-55080000D01*
X159536426Y-55135147D01*
X159275273Y-55243320D01*
X159040241Y-55400363D01*
X158840363Y-55600241D01*
X158683320Y-55835273D01*
X158575147Y-56096426D01*
X158570000Y-56122301D01*
X158564853Y-56096426D01*
X158456680Y-55835273D01*
X158299637Y-55600241D01*
X158099759Y-55400363D01*
X157864727Y-55243320D01*
X157603574Y-55135147D01*
X157326335Y-55080000D01*
X157043665Y-55080000D01*
X156766426Y-55135147D01*
X156505273Y-55243320D01*
X156270241Y-55400363D01*
X156070363Y-55600241D01*
X155913320Y-55835273D01*
X155805147Y-56096426D01*
X155800000Y-56122301D01*
X155794853Y-56096426D01*
X155686680Y-55835273D01*
X155529637Y-55600241D01*
X155329759Y-55400363D01*
X155094727Y-55243320D01*
X154833574Y-55135147D01*
X154556335Y-55080000D01*
X154273665Y-55080000D01*
X153996426Y-55135147D01*
X153735273Y-55243320D01*
X153500241Y-55400363D01*
X153300363Y-55600241D01*
X153143320Y-55835273D01*
X153035147Y-56096426D01*
X153030000Y-56122301D01*
X153024853Y-56096426D01*
X152916680Y-55835273D01*
X152759637Y-55600241D01*
X152559759Y-55400363D01*
X152324727Y-55243320D01*
X152063574Y-55135147D01*
X151786335Y-55080000D01*
X151503665Y-55080000D01*
X151226426Y-55135147D01*
X150965273Y-55243320D01*
X150730241Y-55400363D01*
X150530363Y-55600241D01*
X150373320Y-55835273D01*
X150265147Y-56096426D01*
X150260000Y-56122301D01*
X150254853Y-56096426D01*
X150146680Y-55835273D01*
X149989637Y-55600241D01*
X149789759Y-55400363D01*
X149554727Y-55243320D01*
X149293574Y-55135147D01*
X149016335Y-55080000D01*
X148733665Y-55080000D01*
X148456426Y-55135147D01*
X148195273Y-55243320D01*
X147960241Y-55400363D01*
X147760363Y-55600241D01*
X147603320Y-55835273D01*
X147495147Y-56096426D01*
X147490000Y-56122301D01*
X147484853Y-56096426D01*
X147376680Y-55835273D01*
X147219637Y-55600241D01*
X147019759Y-55400363D01*
X146784727Y-55243320D01*
X146523574Y-55135147D01*
X146246335Y-55080000D01*
X145963665Y-55080000D01*
X145686426Y-55135147D01*
X145425273Y-55243320D01*
X145190241Y-55400363D01*
X144990363Y-55600241D01*
X144833320Y-55835273D01*
X144725147Y-56096426D01*
X144720000Y-56122301D01*
X144714853Y-56096426D01*
X144606680Y-55835273D01*
X144449637Y-55600241D01*
X144249759Y-55400363D01*
X144014727Y-55243320D01*
X143753574Y-55135147D01*
X143476335Y-55080000D01*
X143193665Y-55080000D01*
X142916426Y-55135147D01*
X142655273Y-55243320D01*
X142420241Y-55400363D01*
X142220363Y-55600241D01*
X142063320Y-55835273D01*
X141955147Y-56096426D01*
X141950000Y-56122301D01*
X141944853Y-56096426D01*
X141836680Y-55835273D01*
X141679637Y-55600241D01*
X141479759Y-55400363D01*
X141244727Y-55243320D01*
X140983574Y-55135147D01*
X140706335Y-55080000D01*
X140423665Y-55080000D01*
X140146426Y-55135147D01*
X139885273Y-55243320D01*
X139650241Y-55400363D01*
X139450363Y-55600241D01*
X139293320Y-55835273D01*
X139233072Y-55980725D01*
X139233072Y-55715000D01*
X139220812Y-55590518D01*
X139184502Y-55470820D01*
X139151993Y-55410000D01*
X139321335Y-55410000D01*
X139598574Y-55354853D01*
X139859727Y-55246680D01*
X140094759Y-55089637D01*
X140294637Y-54889759D01*
X140451680Y-54654727D01*
X140559853Y-54393574D01*
X140565000Y-54367699D01*
X140570147Y-54393574D01*
X140678320Y-54654727D01*
X140835363Y-54889759D01*
X141035241Y-55089637D01*
X141270273Y-55246680D01*
X141531426Y-55354853D01*
X141808665Y-55410000D01*
X142091335Y-55410000D01*
X142368574Y-55354853D01*
X142629727Y-55246680D01*
X142864759Y-55089637D01*
X143064637Y-54889759D01*
X143221680Y-54654727D01*
X143329853Y-54393574D01*
X143335000Y-54367699D01*
X143340147Y-54393574D01*
X143448320Y-54654727D01*
X143605363Y-54889759D01*
X143805241Y-55089637D01*
X144040273Y-55246680D01*
X144301426Y-55354853D01*
X144578665Y-55410000D01*
X144861335Y-55410000D01*
X145138574Y-55354853D01*
X145399727Y-55246680D01*
X145634759Y-55089637D01*
X145834637Y-54889759D01*
X145991680Y-54654727D01*
X146099853Y-54393574D01*
X146105000Y-54367699D01*
X146110147Y-54393574D01*
X146218320Y-54654727D01*
X146375363Y-54889759D01*
X146575241Y-55089637D01*
X146810273Y-55246680D01*
X147071426Y-55354853D01*
X147348665Y-55410000D01*
X147631335Y-55410000D01*
X147908574Y-55354853D01*
X148169727Y-55246680D01*
X148404759Y-55089637D01*
X148526694Y-54967702D01*
X149446903Y-54967702D01*
X149518486Y-55211671D01*
X149773996Y-55332571D01*
X150048184Y-55401300D01*
X150330512Y-55415217D01*
X150610130Y-55373787D01*
X150876292Y-55278603D01*
X151001514Y-55211671D01*
X151073097Y-54967702D01*
X152216903Y-54967702D01*
X152288486Y-55211671D01*
X152543996Y-55332571D01*
X152818184Y-55401300D01*
X153100512Y-55415217D01*
X153380130Y-55373787D01*
X153646292Y-55278603D01*
X153771514Y-55211671D01*
X153843097Y-54967702D01*
X154986903Y-54967702D01*
X155058486Y-55211671D01*
X155313996Y-55332571D01*
X155588184Y-55401300D01*
X155870512Y-55415217D01*
X156150130Y-55373787D01*
X156416292Y-55278603D01*
X156541514Y-55211671D01*
X156613097Y-54967702D01*
X157756903Y-54967702D01*
X157828486Y-55211671D01*
X158083996Y-55332571D01*
X158358184Y-55401300D01*
X158640512Y-55415217D01*
X158920130Y-55373787D01*
X159186292Y-55278603D01*
X159311514Y-55211671D01*
X159383097Y-54967702D01*
X160526903Y-54967702D01*
X160598486Y-55211671D01*
X160853996Y-55332571D01*
X161128184Y-55401300D01*
X161410512Y-55415217D01*
X161690130Y-55373787D01*
X161956292Y-55278603D01*
X162081514Y-55211671D01*
X162153097Y-54967702D01*
X163296903Y-54967702D01*
X163368486Y-55211671D01*
X163623996Y-55332571D01*
X163898184Y-55401300D01*
X164180512Y-55415217D01*
X164460130Y-55373787D01*
X164726292Y-55278603D01*
X164851514Y-55211671D01*
X164923097Y-54967702D01*
X166066903Y-54967702D01*
X166138486Y-55211671D01*
X166393996Y-55332571D01*
X166668184Y-55401300D01*
X166950512Y-55415217D01*
X167230130Y-55373787D01*
X167496292Y-55278603D01*
X167621514Y-55211671D01*
X167693097Y-54967702D01*
X168836903Y-54967702D01*
X168908486Y-55211671D01*
X169163996Y-55332571D01*
X169438184Y-55401300D01*
X169720512Y-55415217D01*
X170000130Y-55373787D01*
X170266292Y-55278603D01*
X170391514Y-55211671D01*
X170463097Y-54967702D01*
X169650000Y-54154605D01*
X168836903Y-54967702D01*
X167693097Y-54967702D01*
X166880000Y-54154605D01*
X166066903Y-54967702D01*
X164923097Y-54967702D01*
X164110000Y-54154605D01*
X163296903Y-54967702D01*
X162153097Y-54967702D01*
X161340000Y-54154605D01*
X160526903Y-54967702D01*
X159383097Y-54967702D01*
X158570000Y-54154605D01*
X157756903Y-54967702D01*
X156613097Y-54967702D01*
X155800000Y-54154605D01*
X154986903Y-54967702D01*
X153843097Y-54967702D01*
X153030000Y-54154605D01*
X152216903Y-54967702D01*
X151073097Y-54967702D01*
X150260000Y-54154605D01*
X149446903Y-54967702D01*
X148526694Y-54967702D01*
X148604637Y-54889759D01*
X148761680Y-54654727D01*
X148869853Y-54393574D01*
X148875513Y-54365118D01*
X148956397Y-54591292D01*
X149023329Y-54716514D01*
X149267298Y-54788097D01*
X150080395Y-53975000D01*
X150439605Y-53975000D01*
X151252702Y-54788097D01*
X151496671Y-54716514D01*
X151617571Y-54461004D01*
X151643216Y-54358695D01*
X151726397Y-54591292D01*
X151793329Y-54716514D01*
X152037298Y-54788097D01*
X152850395Y-53975000D01*
X153209605Y-53975000D01*
X154022702Y-54788097D01*
X154266671Y-54716514D01*
X154387571Y-54461004D01*
X154413216Y-54358695D01*
X154496397Y-54591292D01*
X154563329Y-54716514D01*
X154807298Y-54788097D01*
X155620395Y-53975000D01*
X155979605Y-53975000D01*
X156792702Y-54788097D01*
X157036671Y-54716514D01*
X157157571Y-54461004D01*
X157183216Y-54358695D01*
X157266397Y-54591292D01*
X157333329Y-54716514D01*
X157577298Y-54788097D01*
X158390395Y-53975000D01*
X158749605Y-53975000D01*
X159562702Y-54788097D01*
X159806671Y-54716514D01*
X159927571Y-54461004D01*
X159953216Y-54358695D01*
X160036397Y-54591292D01*
X160103329Y-54716514D01*
X160347298Y-54788097D01*
X161160395Y-53975000D01*
X161519605Y-53975000D01*
X162332702Y-54788097D01*
X162576671Y-54716514D01*
X162697571Y-54461004D01*
X162723216Y-54358695D01*
X162806397Y-54591292D01*
X162873329Y-54716514D01*
X163117298Y-54788097D01*
X163930395Y-53975000D01*
X164289605Y-53975000D01*
X165102702Y-54788097D01*
X165346671Y-54716514D01*
X165467571Y-54461004D01*
X165493216Y-54358695D01*
X165576397Y-54591292D01*
X165643329Y-54716514D01*
X165887298Y-54788097D01*
X166700395Y-53975000D01*
X167059605Y-53975000D01*
X167872702Y-54788097D01*
X168116671Y-54716514D01*
X168237571Y-54461004D01*
X168263216Y-54358695D01*
X168346397Y-54591292D01*
X168413329Y-54716514D01*
X168657298Y-54788097D01*
X169470395Y-53975000D01*
X169829605Y-53975000D01*
X170642702Y-54788097D01*
X170886671Y-54716514D01*
X171007571Y-54461004D01*
X171076300Y-54186816D01*
X171090217Y-53904488D01*
X171048787Y-53624870D01*
X170953603Y-53358708D01*
X170886671Y-53233486D01*
X170642702Y-53161903D01*
X169829605Y-53975000D01*
X169470395Y-53975000D01*
X168657298Y-53161903D01*
X168413329Y-53233486D01*
X168292429Y-53488996D01*
X168266784Y-53591305D01*
X168183603Y-53358708D01*
X168116671Y-53233486D01*
X167872702Y-53161903D01*
X167059605Y-53975000D01*
X166700395Y-53975000D01*
X165887298Y-53161903D01*
X165643329Y-53233486D01*
X165522429Y-53488996D01*
X165496784Y-53591305D01*
X165413603Y-53358708D01*
X165346671Y-53233486D01*
X165102702Y-53161903D01*
X164289605Y-53975000D01*
X163930395Y-53975000D01*
X163117298Y-53161903D01*
X162873329Y-53233486D01*
X162752429Y-53488996D01*
X162726784Y-53591305D01*
X162643603Y-53358708D01*
X162576671Y-53233486D01*
X162332702Y-53161903D01*
X161519605Y-53975000D01*
X161160395Y-53975000D01*
X160347298Y-53161903D01*
X160103329Y-53233486D01*
X159982429Y-53488996D01*
X159956784Y-53591305D01*
X159873603Y-53358708D01*
X159806671Y-53233486D01*
X159562702Y-53161903D01*
X158749605Y-53975000D01*
X158390395Y-53975000D01*
X157577298Y-53161903D01*
X157333329Y-53233486D01*
X157212429Y-53488996D01*
X157186784Y-53591305D01*
X157103603Y-53358708D01*
X157036671Y-53233486D01*
X156792702Y-53161903D01*
X155979605Y-53975000D01*
X155620395Y-53975000D01*
X154807298Y-53161903D01*
X154563329Y-53233486D01*
X154442429Y-53488996D01*
X154416784Y-53591305D01*
X154333603Y-53358708D01*
X154266671Y-53233486D01*
X154022702Y-53161903D01*
X153209605Y-53975000D01*
X152850395Y-53975000D01*
X152037298Y-53161903D01*
X151793329Y-53233486D01*
X151672429Y-53488996D01*
X151646784Y-53591305D01*
X151563603Y-53358708D01*
X151496671Y-53233486D01*
X151252702Y-53161903D01*
X150439605Y-53975000D01*
X150080395Y-53975000D01*
X149267298Y-53161903D01*
X149023329Y-53233486D01*
X148902429Y-53488996D01*
X148876788Y-53591289D01*
X148869853Y-53556426D01*
X148761680Y-53295273D01*
X148604637Y-53060241D01*
X148526694Y-52982298D01*
X149446903Y-52982298D01*
X150260000Y-53795395D01*
X151073097Y-52982298D01*
X152216903Y-52982298D01*
X153030000Y-53795395D01*
X153843097Y-52982298D01*
X154986903Y-52982298D01*
X155800000Y-53795395D01*
X156613097Y-52982298D01*
X157756903Y-52982298D01*
X158570000Y-53795395D01*
X159383097Y-52982298D01*
X160526903Y-52982298D01*
X161340000Y-53795395D01*
X162153097Y-52982298D01*
X163296903Y-52982298D01*
X164110000Y-53795395D01*
X164923097Y-52982298D01*
X166066903Y-52982298D01*
X166880000Y-53795395D01*
X167693097Y-52982298D01*
X168836903Y-52982298D01*
X169650000Y-53795395D01*
X170463097Y-52982298D01*
X170391514Y-52738329D01*
X170136004Y-52617429D01*
X169861816Y-52548700D01*
X169579488Y-52534783D01*
X169299870Y-52576213D01*
X169033708Y-52671397D01*
X168908486Y-52738329D01*
X168836903Y-52982298D01*
X167693097Y-52982298D01*
X167621514Y-52738329D01*
X167366004Y-52617429D01*
X167091816Y-52548700D01*
X166809488Y-52534783D01*
X166529870Y-52576213D01*
X166263708Y-52671397D01*
X166138486Y-52738329D01*
X166066903Y-52982298D01*
X164923097Y-52982298D01*
X164851514Y-52738329D01*
X164596004Y-52617429D01*
X164321816Y-52548700D01*
X164039488Y-52534783D01*
X163759870Y-52576213D01*
X163493708Y-52671397D01*
X163368486Y-52738329D01*
X163296903Y-52982298D01*
X162153097Y-52982298D01*
X162081514Y-52738329D01*
X161826004Y-52617429D01*
X161551816Y-52548700D01*
X161269488Y-52534783D01*
X160989870Y-52576213D01*
X160723708Y-52671397D01*
X160598486Y-52738329D01*
X160526903Y-52982298D01*
X159383097Y-52982298D01*
X159311514Y-52738329D01*
X159056004Y-52617429D01*
X158781816Y-52548700D01*
X158499488Y-52534783D01*
X158219870Y-52576213D01*
X157953708Y-52671397D01*
X157828486Y-52738329D01*
X157756903Y-52982298D01*
X156613097Y-52982298D01*
X156541514Y-52738329D01*
X156286004Y-52617429D01*
X156011816Y-52548700D01*
X155729488Y-52534783D01*
X155449870Y-52576213D01*
X155183708Y-52671397D01*
X155058486Y-52738329D01*
X154986903Y-52982298D01*
X153843097Y-52982298D01*
X153771514Y-52738329D01*
X153516004Y-52617429D01*
X153241816Y-52548700D01*
X152959488Y-52534783D01*
X152679870Y-52576213D01*
X152413708Y-52671397D01*
X152288486Y-52738329D01*
X152216903Y-52982298D01*
X151073097Y-52982298D01*
X151001514Y-52738329D01*
X150746004Y-52617429D01*
X150471816Y-52548700D01*
X150189488Y-52534783D01*
X149909870Y-52576213D01*
X149643708Y-52671397D01*
X149518486Y-52738329D01*
X149446903Y-52982298D01*
X148526694Y-52982298D01*
X148404759Y-52860363D01*
X148169727Y-52703320D01*
X147908574Y-52595147D01*
X147631335Y-52540000D01*
X147348665Y-52540000D01*
X147071426Y-52595147D01*
X146810273Y-52703320D01*
X146575241Y-52860363D01*
X146375363Y-53060241D01*
X146218320Y-53295273D01*
X146110147Y-53556426D01*
X146105000Y-53582301D01*
X146099853Y-53556426D01*
X145991680Y-53295273D01*
X145834637Y-53060241D01*
X145634759Y-52860363D01*
X145399727Y-52703320D01*
X145138574Y-52595147D01*
X144861335Y-52540000D01*
X144578665Y-52540000D01*
X144301426Y-52595147D01*
X144040273Y-52703320D01*
X143805241Y-52860363D01*
X143605363Y-53060241D01*
X143448320Y-53295273D01*
X143340147Y-53556426D01*
X143335000Y-53582301D01*
X143329853Y-53556426D01*
X143221680Y-53295273D01*
X143064637Y-53060241D01*
X142864759Y-52860363D01*
X142629727Y-52703320D01*
X142368574Y-52595147D01*
X142091335Y-52540000D01*
X141808665Y-52540000D01*
X141531426Y-52595147D01*
X141270273Y-52703320D01*
X141035241Y-52860363D01*
X140835363Y-53060241D01*
X140678320Y-53295273D01*
X140570147Y-53556426D01*
X140565000Y-53582301D01*
X140559853Y-53556426D01*
X140451680Y-53295273D01*
X140294637Y-53060241D01*
X140094759Y-52860363D01*
X139859727Y-52703320D01*
X139598574Y-52595147D01*
X139321335Y-52540000D01*
X139038665Y-52540000D01*
X138761426Y-52595147D01*
X138500273Y-52703320D01*
X138265241Y-52860363D01*
X138065363Y-53060241D01*
X137908320Y-53295273D01*
X137800147Y-53556426D01*
X137745000Y-53833665D01*
X137745000Y-54116335D01*
X137800147Y-54393574D01*
X137908320Y-54654727D01*
X138065363Y-54889759D01*
X138252532Y-55076928D01*
X136995000Y-55076928D01*
X136870518Y-55089188D01*
X136750820Y-55125498D01*
X136640506Y-55184463D01*
X136543815Y-55263815D01*
X136464463Y-55360506D01*
X136405498Y-55470820D01*
X136369188Y-55590518D01*
X136356928Y-55715000D01*
X127025000Y-55715000D01*
X127025000Y-48674872D01*
X128575000Y-48674872D01*
X128575000Y-49115128D01*
X128660890Y-49546925D01*
X128829369Y-49953669D01*
X129073962Y-50319729D01*
X129385271Y-50631038D01*
X129751331Y-50875631D01*
X130158075Y-51044110D01*
X130589872Y-51130000D01*
X131030128Y-51130000D01*
X131461925Y-51044110D01*
X131868669Y-50875631D01*
X132234729Y-50631038D01*
X132546038Y-50319729D01*
X132790631Y-49953669D01*
X132959110Y-49546925D01*
X133045000Y-49115128D01*
X133045000Y-48674872D01*
X175565000Y-48674872D01*
X175565000Y-49115128D01*
X175650890Y-49546925D01*
X175819369Y-49953669D01*
X176063962Y-50319729D01*
X176375271Y-50631038D01*
X176741331Y-50875631D01*
X177148075Y-51044110D01*
X177579872Y-51130000D01*
X178020128Y-51130000D01*
X178451925Y-51044110D01*
X178858669Y-50875631D01*
X179224729Y-50631038D01*
X179536038Y-50319729D01*
X179780631Y-49953669D01*
X179949110Y-49546925D01*
X180035000Y-49115128D01*
X180035000Y-48674872D01*
X179949110Y-48243075D01*
X179780631Y-47836331D01*
X179536038Y-47470271D01*
X179224729Y-47158962D01*
X178858669Y-46914369D01*
X178451925Y-46745890D01*
X178020128Y-46660000D01*
X177579872Y-46660000D01*
X177148075Y-46745890D01*
X176741331Y-46914369D01*
X176375271Y-47158962D01*
X176063962Y-47470271D01*
X175819369Y-47836331D01*
X175650890Y-48243075D01*
X175565000Y-48674872D01*
X133045000Y-48674872D01*
X132959110Y-48243075D01*
X132790631Y-47836331D01*
X132546038Y-47470271D01*
X132234729Y-47158962D01*
X131868669Y-46914369D01*
X131461925Y-46745890D01*
X131030128Y-46660000D01*
X130589872Y-46660000D01*
X130158075Y-46745890D01*
X129751331Y-46914369D01*
X129385271Y-47158962D01*
X129073962Y-47470271D01*
X128829369Y-47836331D01*
X128660890Y-48243075D01*
X128575000Y-48674872D01*
X127025000Y-48674872D01*
X127025000Y-45110000D01*
X181585001Y-45110000D01*
X181585000Y-105377721D01*
%TD*%
M02*
