%TF.GenerationSoftware,KiCad,Pcbnew,5.1.6-c6e7f7d~87~ubuntu20.04.1*%
%TF.CreationDate,2020-09-27T23:03:46+02:00*%
%TF.ProjectId,arduino-2-tb6560-4axis,61726475-696e-46f2-9d32-2d7462363536,rev?*%
%TF.SameCoordinates,Original*%
%TF.FileFunction,Copper,L1,Top*%
%TF.FilePolarity,Positive*%
%FSLAX46Y46*%
G04 Gerber Fmt 4.6, Leading zero omitted, Abs format (unit mm)*
G04 Created by KiCad (PCBNEW 5.1.6-c6e7f7d~87~ubuntu20.04.1) date 2020-09-27 23:03:46*
%MOMM*%
%LPD*%
G01*
G04 APERTURE LIST*
%TA.AperFunction,ComponentPad*%
%ADD10O,1.600000X1.600000*%
%TD*%
%TA.AperFunction,ComponentPad*%
%ADD11C,1.600000*%
%TD*%
%TA.AperFunction,ComponentPad*%
%ADD12C,1.800000*%
%TD*%
%TA.AperFunction,ComponentPad*%
%ADD13R,1.800000X1.800000*%
%TD*%
%TA.AperFunction,ComponentPad*%
%ADD14C,2.000000*%
%TD*%
%TA.AperFunction,ComponentPad*%
%ADD15O,1.700000X1.700000*%
%TD*%
%TA.AperFunction,ComponentPad*%
%ADD16R,1.700000X1.700000*%
%TD*%
%TA.AperFunction,ComponentPad*%
%ADD17R,1.050000X1.500000*%
%TD*%
%TA.AperFunction,ComponentPad*%
%ADD18O,1.050000X1.500000*%
%TD*%
%TA.AperFunction,ComponentPad*%
%ADD19R,1.600000X1.600000*%
%TD*%
%TA.AperFunction,ViaPad*%
%ADD20C,0.800000*%
%TD*%
%TA.AperFunction,Conductor*%
%ADD21C,0.250000*%
%TD*%
G04 APERTURE END LIST*
D10*
%TO.P,R5,2*%
%TO.N,Z_STEP*%
X142684500Y-85102700D03*
D11*
%TO.P,R5,1*%
%TO.N,Net-(D3-Pad2)*%
X135064500Y-85102700D03*
%TD*%
D10*
%TO.P,R4,2*%
%TO.N,Y_STEP*%
X142684500Y-88239600D03*
D11*
%TO.P,R4,1*%
%TO.N,Net-(D2-Pad2)*%
X135064500Y-88239600D03*
%TD*%
D10*
%TO.P,R3,2*%
%TO.N,X_STEP*%
X142684500Y-91363800D03*
D11*
%TO.P,R3,1*%
%TO.N,Net-(D1-Pad2)*%
X135064500Y-91363800D03*
%TD*%
D10*
%TO.P,R2,2*%
%TO.N,SPINDLE_PWM_INVERTED*%
X135966200Y-72567800D03*
D11*
%TO.P,R2,1*%
%TO.N,VCC*%
X135966200Y-80187800D03*
%TD*%
D10*
%TO.P,R1,2*%
%TO.N,SPINDLE_PWM*%
X139039600Y-80175100D03*
D11*
%TO.P,R1,1*%
%TO.N,Net-(Q1-Pad2)*%
X139039600Y-72555100D03*
%TD*%
D12*
%TO.P,D3,2*%
%TO.N,Net-(D3-Pad2)*%
X131521200Y-79908400D03*
D13*
%TO.P,D3,1*%
%TO.N,GND*%
X128981200Y-79908400D03*
%TD*%
D12*
%TO.P,D2,2*%
%TO.N,Net-(D2-Pad2)*%
X131521200Y-86499700D03*
D13*
%TO.P,D2,1*%
%TO.N,GND*%
X128981200Y-86499700D03*
%TD*%
D12*
%TO.P,D1,2*%
%TO.N,Net-(D1-Pad2)*%
X131521200Y-93091000D03*
D13*
%TO.P,D1,1*%
%TO.N,GND*%
X128981200Y-93091000D03*
%TD*%
D14*
%TO.P,SW2,1*%
%TO.N,CYCLE_START_RESUME*%
X171777800Y-99771200D03*
%TO.P,SW2,2*%
%TO.N,GND*%
X171777800Y-104271200D03*
%TO.P,SW2,1*%
%TO.N,CYCLE_START_RESUME*%
X165277800Y-99771200D03*
%TO.P,SW2,2*%
%TO.N,GND*%
X165277800Y-104271200D03*
%TD*%
%TO.P,SW1,1*%
%TO.N,FEED_HOLD*%
X136387700Y-104482900D03*
%TO.P,SW1,2*%
%TO.N,GND*%
X136387700Y-99982900D03*
%TO.P,SW1,1*%
%TO.N,FEED_HOLD*%
X142887700Y-104482900D03*
%TO.P,SW1,2*%
%TO.N,GND*%
X142887700Y-99982900D03*
%TD*%
D15*
%TO.P,J9,2*%
%TO.N,CYCLE_START_RESUME*%
X166966900Y-95923100D03*
D16*
%TO.P,J9,1*%
%TO.N,GND*%
X169506900Y-95923100D03*
%TD*%
D15*
%TO.P,J8,2*%
%TO.N,FEED_HOLD*%
X138049000Y-96405700D03*
D16*
%TO.P,J8,1*%
%TO.N,GND*%
X140589000Y-96405700D03*
%TD*%
D15*
%TO.P,J7,3*%
%TO.N,SPINDLE_PWM*%
X135382000Y-64770000D03*
%TO.P,J7,2*%
%TO.N,SPINDLE_PWM_SELECT*%
X135382000Y-62230000D03*
D16*
%TO.P,J7,1*%
%TO.N,SPINDLE_PWM_INVERTED*%
X135382000Y-59690000D03*
%TD*%
D15*
%TO.P,J6,2*%
%TO.N,PROBE*%
X176022000Y-59690000D03*
D16*
%TO.P,J6,1*%
%TO.N,GND*%
X178562000Y-59690000D03*
%TD*%
D17*
%TO.P,Q1,1*%
%TO.N,GND*%
X138569700Y-68605400D03*
D18*
%TO.P,Q1,3*%
%TO.N,SPINDLE_PWM_INVERTED*%
X136029700Y-68605400D03*
%TO.P,Q1,2*%
%TO.N,Net-(Q1-Pad2)*%
X137299700Y-68605400D03*
%TD*%
D15*
%TO.P,J5,3*%
%TO.N,SPINDLE_ENABLE_14*%
X131711700Y-59664600D03*
%TO.P,J5,2*%
%TO.N,SPINDLE_PWM_SELECT*%
X131711700Y-62204600D03*
D16*
%TO.P,J5,1*%
%TO.N,SPINDLE_ENABLE_17*%
X131711700Y-64744600D03*
%TD*%
D15*
%TO.P,J4,2*%
%TO.N,Y_DIR*%
X153670000Y-59690000D03*
D16*
%TO.P,J4,1*%
%TO.N,A_DIR*%
X156210000Y-59690000D03*
%TD*%
D15*
%TO.P,J3,2*%
%TO.N,Y_STEP*%
X145415000Y-59690000D03*
D16*
%TO.P,J3,1*%
%TO.N,A_STEP*%
X147955000Y-59690000D03*
%TD*%
D15*
%TO.P,J2,3*%
%TO.N,DISABLE_STEPPER_1*%
X139065000Y-64770000D03*
%TO.P,J2,2*%
%TO.N,DISABLE_STEPPER*%
X139065000Y-62230000D03*
D16*
%TO.P,J2,1*%
%TO.N,DISABLE_STEPPER_16*%
X139065000Y-59690000D03*
%TD*%
D11*
%TO.P,J1,25*%
%TO.N,GND*%
X169650000Y-53975000D03*
%TO.P,J1,24*%
X166880000Y-53975000D03*
%TO.P,J1,23*%
X164110000Y-53975000D03*
%TO.P,J1,22*%
X161340000Y-53975000D03*
%TO.P,J1,21*%
X158570000Y-53975000D03*
%TO.P,J1,20*%
X155800000Y-53975000D03*
%TO.P,J1,19*%
X153030000Y-53975000D03*
%TO.P,J1,18*%
X150260000Y-53975000D03*
%TO.P,J1,17*%
%TO.N,SPINDLE_ENABLE_17*%
X147490000Y-53975000D03*
%TO.P,J1,16*%
%TO.N,DISABLE_STEPPER_16*%
X144720000Y-53975000D03*
%TO.P,J1,15*%
%TO.N,Net-(J1-Pad15)*%
X141950000Y-53975000D03*
%TO.P,J1,14*%
%TO.N,SPINDLE_ENABLE_14*%
X139180000Y-53975000D03*
%TO.P,J1,13*%
%TO.N,Net-(J1-Pad13)*%
X171035000Y-56515000D03*
%TO.P,J1,12*%
%TO.N,Z_LIMIT*%
X168265000Y-56515000D03*
%TO.P,J1,11*%
%TO.N,Y_LIMIT*%
X165495000Y-56515000D03*
%TO.P,J1,10*%
%TO.N,X_LIMIT*%
X162725000Y-56515000D03*
%TO.P,J1,9*%
%TO.N,A_DIR*%
X159955000Y-56515000D03*
%TO.P,J1,8*%
%TO.N,A_STEP*%
X157185000Y-56515000D03*
%TO.P,J1,7*%
%TO.N,Z_DIR*%
X154415000Y-56515000D03*
%TO.P,J1,6*%
%TO.N,Z_STEP*%
X151645000Y-56515000D03*
%TO.P,J1,5*%
%TO.N,Y_DIR*%
X148875000Y-56515000D03*
%TO.P,J1,4*%
%TO.N,Y_STEP*%
X146105000Y-56515000D03*
%TO.P,J1,3*%
%TO.N,X_DIR*%
X143335000Y-56515000D03*
%TO.P,J1,2*%
%TO.N,X_STEP*%
X140565000Y-56515000D03*
D19*
%TO.P,J1,1*%
%TO.N,DISABLE_STEPPER_1*%
X137795000Y-56515000D03*
%TD*%
D10*
%TO.P,A1,16*%
%TO.N,Net-(A1-Pad16)*%
X161290000Y-101600000D03*
%TO.P,A1,15*%
%TO.N,Z_LIMIT*%
X146050000Y-101600000D03*
%TO.P,A1,30*%
%TO.N,Net-(A1-Pad30)*%
X161290000Y-66040000D03*
%TO.P,A1,14*%
%TO.N,SPINDLE_PWM*%
X146050000Y-99060000D03*
%TO.P,A1,29*%
%TO.N,Net-(A1-Pad29)*%
X161290000Y-68580000D03*
%TO.P,A1,13*%
%TO.N,Y_LIMIT*%
X146050000Y-96520000D03*
%TO.P,A1,28*%
%TO.N,Net-(A1-Pad28)*%
X161290000Y-71120000D03*
%TO.P,A1,12*%
%TO.N,X_LIMIT*%
X146050000Y-93980000D03*
%TO.P,A1,27*%
%TO.N,VCC*%
X161290000Y-73660000D03*
%TO.P,A1,11*%
%TO.N,DISABLE_STEPPER*%
X146050000Y-91440000D03*
%TO.P,A1,26*%
%TO.N,Net-(A1-Pad26)*%
X161290000Y-76200000D03*
%TO.P,A1,10*%
%TO.N,Z_DIR*%
X146050000Y-88900000D03*
%TO.P,A1,25*%
%TO.N,Net-(A1-Pad25)*%
X161290000Y-78740000D03*
%TO.P,A1,9*%
%TO.N,Y_DIR*%
X146050000Y-86360000D03*
%TO.P,A1,24*%
%TO.N,PROBE*%
X161290000Y-81280000D03*
%TO.P,A1,8*%
%TO.N,X_DIR*%
X146050000Y-83820000D03*
%TO.P,A1,23*%
%TO.N,Net-(A1-Pad23)*%
X161290000Y-83820000D03*
%TO.P,A1,7*%
%TO.N,Z_STEP*%
X146050000Y-81280000D03*
%TO.P,A1,22*%
%TO.N,Net-(A1-Pad22)*%
X161290000Y-86360000D03*
%TO.P,A1,6*%
%TO.N,Y_STEP*%
X146050000Y-78740000D03*
%TO.P,A1,21*%
%TO.N,CYCLE_START_RESUME*%
X161290000Y-88900000D03*
%TO.P,A1,5*%
%TO.N,X_STEP*%
X146050000Y-76200000D03*
%TO.P,A1,20*%
%TO.N,FEED_HOLD*%
X161290000Y-91440000D03*
%TO.P,A1,4*%
%TO.N,GND*%
X146050000Y-73660000D03*
%TO.P,A1,19*%
%TO.N,Net-(A1-Pad19)*%
X161290000Y-93980000D03*
%TO.P,A1,3*%
%TO.N,Net-(A1-Pad3)*%
X146050000Y-71120000D03*
%TO.P,A1,18*%
%TO.N,Net-(A1-Pad18)*%
X161290000Y-96520000D03*
%TO.P,A1,2*%
%TO.N,Net-(A1-Pad2)*%
X146050000Y-68580000D03*
%TO.P,A1,17*%
%TO.N,Net-(A1-Pad17)*%
X161290000Y-99060000D03*
D19*
%TO.P,A1,1*%
%TO.N,Net-(A1-Pad1)*%
X146050000Y-66040000D03*
%TD*%
D20*
%TO.N,Y_DIR*%
X153670000Y-59690000D03*
%TO.N,X_DIR*%
X142875000Y-78105000D03*
%TO.N,Z_STEP*%
X142470297Y-81265603D03*
%TO.N,VCC*%
X159258000Y-73660000D03*
X135750300Y-82384900D03*
%TD*%
D21*
%TO.N,Z_LIMIT*%
X158115000Y-66665000D02*
X168265000Y-56515000D01*
X158115000Y-89535000D02*
X158115000Y-86487000D01*
X158115000Y-86487000D02*
X158115000Y-86995000D01*
X146050000Y-101600000D02*
X158115000Y-89535000D01*
X158115000Y-66665000D02*
X158115000Y-86487000D01*
%TO.N,Y_LIMIT*%
X156845000Y-65165000D02*
X165495000Y-56515000D01*
X156845000Y-85725000D02*
X146050000Y-96520000D01*
X156845000Y-65165000D02*
X156845000Y-85725000D01*
%TO.N,X_LIMIT*%
X155740000Y-63500000D02*
X162725000Y-56515000D01*
X155740000Y-84290000D02*
X146050000Y-93980000D01*
X155740000Y-63500000D02*
X155740000Y-84290000D01*
%TO.N,DISABLE_STEPPER*%
X140519990Y-90864292D02*
X140519990Y-63684990D01*
X142144499Y-92488801D02*
X140519990Y-90864292D01*
X145001199Y-92488801D02*
X142144499Y-92488801D01*
X140519990Y-63684990D02*
X139065000Y-62230000D01*
X146050000Y-91440000D02*
X145001199Y-92488801D01*
%TO.N,Z_DIR*%
X154940000Y-57040000D02*
X154415000Y-56515000D01*
X154940000Y-80010000D02*
X154940000Y-57040000D01*
X146050000Y-88900000D02*
X154940000Y-80010000D01*
%TO.N,Y_DIR*%
X153670000Y-78740000D02*
X153670000Y-59690000D01*
X146050000Y-86360000D02*
X153670000Y-78740000D01*
%TO.N,X_DIR*%
X142875000Y-80645000D02*
X142875000Y-78105000D01*
X146050000Y-83820000D02*
X142875000Y-80645000D01*
%TO.N,Z_STEP*%
X151645000Y-75685000D02*
X146050000Y-81280000D01*
X151645000Y-56515000D02*
X151645000Y-75685000D01*
X142684500Y-81479806D02*
X142470297Y-81265603D01*
X142684500Y-85102700D02*
X142684500Y-81479806D01*
%TO.N,Y_STEP*%
X146050000Y-78740000D02*
X147175001Y-77614999D01*
X145669998Y-59690000D02*
X145415000Y-59690000D01*
X147175001Y-61195003D02*
X145669998Y-59690000D01*
X147175001Y-77614999D02*
X147175001Y-61195003D01*
X145415000Y-57205000D02*
X146105000Y-56515000D01*
X145415000Y-59690000D02*
X145415000Y-57205000D01*
X145509999Y-82405001D02*
X144924999Y-81820001D01*
X146300003Y-82405001D02*
X145509999Y-82405001D01*
X144924999Y-79865001D02*
X146050000Y-78740000D01*
X147175001Y-83279999D02*
X146300003Y-82405001D01*
X147175001Y-84360001D02*
X147175001Y-83279999D01*
X144924999Y-81820001D02*
X144924999Y-79865001D01*
X146590001Y-84945001D02*
X147175001Y-84360001D01*
X144847729Y-84945001D02*
X146590001Y-84945001D01*
X142684500Y-87108230D02*
X144847729Y-84945001D01*
X142684500Y-88239600D02*
X142684500Y-87108230D01*
%TO.N,X_STEP*%
X140335000Y-56745000D02*
X140565000Y-56515000D01*
X140970000Y-75565000D02*
X140970000Y-56920000D01*
X141605000Y-76200000D02*
X140970000Y-75565000D01*
X141312900Y-76492100D02*
X141605000Y-76200000D01*
X146050000Y-76200000D02*
X141605000Y-76200000D01*
X141312900Y-89992200D02*
X141312900Y-76492100D01*
X142684500Y-91363800D02*
X141312900Y-89992200D01*
%TO.N,DISABLE_STEPPER_16*%
X143594999Y-55100001D02*
X144720000Y-53975000D01*
X140314997Y-55100001D02*
X143594999Y-55100001D01*
X139065000Y-56349998D02*
X140314997Y-55100001D01*
X139065000Y-59690000D02*
X139065000Y-56349998D01*
%TO.N,DISABLE_STEPPER_1*%
X137160000Y-56515000D02*
X137795000Y-56515000D01*
X137795000Y-63500000D02*
X139065000Y-64770000D01*
X137795000Y-56515000D02*
X137795000Y-63500000D01*
%TO.N,A_DIR*%
X156780000Y-59690000D02*
X159955000Y-56515000D01*
X156210000Y-59690000D02*
X156780000Y-59690000D01*
%TO.N,A_STEP*%
X156059999Y-55389999D02*
X157185000Y-56515000D01*
X148334999Y-55389999D02*
X156059999Y-55389999D01*
X147749999Y-55974999D02*
X148334999Y-55389999D01*
X147749999Y-59484999D02*
X147749999Y-55974999D01*
X147955000Y-59690000D02*
X147749999Y-59484999D01*
%TO.N,SPINDLE_ENABLE_17*%
X146364999Y-52849999D02*
X147490000Y-53975000D01*
X130536699Y-59100599D02*
X136787299Y-52849999D01*
X136787299Y-52849999D02*
X146364999Y-52849999D01*
X130536699Y-63569599D02*
X130536699Y-59100599D01*
X131711700Y-64744600D02*
X130536699Y-63569599D01*
%TO.N,SPINDLE_ENABLE_14*%
X137401300Y-53975000D02*
X139180000Y-53975000D01*
X131711700Y-59664600D02*
X137401300Y-53975000D01*
%TO.N,VCC*%
X159258000Y-73660000D02*
X161290000Y-73660000D01*
%TO.N,PROBE*%
X176022000Y-66548000D02*
X176022000Y-59690000D01*
X161290000Y-81280000D02*
X176022000Y-66548000D01*
%TO.N,SPINDLE_PWM_SELECT*%
X131737100Y-62230000D02*
X131711700Y-62204600D01*
X135382000Y-62230000D02*
X131737100Y-62230000D01*
%TO.N,SPINDLE_PWM_INVERTED*%
X136144000Y-69342000D02*
X136144000Y-68342000D01*
%TO.N,CYCLE_START_RESUME*%
X166966900Y-94576900D02*
X166966900Y-95923100D01*
X161290000Y-88900000D02*
X166966900Y-94576900D01*
X166966900Y-98082100D02*
X165277800Y-99771200D01*
X166966900Y-95923100D02*
X166966900Y-98082100D01*
X165277800Y-99771200D02*
X171777800Y-99771200D01*
%TO.N,FEED_HOLD*%
X148247100Y-104482900D02*
X161290000Y-91440000D01*
X142887700Y-104482900D02*
X148247100Y-104482900D01*
X142887700Y-104482900D02*
X136387700Y-104482900D01*
X138049000Y-102821600D02*
X138049000Y-96405700D01*
X136387700Y-104482900D02*
X138049000Y-102821600D01*
%TO.N,GND*%
X128701800Y-79629000D02*
X128981200Y-79908400D01*
%TO.N,SPINDLE_PWM*%
X134752299Y-65399701D02*
X135382000Y-64770000D01*
X134752299Y-75049599D02*
X134752299Y-65399701D01*
X139090400Y-79387700D02*
X134752299Y-75049599D01*
X139039600Y-92049600D02*
X139039600Y-80175100D01*
X146050000Y-99060000D02*
X139039600Y-92049600D01*
%TO.N,VCC*%
X135750300Y-80403700D02*
X135966200Y-80187800D01*
X135750300Y-82384900D02*
X135750300Y-80403700D01*
%TO.N,Net-(Q1-Pad2)*%
X137299700Y-70815200D02*
X137299700Y-68605400D01*
X139039600Y-72555100D02*
X137299700Y-70815200D01*
%TO.N,SPINDLE_PWM_INVERTED*%
X135966200Y-68668900D02*
X136029700Y-68605400D01*
X135966200Y-72567800D02*
X135966200Y-68668900D01*
X136557001Y-60865001D02*
X135382000Y-59690000D01*
X136557001Y-65334001D02*
X136557001Y-60865001D01*
X136029700Y-65861302D02*
X136557001Y-65334001D01*
X136029700Y-68605400D02*
X136029700Y-65861302D01*
%TO.N,Net-(D1-Pad2)*%
X133248400Y-91363800D02*
X131521200Y-93091000D01*
X135064500Y-91363800D02*
X133248400Y-91363800D01*
%TO.N,Net-(D2-Pad2)*%
X133261100Y-88239600D02*
X131521200Y-86499700D01*
X135064500Y-88239600D02*
X133261100Y-88239600D01*
%TO.N,Net-(D3-Pad2)*%
X131521200Y-80772000D02*
X131521200Y-79908400D01*
X135064500Y-83451700D02*
X131521200Y-79908400D01*
X135064500Y-85102700D02*
X135064500Y-83451700D01*
%TD*%
M02*
