%FSLAX45Y45*%
G04 Gerber Fmt 4.5, Leading zero omitted, Abs format (unit mm)*
G04 Created by KiCad (PCBNEW 5.1.6-c6e7f7d~87~ubuntu20.04.1) date 2020-09-12 20:51:53*
%MOMM*%
%LPD*%
G01*
G04 APERTURE LIST*
%TA.AperFunction,Profile*%
%ADD10C,0.050000*%
%TD*%
%ADD11C,0.200000*%
%ADD12C,0.300000*%
G04 APERTURE END LIST*
D10*
X18224500Y-10541000D02*
X18224500Y-4445000D01*
X12890500Y-10795000D02*
G75*
G02*
X12636500Y-10541000I0J254000D01*
G01*
X18224500Y-10541000D02*
G75*
G02*
X17970500Y-10795000I-254000J0D01*
G01*
X12636500Y-10541000D02*
X12636500Y-4445000D01*
X17970500Y-10795000D02*
X12890500Y-10795000D01*
X12636500Y-4445000D02*
X18224500Y-4445000D01*
D11*
X12921000Y-10190500D02*
X13241000Y-10510500D01*
X13241000Y-10190500D02*
X12921000Y-10510500D01*
X17620000Y-10190500D02*
X17940000Y-10510500D01*
X17940000Y-10190500D02*
X17620000Y-10510500D01*
X17620000Y-4729500D02*
X17940000Y-5049500D01*
X17940000Y-4729500D02*
X17620000Y-5049500D01*
X12921000Y-4729500D02*
X13241000Y-5049500D01*
X13241000Y-4729500D02*
X12921000Y-5049500D01*
D12*
X12920428Y-11263214D02*
X12920428Y-10963214D01*
X12991857Y-10963214D01*
X13034714Y-10977500D01*
X13063286Y-11006072D01*
X13077571Y-11034643D01*
X13091857Y-11091786D01*
X13091857Y-11134643D01*
X13077571Y-11191786D01*
X13063286Y-11220357D01*
X13034714Y-11248929D01*
X12991857Y-11263214D01*
X12920428Y-11263214D01*
X13220428Y-11263214D02*
X13220428Y-11063214D01*
X13220428Y-11120357D02*
X13234714Y-11091786D01*
X13249000Y-11077500D01*
X13277571Y-11063214D01*
X13306143Y-11063214D01*
X13406143Y-11263214D02*
X13406143Y-11063214D01*
X13406143Y-10963214D02*
X13391857Y-10977500D01*
X13406143Y-10991786D01*
X13420428Y-10977500D01*
X13406143Y-10963214D01*
X13406143Y-10991786D01*
X13591857Y-11263214D02*
X13563286Y-11248929D01*
X13549000Y-11220357D01*
X13549000Y-10963214D01*
X13749000Y-11263214D02*
X13720428Y-11248929D01*
X13706143Y-11220357D01*
X13706143Y-10963214D01*
X14091857Y-11263214D02*
X14091857Y-10963214D01*
X14191857Y-11177500D01*
X14291857Y-10963214D01*
X14291857Y-11263214D01*
X14563286Y-11263214D02*
X14563286Y-11106072D01*
X14549000Y-11077500D01*
X14520428Y-11063214D01*
X14463286Y-11063214D01*
X14434714Y-11077500D01*
X14563286Y-11248929D02*
X14534714Y-11263214D01*
X14463286Y-11263214D01*
X14434714Y-11248929D01*
X14420428Y-11220357D01*
X14420428Y-11191786D01*
X14434714Y-11163214D01*
X14463286Y-11148929D01*
X14534714Y-11148929D01*
X14563286Y-11134643D01*
X14706143Y-11063214D02*
X14706143Y-11363214D01*
X14706143Y-11077500D02*
X14734714Y-11063214D01*
X14791857Y-11063214D01*
X14820428Y-11077500D01*
X14834714Y-11091786D01*
X14849000Y-11120357D01*
X14849000Y-11206071D01*
X14834714Y-11234643D01*
X14820428Y-11248929D01*
X14791857Y-11263214D01*
X14734714Y-11263214D01*
X14706143Y-11248929D01*
X14977571Y-11234643D02*
X14991857Y-11248929D01*
X14977571Y-11263214D01*
X14963286Y-11248929D01*
X14977571Y-11234643D01*
X14977571Y-11263214D01*
X14977571Y-11077500D02*
X14991857Y-11091786D01*
X14977571Y-11106072D01*
X14963286Y-11091786D01*
X14977571Y-11077500D01*
X14977571Y-11106072D01*
X12314000Y-11597500D02*
X12634000Y-11917500D01*
X12634000Y-11597500D02*
X12314000Y-11917500D01*
X12891857Y-11593214D02*
X13077571Y-11593214D01*
X12977571Y-11707500D01*
X13020428Y-11707500D01*
X13049000Y-11721786D01*
X13063286Y-11736071D01*
X13077571Y-11764643D01*
X13077571Y-11836071D01*
X13063286Y-11864643D01*
X13049000Y-11878929D01*
X13020428Y-11893214D01*
X12934714Y-11893214D01*
X12906143Y-11878929D01*
X12891857Y-11864643D01*
X13206143Y-11864643D02*
X13220428Y-11878929D01*
X13206143Y-11893214D01*
X13191857Y-11878929D01*
X13206143Y-11864643D01*
X13206143Y-11893214D01*
X13334714Y-11621786D02*
X13349000Y-11607500D01*
X13377571Y-11593214D01*
X13449000Y-11593214D01*
X13477571Y-11607500D01*
X13491857Y-11621786D01*
X13506143Y-11650357D01*
X13506143Y-11678929D01*
X13491857Y-11721786D01*
X13320428Y-11893214D01*
X13506143Y-11893214D01*
X13691857Y-11593214D02*
X13720428Y-11593214D01*
X13749000Y-11607500D01*
X13763286Y-11621786D01*
X13777571Y-11650357D01*
X13791857Y-11707500D01*
X13791857Y-11778929D01*
X13777571Y-11836071D01*
X13763286Y-11864643D01*
X13749000Y-11878929D01*
X13720428Y-11893214D01*
X13691857Y-11893214D01*
X13663286Y-11878929D01*
X13649000Y-11864643D01*
X13634714Y-11836071D01*
X13620428Y-11778929D01*
X13620428Y-11707500D01*
X13634714Y-11650357D01*
X13649000Y-11621786D01*
X13663286Y-11607500D01*
X13691857Y-11593214D01*
X13920428Y-11893214D02*
X13920428Y-11693214D01*
X13920428Y-11721786D02*
X13934714Y-11707500D01*
X13963286Y-11693214D01*
X14006143Y-11693214D01*
X14034714Y-11707500D01*
X14049000Y-11736071D01*
X14049000Y-11893214D01*
X14049000Y-11736071D02*
X14063286Y-11707500D01*
X14091857Y-11693214D01*
X14134714Y-11693214D01*
X14163286Y-11707500D01*
X14177571Y-11736071D01*
X14177571Y-11893214D01*
X14320428Y-11893214D02*
X14320428Y-11693214D01*
X14320428Y-11721786D02*
X14334714Y-11707500D01*
X14363286Y-11693214D01*
X14406143Y-11693214D01*
X14434714Y-11707500D01*
X14449000Y-11736071D01*
X14449000Y-11893214D01*
X14449000Y-11736071D02*
X14463286Y-11707500D01*
X14491857Y-11693214D01*
X14534714Y-11693214D01*
X14563286Y-11707500D01*
X14577571Y-11736071D01*
X14577571Y-11893214D01*
X15163286Y-11578929D02*
X14906143Y-11964643D01*
X15549000Y-11593214D02*
X15577571Y-11593214D01*
X15606143Y-11607500D01*
X15620428Y-11621786D01*
X15634714Y-11650357D01*
X15649000Y-11707500D01*
X15649000Y-11778929D01*
X15634714Y-11836071D01*
X15620428Y-11864643D01*
X15606143Y-11878929D01*
X15577571Y-11893214D01*
X15549000Y-11893214D01*
X15520428Y-11878929D01*
X15506143Y-11864643D01*
X15491857Y-11836071D01*
X15477571Y-11778929D01*
X15477571Y-11707500D01*
X15491857Y-11650357D01*
X15506143Y-11621786D01*
X15520428Y-11607500D01*
X15549000Y-11593214D01*
X15777571Y-11864643D02*
X15791857Y-11878929D01*
X15777571Y-11893214D01*
X15763286Y-11878929D01*
X15777571Y-11864643D01*
X15777571Y-11893214D01*
X16077571Y-11893214D02*
X15906143Y-11893214D01*
X15991857Y-11893214D02*
X15991857Y-11593214D01*
X15963286Y-11636071D01*
X15934714Y-11664643D01*
X15906143Y-11678929D01*
X16191857Y-11621786D02*
X16206143Y-11607500D01*
X16234714Y-11593214D01*
X16306143Y-11593214D01*
X16334714Y-11607500D01*
X16349000Y-11621786D01*
X16363286Y-11650357D01*
X16363286Y-11678929D01*
X16349000Y-11721786D01*
X16177571Y-11893214D01*
X16363286Y-11893214D01*
X16620428Y-11593214D02*
X16563286Y-11593214D01*
X16534714Y-11607500D01*
X16520428Y-11621786D01*
X16491857Y-11664643D01*
X16477571Y-11721786D01*
X16477571Y-11836071D01*
X16491857Y-11864643D01*
X16506143Y-11878929D01*
X16534714Y-11893214D01*
X16591857Y-11893214D01*
X16620428Y-11878929D01*
X16634714Y-11864643D01*
X16649000Y-11836071D01*
X16649000Y-11764643D01*
X16634714Y-11736071D01*
X16620428Y-11721786D01*
X16591857Y-11707500D01*
X16534714Y-11707500D01*
X16506143Y-11721786D01*
X16491857Y-11736071D01*
X16477571Y-11764643D01*
X16763286Y-11593214D02*
X16763286Y-11650357D01*
X16877571Y-11593214D02*
X16877571Y-11650357D01*
X17320428Y-12007500D02*
X17306143Y-11993214D01*
X17277571Y-11950357D01*
X17263286Y-11921786D01*
X17249000Y-11878929D01*
X17234714Y-11807500D01*
X17234714Y-11750357D01*
X17249000Y-11678929D01*
X17263286Y-11636071D01*
X17277571Y-11607500D01*
X17306143Y-11564643D01*
X17320428Y-11550357D01*
X17563286Y-11693214D02*
X17563286Y-11893214D01*
X17491857Y-11578929D02*
X17420428Y-11793214D01*
X17606143Y-11793214D01*
X17949000Y-11893214D02*
X17949000Y-11593214D01*
X18077571Y-11893214D02*
X18077571Y-11736071D01*
X18063286Y-11707500D01*
X18034714Y-11693214D01*
X17991857Y-11693214D01*
X17963286Y-11707500D01*
X17949000Y-11721786D01*
X18263286Y-11893214D02*
X18234714Y-11878929D01*
X18220428Y-11864643D01*
X18206143Y-11836071D01*
X18206143Y-11750357D01*
X18220428Y-11721786D01*
X18234714Y-11707500D01*
X18263286Y-11693214D01*
X18306143Y-11693214D01*
X18334714Y-11707500D01*
X18349000Y-11721786D01*
X18363286Y-11750357D01*
X18363286Y-11836071D01*
X18349000Y-11864643D01*
X18334714Y-11878929D01*
X18306143Y-11893214D01*
X18263286Y-11893214D01*
X18534714Y-11893214D02*
X18506143Y-11878929D01*
X18491857Y-11850357D01*
X18491857Y-11593214D01*
X18763286Y-11878929D02*
X18734714Y-11893214D01*
X18677571Y-11893214D01*
X18649000Y-11878929D01*
X18634714Y-11850357D01*
X18634714Y-11736071D01*
X18649000Y-11707500D01*
X18677571Y-11693214D01*
X18734714Y-11693214D01*
X18763286Y-11707500D01*
X18777571Y-11736071D01*
X18777571Y-11764643D01*
X18634714Y-11793214D01*
X18891857Y-11878929D02*
X18920428Y-11893214D01*
X18977571Y-11893214D01*
X19006143Y-11878929D01*
X19020428Y-11850357D01*
X19020428Y-11836071D01*
X19006143Y-11807500D01*
X18977571Y-11793214D01*
X18934714Y-11793214D01*
X18906143Y-11778929D01*
X18891857Y-11750357D01*
X18891857Y-11736071D01*
X18906143Y-11707500D01*
X18934714Y-11693214D01*
X18977571Y-11693214D01*
X19006143Y-11707500D01*
X19120428Y-12007500D02*
X19134714Y-11993214D01*
X19163286Y-11950357D01*
X19177571Y-11921786D01*
X19191857Y-11878929D01*
X19206143Y-11807500D01*
X19206143Y-11750357D01*
X19191857Y-11678929D01*
X19177571Y-11636071D01*
X19163286Y-11607500D01*
X19134714Y-11564643D01*
X19120428Y-11550357D01*
X19663286Y-12007500D02*
X19649000Y-11993214D01*
X19620428Y-11950357D01*
X19606143Y-11921786D01*
X19591857Y-11878929D01*
X19577571Y-11807500D01*
X19577571Y-11750357D01*
X19591857Y-11678929D01*
X19606143Y-11636071D01*
X19620428Y-11607500D01*
X19649000Y-11564643D01*
X19663286Y-11550357D01*
X19777571Y-11693214D02*
X19777571Y-11893214D01*
X19777571Y-11721786D02*
X19791857Y-11707500D01*
X19820428Y-11693214D01*
X19863286Y-11693214D01*
X19891857Y-11707500D01*
X19906143Y-11736071D01*
X19906143Y-11893214D01*
X20091857Y-11893214D02*
X20063286Y-11878929D01*
X20049000Y-11864643D01*
X20034714Y-11836071D01*
X20034714Y-11750357D01*
X20049000Y-11721786D01*
X20063286Y-11707500D01*
X20091857Y-11693214D01*
X20134714Y-11693214D01*
X20163286Y-11707500D01*
X20177571Y-11721786D01*
X20191857Y-11750357D01*
X20191857Y-11836071D01*
X20177571Y-11864643D01*
X20163286Y-11878929D01*
X20134714Y-11893214D01*
X20091857Y-11893214D01*
X20277571Y-11693214D02*
X20391857Y-11693214D01*
X20320428Y-11593214D02*
X20320428Y-11850357D01*
X20334714Y-11878929D01*
X20363286Y-11893214D01*
X20391857Y-11893214D01*
X20720428Y-11693214D02*
X20720428Y-11993214D01*
X20720428Y-11707500D02*
X20749000Y-11693214D01*
X20806143Y-11693214D01*
X20834714Y-11707500D01*
X20849000Y-11721786D01*
X20863286Y-11750357D01*
X20863286Y-11836071D01*
X20849000Y-11864643D01*
X20834714Y-11878929D01*
X20806143Y-11893214D01*
X20749000Y-11893214D01*
X20720428Y-11878929D01*
X21034714Y-11893214D02*
X21006143Y-11878929D01*
X20991857Y-11850357D01*
X20991857Y-11593214D01*
X21277571Y-11893214D02*
X21277571Y-11736071D01*
X21263286Y-11707500D01*
X21234714Y-11693214D01*
X21177571Y-11693214D01*
X21149000Y-11707500D01*
X21277571Y-11878929D02*
X21249000Y-11893214D01*
X21177571Y-11893214D01*
X21149000Y-11878929D01*
X21134714Y-11850357D01*
X21134714Y-11821786D01*
X21149000Y-11793214D01*
X21177571Y-11778929D01*
X21249000Y-11778929D01*
X21277571Y-11764643D01*
X21377571Y-11693214D02*
X21491857Y-11693214D01*
X21420428Y-11593214D02*
X21420428Y-11850357D01*
X21434714Y-11878929D01*
X21463286Y-11893214D01*
X21491857Y-11893214D01*
X21706143Y-11878929D02*
X21677571Y-11893214D01*
X21620428Y-11893214D01*
X21591857Y-11878929D01*
X21577571Y-11850357D01*
X21577571Y-11736071D01*
X21591857Y-11707500D01*
X21620428Y-11693214D01*
X21677571Y-11693214D01*
X21706143Y-11707500D01*
X21720428Y-11736071D01*
X21720428Y-11764643D01*
X21577571Y-11793214D01*
X21977571Y-11893214D02*
X21977571Y-11593214D01*
X21977571Y-11878929D02*
X21949000Y-11893214D01*
X21891857Y-11893214D01*
X21863286Y-11878929D01*
X21849000Y-11864643D01*
X21834714Y-11836071D01*
X21834714Y-11750357D01*
X21849000Y-11721786D01*
X21863286Y-11707500D01*
X21891857Y-11693214D01*
X21949000Y-11693214D01*
X21977571Y-11707500D01*
X22091857Y-12007500D02*
X22106143Y-11993214D01*
X22134714Y-11950357D01*
X22149000Y-11921786D01*
X22163286Y-11878929D01*
X22177571Y-11807500D01*
X22177571Y-11750357D01*
X22163286Y-11678929D01*
X22149000Y-11636071D01*
X22134714Y-11607500D01*
X22106143Y-11564643D01*
X22091857Y-11550357D01*
M02*
